# Tiled2Unity generated file. Do not modify by hand.
# Wavefront file for 'map5_mesh_0007.obj'

# Vertices (Count = 908)
v -2352 -240 0
v -2368 -240 0
v -2368 -224 0
v -2352 -224 0
v -2368 -240 0
v -2384 -240 0
v -2384 -224 0
v -2368 -224 0
v -2384 -240 0
v -2400 -240 0
v -2400 -224 0
v -2384 -224 0
v -2400 -240 0
v -2416 -240 0
v -2416 -224 0
v -2400 -224 0
v -2416 -240 0
v -2432 -240 0
v -2432 -224 0
v -2416 -224 0
v -2432 -240 0
v -2448 -240 0
v -2448 -224 0
v -2432 -224 0
v -2464 -240 0
v -2480 -240 0
v -2480 -224 0
v -2464 -224 0
v -2480 -240 0
v -2496 -240 0
v -2496 -224 0
v -2480 -224 0
v -2496 -240 0
v -2512 -240 0
v -2512 -224 0
v -2496 -224 0
v -2512 -240 0
v -2528 -240 0
v -2528 -224 0
v -2512 -224 0
v -2528 -240 0
v -2544 -240 0
v -2544 -224 0
v -2528 -224 0
v -2544 -240 0
v -2560 -240 0
v -2560 -224 0
v -2544 -224 0
v -2560 -240 0
v -2576 -240 0
v -2576 -224 0
v -2560 -224 0
v -2576 -240 0
v -2592 -240 0
v -2592 -224 0
v -2576 -224 0
v -2368 -256 0
v -2384 -256 0
v -2384 -240 0
v -2368 -240 0
v -2384 -256 0
v -2400 -256 0
v -2400 -240 0
v -2384 -240 0
v -2400 -256 0
v -2416 -256 0
v -2416 -240 0
v -2400 -240 0
v -2416 -256 0
v -2432 -256 0
v -2432 -240 0
v -2416 -240 0
v -2432 -256 0
v -2448 -256 0
v -2448 -240 0
v -2432 -240 0
v -2448 -256 0
v -2464 -256 0
v -2464 -240 0
v -2448 -240 0
v -2464 -256 0
v -2480 -256 0
v -2480 -240 0
v -2464 -240 0
v -2480 -256 0
v -2496 -256 0
v -2496 -240 0
v -2480 -240 0
v -2496 -256 0
v -2512 -256 0
v -2512 -240 0
v -2496 -240 0
v -2512 -256 0
v -2528 -256 0
v -2528 -240 0
v -2512 -240 0
v -2528 -256 0
v -2544 -256 0
v -2544 -240 0
v -2528 -240 0
v -2544 -256 0
v -2560 -256 0
v -2560 -240 0
v -2544 -240 0
v -2560 -256 0
v -2576 -256 0
v -2576 -240 0
v -2560 -240 0
v -2576 -256 0
v -2592 -256 0
v -2592 -240 0
v -2576 -240 0
v -2368 -272 0
v -2384 -272 0
v -2384 -256 0
v -2368 -256 0
v -2384 -272 0
v -2400 -272 0
v -2400 -256 0
v -2384 -256 0
v -2400 -272 0
v -2416 -272 0
v -2416 -256 0
v -2400 -256 0
v -2416 -272 0
v -2432 -272 0
v -2432 -256 0
v -2416 -256 0
v -2432 -272 0
v -2448 -272 0
v -2448 -256 0
v -2432 -256 0
v -2448 -272 0
v -2464 -272 0
v -2464 -256 0
v -2448 -256 0
v -2464 -272 0
v -2480 -272 0
v -2480 -256 0
v -2464 -256 0
v -2480 -272 0
v -2496 -272 0
v -2496 -256 0
v -2480 -256 0
v -2496 -272 0
v -2512 -272 0
v -2512 -256 0
v -2496 -256 0
v -2512 -272 0
v -2528 -272 0
v -2528 -256 0
v -2512 -256 0
v -2528 -272 0
v -2544 -272 0
v -2544 -256 0
v -2528 -256 0
v -2544 -272 0
v -2560 -272 0
v -2560 -256 0
v -2544 -256 0
v -2560 -272 0
v -2576 -272 0
v -2576 -256 0
v -2560 -256 0
v -2576 -272 0
v -2592 -272 0
v -2592 -256 0
v -2576 -256 0
v -2384 -288 0
v -2400 -288 0
v -2400 -272 0
v -2384 -272 0
v -2400 -288 0
v -2416 -288 0
v -2416 -272 0
v -2400 -272 0
v -2416 -288 0
v -2432 -288 0
v -2432 -272 0
v -2416 -272 0
v -2432 -288 0
v -2448 -288 0
v -2448 -272 0
v -2432 -272 0
v -2448 -288 0
v -2464 -288 0
v -2464 -272 0
v -2448 -272 0
v -2464 -288 0
v -2480 -288 0
v -2480 -272 0
v -2464 -272 0
v -2480 -288 0
v -2496 -288 0
v -2496 -272 0
v -2480 -272 0
v -2496 -288 0
v -2512 -288 0
v -2512 -272 0
v -2496 -272 0
v -2512 -288 0
v -2528 -288 0
v -2528 -272 0
v -2512 -272 0
v -2528 -288 0
v -2544 -288 0
v -2544 -272 0
v -2528 -272 0
v -2544 -288 0
v -2560 -288 0
v -2560 -272 0
v -2544 -272 0
v -2560 -288 0
v -2576 -288 0
v -2576 -272 0
v -2560 -272 0
v -2576 -288 0
v -2592 -288 0
v -2592 -272 0
v -2576 -272 0
v -2384 -304 0
v -2400 -304 0
v -2400 -288 0
v -2384 -288 0
v -2400 -304 0
v -2416 -304 0
v -2416 -288 0
v -2400 -288 0
v -2416 -304 0
v -2432 -304 0
v -2432 -288 0
v -2416 -288 0
v -2432 -304 0
v -2448 -304 0
v -2448 -288 0
v -2432 -288 0
v -2448 -304 0
v -2464 -304 0
v -2464 -288 0
v -2448 -288 0
v -2464 -304 0
v -2480 -304 0
v -2480 -288 0
v -2464 -288 0
v -2480 -304 0
v -2496 -304 0
v -2496 -288 0
v -2480 -288 0
v -2496 -304 0
v -2512 -304 0
v -2512 -288 0
v -2496 -288 0
v -2512 -304 0
v -2528 -304 0
v -2528 -288 0
v -2512 -288 0
v -2528 -304 0
v -2544 -304 0
v -2544 -288 0
v -2528 -288 0
v -2544 -304 0
v -2560 -304 0
v -2560 -288 0
v -2544 -288 0
v -2560 -304 0
v -2576 -304 0
v -2576 -288 0
v -2560 -288 0
v -288 -320 0
v -304 -320 0
v -304 -304 0
v -288 -304 0
v -304 -320 0
v -320 -320 0
v -320 -304 0
v -304 -304 0
v -320 -320 0
v -336 -320 0
v -336 -304 0
v -320 -304 0
v -336 -320 0
v -352 -320 0
v -352 -304 0
v -336 -304 0
v -352 -320 0
v -368 -320 0
v -368 -304 0
v -352 -304 0
v -368 -320 0
v -384 -320 0
v -384 -304 0
v -368 -304 0
v -384 -320 0
v -400 -320 0
v -400 -304 0
v -384 -304 0
v -400 -320 0
v -416 -320 0
v -416 -304 0
v -400 -304 0
v -416 -320 0
v -432 -320 0
v -432 -304 0
v -416 -304 0
v -432 -320 0
v -448 -320 0
v -448 -304 0
v -432 -304 0
v -448 -320 0
v -464 -320 0
v -464 -304 0
v -448 -304 0
v -464 -320 0
v -480 -320 0
v -480 -304 0
v -464 -304 0
v -480 -320 0
v -496 -320 0
v -496 -304 0
v -480 -304 0
v -496 -320 0
v -512 -320 0
v -512 -304 0
v -496 -304 0
v -512 -320 0
v -528 -320 0
v -528 -304 0
v -512 -304 0
v -528 -320 0
v -544 -320 0
v -544 -304 0
v -528 -304 0
v -544 -320 0
v -560 -320 0
v -560 -304 0
v -544 -304 0
v -560 -320 0
v -576 -320 0
v -576 -304 0
v -560 -304 0
v -576 -320 0
v -592 -320 0
v -592 -304 0
v -576 -304 0
v -592 -320 0
v -608 -320 0
v -608 -304 0
v -592 -304 0
v -608 -320 0
v -624 -320 0
v -624 -304 0
v -608 -304 0
v -624 -320 0
v -640 -320 0
v -640 -304 0
v -624 -304 0
v -640 -320 0
v -656 -320 0
v -656 -304 0
v -640 -304 0
v -656 -320 0
v -672 -320 0
v -672 -304 0
v -656 -304 0
v -672 -320 0
v -688 -320 0
v -688 -304 0
v -672 -304 0
v -688 -320 0
v -704 -320 0
v -704 -304 0
v -688 -304 0
v -704 -320 0
v -720 -320 0
v -720 -304 0
v -704 -304 0
v -720 -320 0
v -736 -320 0
v -736 -304 0
v -720 -304 0
v -736 -320 0
v -752 -320 0
v -752 -304 0
v -736 -304 0
v -752 -320 0
v -768 -320 0
v -768 -304 0
v -752 -304 0
v -768 -320 0
v -784 -320 0
v -784 -304 0
v -768 -304 0
v -784 -320 0
v -800 -320 0
v -800 -304 0
v -784 -304 0
v -800 -320 0
v -816 -320 0
v -816 -304 0
v -800 -304 0
v -816 -320 0
v -832 -320 0
v -832 -304 0
v -816 -304 0
v -832 -320 0
v -848 -320 0
v -848 -304 0
v -832 -304 0
v -848 -320 0
v -864 -320 0
v -864 -304 0
v -848 -304 0
v -864 -320 0
v -880 -320 0
v -880 -304 0
v -864 -304 0
v -880 -320 0
v -896 -320 0
v -896 -304 0
v -880 -304 0
v -896 -320 0
v -912 -320 0
v -912 -304 0
v -896 -304 0
v -912 -320 0
v -928 -320 0
v -928 -304 0
v -912 -304 0
v -928 -320 0
v -944 -320 0
v -944 -304 0
v -928 -304 0
v -944 -320 0
v -960 -320 0
v -960 -304 0
v -944 -304 0
v -960 -320 0
v -976 -320 0
v -976 -304 0
v -960 -304 0
v -976 -320 0
v -992 -320 0
v -992 -304 0
v -976 -304 0
v -992 -320 0
v -1008 -320 0
v -1008 -304 0
v -992 -304 0
v -1008 -320 0
v -1024 -320 0
v -1024 -304 0
v -1008 -304 0
v -1024 -320 0
v -1040 -320 0
v -1040 -304 0
v -1024 -304 0
v -1040 -320 0
v -1056 -320 0
v -1056 -304 0
v -1040 -304 0
v -1056 -320 0
v -1072 -320 0
v -1072 -304 0
v -1056 -304 0
v -1072 -320 0
v -1088 -320 0
v -1088 -304 0
v -1072 -304 0
v -1088 -320 0
v -1104 -320 0
v -1104 -304 0
v -1088 -304 0
v -1104 -320 0
v -1120 -320 0
v -1120 -304 0
v -1104 -304 0
v -1120 -320 0
v -1136 -320 0
v -1136 -304 0
v -1120 -304 0
v -1136 -320 0
v -1152 -320 0
v -1152 -304 0
v -1136 -304 0
v -1152 -320 0
v -1168 -320 0
v -1168 -304 0
v -1152 -304 0
v -1168 -320 0
v -1184 -320 0
v -1184 -304 0
v -1168 -304 0
v -1184 -320 0
v -1200 -320 0
v -1200 -304 0
v -1184 -304 0
v -1200 -320 0
v -1216 -320 0
v -1216 -304 0
v -1200 -304 0
v -1216 -320 0
v -1232 -320 0
v -1232 -304 0
v -1216 -304 0
v -1232 -320 0
v -1248 -320 0
v -1248 -304 0
v -1232 -304 0
v -1248 -320 0
v -1264 -320 0
v -1264 -304 0
v -1248 -304 0
v -1264 -320 0
v -1280 -320 0
v -1280 -304 0
v -1264 -304 0
v -1280 -320 0
v -1296 -320 0
v -1296 -304 0
v -1280 -304 0
v -1296 -320 0
v -1312 -320 0
v -1312 -304 0
v -1296 -304 0
v -1312 -320 0
v -1328 -320 0
v -1328 -304 0
v -1312 -304 0
v -1328 -320 0
v -1344 -320 0
v -1344 -304 0
v -1328 -304 0
v -1344 -320 0
v -1360 -320 0
v -1360 -304 0
v -1344 -304 0
v -1360 -320 0
v -1376 -320 0
v -1376 -304 0
v -1360 -304 0
v -1376 -320 0
v -1392 -320 0
v -1392 -304 0
v -1376 -304 0
v -1392 -320 0
v -1408 -320 0
v -1408 -304 0
v -1392 -304 0
v -2400 -320 0
v -2416 -320 0
v -2416 -304 0
v -2400 -304 0
v -2416 -320 0
v -2432 -320 0
v -2432 -304 0
v -2416 -304 0
v -2432 -320 0
v -2448 -320 0
v -2448 -304 0
v -2432 -304 0
v -2448 -320 0
v -2464 -320 0
v -2464 -304 0
v -2448 -304 0
v -2464 -320 0
v -2480 -320 0
v -2480 -304 0
v -2464 -304 0
v -2480 -320 0
v -2496 -320 0
v -2496 -304 0
v -2480 -304 0
v -2496 -320 0
v -2512 -320 0
v -2512 -304 0
v -2496 -304 0
v -2512 -320 0
v -2528 -320 0
v -2528 -304 0
v -2512 -304 0
v -2528 -320 0
v -2544 -320 0
v -2544 -304 0
v -2528 -304 0
v -2544 -320 0
v -2560 -320 0
v -2560 -304 0
v -2544 -304 0
v -288 -336 0
v -304 -336 0
v -304 -320 0
v -288 -320 0
v -304 -336 0
v -320 -336 0
v -320 -320 0
v -304 -320 0
v -320 -336 0
v -336 -336 0
v -336 -320 0
v -320 -320 0
v -336 -336 0
v -352 -336 0
v -352 -320 0
v -336 -320 0
v -352 -336 0
v -368 -336 0
v -368 -320 0
v -352 -320 0
v -368 -336 0
v -384 -336 0
v -384 -320 0
v -368 -320 0
v -384 -336 0
v -400 -336 0
v -400 -320 0
v -384 -320 0
v -400 -336 0
v -416 -336 0
v -416 -320 0
v -400 -320 0
v -416 -336 0
v -432 -336 0
v -432 -320 0
v -416 -320 0
v -432 -336 0
v -448 -336 0
v -448 -320 0
v -432 -320 0
v -448 -336 0
v -464 -336 0
v -464 -320 0
v -448 -320 0
v -464 -336 0
v -480 -336 0
v -480 -320 0
v -464 -320 0
v -480 -336 0
v -496 -336 0
v -496 -320 0
v -480 -320 0
v -496 -336 0
v -512 -336 0
v -512 -320 0
v -496 -320 0
v -512 -336 0
v -528 -336 0
v -528 -320 0
v -512 -320 0
v -528 -336 0
v -544 -336 0
v -544 -320 0
v -528 -320 0
v -544 -336 0
v -560 -336 0
v -560 -320 0
v -544 -320 0
v -560 -336 0
v -576 -336 0
v -576 -320 0
v -560 -320 0
v -576 -336 0
v -592 -336 0
v -592 -320 0
v -576 -320 0
v -592 -336 0
v -608 -336 0
v -608 -320 0
v -592 -320 0
v -608 -336 0
v -624 -336 0
v -624 -320 0
v -608 -320 0
v -624 -336 0
v -640 -336 0
v -640 -320 0
v -624 -320 0
v -640 -336 0
v -656 -336 0
v -656 -320 0
v -640 -320 0
v -656 -336 0
v -672 -336 0
v -672 -320 0
v -656 -320 0
v -672 -336 0
v -688 -336 0
v -688 -320 0
v -672 -320 0
v -688 -336 0
v -704 -336 0
v -704 -320 0
v -688 -320 0
v -704 -336 0
v -720 -336 0
v -720 -320 0
v -704 -320 0
v -720 -336 0
v -736 -336 0
v -736 -320 0
v -720 -320 0
v -736 -336 0
v -752 -336 0
v -752 -320 0
v -736 -320 0
v -752 -336 0
v -768 -336 0
v -768 -320 0
v -752 -320 0
v -768 -336 0
v -784 -336 0
v -784 -320 0
v -768 -320 0
v -784 -336 0
v -800 -336 0
v -800 -320 0
v -784 -320 0
v -800 -336 0
v -816 -336 0
v -816 -320 0
v -800 -320 0
v -816 -336 0
v -832 -336 0
v -832 -320 0
v -816 -320 0
v -832 -336 0
v -848 -336 0
v -848 -320 0
v -832 -320 0
v -848 -336 0
v -864 -336 0
v -864 -320 0
v -848 -320 0
v -864 -336 0
v -880 -336 0
v -880 -320 0
v -864 -320 0
v -880 -336 0
v -896 -336 0
v -896 -320 0
v -880 -320 0
v -896 -336 0
v -912 -336 0
v -912 -320 0
v -896 -320 0
v -912 -336 0
v -928 -336 0
v -928 -320 0
v -912 -320 0
v -928 -336 0
v -944 -336 0
v -944 -320 0
v -928 -320 0
v -944 -336 0
v -960 -336 0
v -960 -320 0
v -944 -320 0
v -960 -336 0
v -976 -336 0
v -976 -320 0
v -960 -320 0
v -976 -336 0
v -992 -336 0
v -992 -320 0
v -976 -320 0
v -992 -336 0
v -1008 -336 0
v -1008 -320 0
v -992 -320 0
v -1008 -336 0
v -1024 -336 0
v -1024 -320 0
v -1008 -320 0
v -1024 -336 0
v -1040 -336 0
v -1040 -320 0
v -1024 -320 0
v -1040 -336 0
v -1056 -336 0
v -1056 -320 0
v -1040 -320 0
v -1056 -336 0
v -1072 -336 0
v -1072 -320 0
v -1056 -320 0
v -1072 -336 0
v -1088 -336 0
v -1088 -320 0
v -1072 -320 0
v -1088 -336 0
v -1104 -336 0
v -1104 -320 0
v -1088 -320 0
v -1104 -336 0
v -1120 -336 0
v -1120 -320 0
v -1104 -320 0
v -1120 -336 0
v -1136 -336 0
v -1136 -320 0
v -1120 -320 0
v -1136 -336 0
v -1152 -336 0
v -1152 -320 0
v -1136 -320 0
v -1152 -336 0
v -1168 -336 0
v -1168 -320 0
v -1152 -320 0
v -1168 -336 0
v -1184 -336 0
v -1184 -320 0
v -1168 -320 0
v -1184 -336 0
v -1200 -336 0
v -1200 -320 0
v -1184 -320 0
v -1200 -336 0
v -1216 -336 0
v -1216 -320 0
v -1200 -320 0
v -1216 -336 0
v -1232 -336 0
v -1232 -320 0
v -1216 -320 0
v -1232 -336 0
v -1248 -336 0
v -1248 -320 0
v -1232 -320 0
v -1248 -336 0
v -1264 -336 0
v -1264 -320 0
v -1248 -320 0
v -1264 -336 0
v -1280 -336 0
v -1280 -320 0
v -1264 -320 0
v -1280 -336 0
v -1296 -336 0
v -1296 -320 0
v -1280 -320 0
v -1296 -336 0
v -1312 -336 0
v -1312 -320 0
v -1296 -320 0
v -1312 -336 0
v -1328 -336 0
v -1328 -320 0
v -1312 -320 0
v -1328 -336 0
v -1344 -336 0
v -1344 -320 0
v -1328 -320 0
v -1344 -336 0
v -1360 -336 0
v -1360 -320 0
v -1344 -320 0
v -1360 -336 0
v -1376 -336 0
v -1376 -320 0
v -1360 -320 0
v -1376 -336 0
v -1392 -336 0
v -1392 -320 0
v -1376 -320 0
v -1392 -336 0
v -1408 -336 0
v -1408 -320 0
v -1392 -320 0
v -2400 -336 0
v -2416 -336 0
v -2416 -320 0
v -2400 -320 0
v -2416 -336 0
v -2432 -336 0
v -2432 -320 0
v -2416 -320 0
v -2432 -336 0
v -2448 -336 0
v -2448 -320 0
v -2432 -320 0
v -2448 -336 0
v -2464 -336 0
v -2464 -320 0
v -2448 -320 0
v -2464 -336 0
v -2480 -336 0
v -2480 -320 0
v -2464 -320 0
v -2480 -336 0
v -2496 -336 0
v -2496 -320 0
v -2480 -320 0
v -2496 -336 0
v -2512 -336 0
v -2512 -320 0
v -2496 -320 0
v -2512 -336 0
v -2528 -336 0
v -2528 -320 0
v -2512 -320 0
v -2528 -336 0
v -2544 -336 0
v -2544 -320 0
v -2528 -320 0
v -2544 -336 0
v -2560 -336 0
v -2560 -320 0
v -2544 -320 0

# Texture cooridinates (Count = 10)
vt 0.625 0.25
vt 0.6666667 0.25
vt 0.6666667 0.3333333
vt 0.625 0.3333333
vt 0.9166667 0.6666666
vt 0.9583333 0.6666666
vt 0.9583333 0.75
vt 0.9166667 0.75
vt 0.9166667 0.5833334
vt 0.9583333 0.5833334

# Normal
vn 0 0 -1

# Mesh description
g map5_mesh_0007

# Faces
f 1/1/1 2/2/1 3/3/1 4/4/1
f 5/1/1 6/2/1 7/3/1 8/4/1
f 9/1/1 10/2/1 11/3/1 12/4/1
f 13/1/1 14/2/1 15/3/1 16/4/1
f 17/1/1 18/2/1 19/3/1 20/4/1
f 21/1/1 22/2/1 23/3/1 24/4/1
f 25/1/1 26/2/1 27/3/1 28/4/1
f 29/1/1 30/2/1 31/3/1 32/4/1
f 33/1/1 34/2/1 35/3/1 36/4/1
f 37/1/1 38/2/1 39/3/1 40/4/1
f 41/1/1 42/2/1 43/3/1 44/4/1
f 45/1/1 46/2/1 47/3/1 48/4/1
f 49/1/1 50/2/1 51/3/1 52/4/1
f 53/1/1 54/2/1 55/3/1 56/4/1
f 57/1/1 58/2/1 59/3/1 60/4/1
f 61/1/1 62/2/1 63/3/1 64/4/1
f 65/1/1 66/2/1 67/3/1 68/4/1
f 69/1/1 70/2/1 71/3/1 72/4/1
f 73/1/1 74/2/1 75/3/1 76/4/1
f 77/1/1 78/2/1 79/3/1 80/4/1
f 81/1/1 82/2/1 83/3/1 84/4/1
f 85/1/1 86/2/1 87/3/1 88/4/1
f 89/1/1 90/2/1 91/3/1 92/4/1
f 93/1/1 94/2/1 95/3/1 96/4/1
f 97/1/1 98/2/1 99/3/1 100/4/1
f 101/1/1 102/2/1 103/3/1 104/4/1
f 105/1/1 106/2/1 107/3/1 108/4/1
f 109/1/1 110/2/1 111/3/1 112/4/1
f 113/1/1 114/2/1 115/3/1 116/4/1
f 117/1/1 118/2/1 119/3/1 120/4/1
f 121/1/1 122/2/1 123/3/1 124/4/1
f 125/1/1 126/2/1 127/3/1 128/4/1
f 129/1/1 130/2/1 131/3/1 132/4/1
f 133/1/1 134/2/1 135/3/1 136/4/1
f 137/1/1 138/2/1 139/3/1 140/4/1
f 141/1/1 142/2/1 143/3/1 144/4/1
f 145/1/1 146/2/1 147/3/1 148/4/1
f 149/1/1 150/2/1 151/3/1 152/4/1
f 153/1/1 154/2/1 155/3/1 156/4/1
f 157/1/1 158/2/1 159/3/1 160/4/1
f 161/1/1 162/2/1 163/3/1 164/4/1
f 165/1/1 166/2/1 167/3/1 168/4/1
f 169/1/1 170/2/1 171/3/1 172/4/1
f 173/1/1 174/2/1 175/3/1 176/4/1
f 177/1/1 178/2/1 179/3/1 180/4/1
f 181/1/1 182/2/1 183/3/1 184/4/1
f 185/1/1 186/2/1 187/3/1 188/4/1
f 189/1/1 190/2/1 191/3/1 192/4/1
f 193/1/1 194/2/1 195/3/1 196/4/1
f 197/1/1 198/2/1 199/3/1 200/4/1
f 201/1/1 202/2/1 203/3/1 204/4/1
f 205/1/1 206/2/1 207/3/1 208/4/1
f 209/1/1 210/2/1 211/3/1 212/4/1
f 213/1/1 214/2/1 215/3/1 216/4/1
f 217/1/1 218/2/1 219/3/1 220/4/1
f 221/1/1 222/2/1 223/3/1 224/4/1
f 225/1/1 226/2/1 227/3/1 228/4/1
f 229/1/1 230/2/1 231/3/1 232/4/1
f 233/1/1 234/2/1 235/3/1 236/4/1
f 237/1/1 238/2/1 239/3/1 240/4/1
f 241/1/1 242/2/1 243/3/1 244/4/1
f 245/1/1 246/2/1 247/3/1 248/4/1
f 249/1/1 250/2/1 251/3/1 252/4/1
f 253/1/1 254/2/1 255/3/1 256/4/1
f 257/1/1 258/2/1 259/3/1 260/4/1
f 261/1/1 262/2/1 263/3/1 264/4/1
f 265/1/1 266/2/1 267/3/1 268/4/1
f 269/5/1 270/6/1 271/7/1 272/8/1
f 273/5/1 274/6/1 275/7/1 276/8/1
f 277/5/1 278/6/1 279/7/1 280/8/1
f 281/5/1 282/6/1 283/7/1 284/8/1
f 285/5/1 286/6/1 287/7/1 288/8/1
f 289/5/1 290/6/1 291/7/1 292/8/1
f 293/5/1 294/6/1 295/7/1 296/8/1
f 297/5/1 298/6/1 299/7/1 300/8/1
f 301/5/1 302/6/1 303/7/1 304/8/1
f 305/5/1 306/6/1 307/7/1 308/8/1
f 309/5/1 310/6/1 311/7/1 312/8/1
f 313/5/1 314/6/1 315/7/1 316/8/1
f 317/5/1 318/6/1 319/7/1 320/8/1
f 321/5/1 322/6/1 323/7/1 324/8/1
f 325/5/1 326/6/1 327/7/1 328/8/1
f 329/5/1 330/6/1 331/7/1 332/8/1
f 333/5/1 334/6/1 335/7/1 336/8/1
f 337/5/1 338/6/1 339/7/1 340/8/1
f 341/5/1 342/6/1 343/7/1 344/8/1
f 345/5/1 346/6/1 347/7/1 348/8/1
f 349/5/1 350/6/1 351/7/1 352/8/1
f 353/5/1 354/6/1 355/7/1 356/8/1
f 357/5/1 358/6/1 359/7/1 360/8/1
f 361/5/1 362/6/1 363/7/1 364/8/1
f 365/5/1 366/6/1 367/7/1 368/8/1
f 369/5/1 370/6/1 371/7/1 372/8/1
f 373/5/1 374/6/1 375/7/1 376/8/1
f 377/5/1 378/6/1 379/7/1 380/8/1
f 381/5/1 382/6/1 383/7/1 384/8/1
f 385/5/1 386/6/1 387/7/1 388/8/1
f 389/5/1 390/6/1 391/7/1 392/8/1
f 393/5/1 394/6/1 395/7/1 396/8/1
f 397/5/1 398/6/1 399/7/1 400/8/1
f 401/5/1 402/6/1 403/7/1 404/8/1
f 405/5/1 406/6/1 407/7/1 408/8/1
f 409/5/1 410/6/1 411/7/1 412/8/1
f 413/5/1 414/6/1 415/7/1 416/8/1
f 417/5/1 418/6/1 419/7/1 420/8/1
f 421/5/1 422/6/1 423/7/1 424/8/1
f 425/5/1 426/6/1 427/7/1 428/8/1
f 429/5/1 430/6/1 431/7/1 432/8/1
f 433/5/1 434/6/1 435/7/1 436/8/1
f 437/5/1 438/6/1 439/7/1 440/8/1
f 441/5/1 442/6/1 443/7/1 444/8/1
f 445/5/1 446/6/1 447/7/1 448/8/1
f 449/5/1 450/6/1 451/7/1 452/8/1
f 453/5/1 454/6/1 455/7/1 456/8/1
f 457/5/1 458/6/1 459/7/1 460/8/1
f 461/5/1 462/6/1 463/7/1 464/8/1
f 465/5/1 466/6/1 467/7/1 468/8/1
f 469/5/1 470/6/1 471/7/1 472/8/1
f 473/5/1 474/6/1 475/7/1 476/8/1
f 477/5/1 478/6/1 479/7/1 480/8/1
f 481/5/1 482/6/1 483/7/1 484/8/1
f 485/5/1 486/6/1 487/7/1 488/8/1
f 489/5/1 490/6/1 491/7/1 492/8/1
f 493/5/1 494/6/1 495/7/1 496/8/1
f 497/5/1 498/6/1 499/7/1 500/8/1
f 501/5/1 502/6/1 503/7/1 504/8/1
f 505/5/1 506/6/1 507/7/1 508/8/1
f 509/5/1 510/6/1 511/7/1 512/8/1
f 513/5/1 514/6/1 515/7/1 516/8/1
f 517/5/1 518/6/1 519/7/1 520/8/1
f 521/5/1 522/6/1 523/7/1 524/8/1
f 525/5/1 526/6/1 527/7/1 528/8/1
f 529/5/1 530/6/1 531/7/1 532/8/1
f 533/5/1 534/6/1 535/7/1 536/8/1
f 537/5/1 538/6/1 539/7/1 540/8/1
f 541/5/1 542/6/1 543/7/1 544/8/1
f 545/5/1 546/6/1 547/7/1 548/8/1
f 549/1/1 550/2/1 551/3/1 552/4/1
f 553/1/1 554/2/1 555/3/1 556/4/1
f 557/1/1 558/2/1 559/3/1 560/4/1
f 561/1/1 562/2/1 563/3/1 564/4/1
f 565/1/1 566/2/1 567/3/1 568/4/1
f 569/1/1 570/2/1 571/3/1 572/4/1
f 573/1/1 574/2/1 575/3/1 576/4/1
f 577/1/1 578/2/1 579/3/1 580/4/1
f 581/1/1 582/2/1 583/3/1 584/4/1
f 585/1/1 586/2/1 587/3/1 588/4/1
f 589/9/1 590/10/1 591/6/1 592/5/1
f 593/9/1 594/10/1 595/6/1 596/5/1
f 597/9/1 598/10/1 599/6/1 600/5/1
f 601/9/1 602/10/1 603/6/1 604/5/1
f 605/9/1 606/10/1 607/6/1 608/5/1
f 609/9/1 610/10/1 611/6/1 612/5/1
f 613/9/1 614/10/1 615/6/1 616/5/1
f 617/9/1 618/10/1 619/6/1 620/5/1
f 621/9/1 622/10/1 623/6/1 624/5/1
f 625/9/1 626/10/1 627/6/1 628/5/1
f 629/9/1 630/10/1 631/6/1 632/5/1
f 633/9/1 634/10/1 635/6/1 636/5/1
f 637/9/1 638/10/1 639/6/1 640/5/1
f 641/9/1 642/10/1 643/6/1 644/5/1
f 645/9/1 646/10/1 647/6/1 648/5/1
f 649/9/1 650/10/1 651/6/1 652/5/1
f 653/9/1 654/10/1 655/6/1 656/5/1
f 657/9/1 658/10/1 659/6/1 660/5/1
f 661/9/1 662/10/1 663/6/1 664/5/1
f 665/9/1 666/10/1 667/6/1 668/5/1
f 669/9/1 670/10/1 671/6/1 672/5/1
f 673/9/1 674/10/1 675/6/1 676/5/1
f 677/9/1 678/10/1 679/6/1 680/5/1
f 681/9/1 682/10/1 683/6/1 684/5/1
f 685/9/1 686/10/1 687/6/1 688/5/1
f 689/9/1 690/10/1 691/6/1 692/5/1
f 693/9/1 694/10/1 695/6/1 696/5/1
f 697/9/1 698/10/1 699/6/1 700/5/1
f 701/9/1 702/10/1 703/6/1 704/5/1
f 705/9/1 706/10/1 707/6/1 708/5/1
f 709/9/1 710/10/1 711/6/1 712/5/1
f 713/9/1 714/10/1 715/6/1 716/5/1
f 717/9/1 718/10/1 719/6/1 720/5/1
f 721/9/1 722/10/1 723/6/1 724/5/1
f 725/9/1 726/10/1 727/6/1 728/5/1
f 729/9/1 730/10/1 731/6/1 732/5/1
f 733/9/1 734/10/1 735/6/1 736/5/1
f 737/9/1 738/10/1 739/6/1 740/5/1
f 741/9/1 742/10/1 743/6/1 744/5/1
f 745/9/1 746/10/1 747/6/1 748/5/1
f 749/9/1 750/10/1 751/6/1 752/5/1
f 753/9/1 754/10/1 755/6/1 756/5/1
f 757/9/1 758/10/1 759/6/1 760/5/1
f 761/9/1 762/10/1 763/6/1 764/5/1
f 765/9/1 766/10/1 767/6/1 768/5/1
f 769/9/1 770/10/1 771/6/1 772/5/1
f 773/9/1 774/10/1 775/6/1 776/5/1
f 777/9/1 778/10/1 779/6/1 780/5/1
f 781/9/1 782/10/1 783/6/1 784/5/1
f 785/9/1 786/10/1 787/6/1 788/5/1
f 789/9/1 790/10/1 791/6/1 792/5/1
f 793/9/1 794/10/1 795/6/1 796/5/1
f 797/9/1 798/10/1 799/6/1 800/5/1
f 801/9/1 802/10/1 803/6/1 804/5/1
f 805/9/1 806/10/1 807/6/1 808/5/1
f 809/9/1 810/10/1 811/6/1 812/5/1
f 813/9/1 814/10/1 815/6/1 816/5/1
f 817/9/1 818/10/1 819/6/1 820/5/1
f 821/9/1 822/10/1 823/6/1 824/5/1
f 825/9/1 826/10/1 827/6/1 828/5/1
f 829/9/1 830/10/1 831/6/1 832/5/1
f 833/9/1 834/10/1 835/6/1 836/5/1
f 837/9/1 838/10/1 839/6/1 840/5/1
f 841/9/1 842/10/1 843/6/1 844/5/1
f 845/9/1 846/10/1 847/6/1 848/5/1
f 849/9/1 850/10/1 851/6/1 852/5/1
f 853/9/1 854/10/1 855/6/1 856/5/1
f 857/9/1 858/10/1 859/6/1 860/5/1
f 861/9/1 862/10/1 863/6/1 864/5/1
f 865/9/1 866/10/1 867/6/1 868/5/1
f 869/1/1 870/2/1 871/3/1 872/4/1
f 873/1/1 874/2/1 875/3/1 876/4/1
f 877/1/1 878/2/1 879/3/1 880/4/1
f 881/1/1 882/2/1 883/3/1 884/4/1
f 885/1/1 886/2/1 887/3/1 888/4/1
f 889/1/1 890/2/1 891/3/1 892/4/1
f 893/1/1 894/2/1 895/3/1 896/4/1
f 897/1/1 898/2/1 899/3/1 900/4/1
f 901/1/1 902/2/1 903/3/1 904/4/1
f 905/1/1 906/2/1 907/3/1 908/4/1

