# Tiled2Unity generated file. Do not modify by hand.
# Wavefront file for 'map5_mesh_0020.obj'

# Vertices (Count = 36)
v -1232 -96 0
v -1248 -96 0
v -1248 -80 0
v -1232 -80 0
v -1248 -96 0
v -1264 -96 0
v -1264 -80 0
v -1248 -80 0
v -1264 -96 0
v -1280 -96 0
v -1280 -80 0
v -1264 -80 0
v -1232 -112 0
v -1248 -112 0
v -1248 -96 0
v -1232 -96 0
v -1248 -112 0
v -1264 -112 0
v -1264 -96 0
v -1248 -96 0
v -1264 -112 0
v -1280 -112 0
v -1280 -96 0
v -1264 -96 0
v -1232 -128 0
v -1248 -128 0
v -1248 -112 0
v -1232 -112 0
v -1248 -128 0
v -1264 -128 0
v -1264 -112 0
v -1248 -112 0
v -1264 -128 0
v -1280 -128 0
v -1280 -112 0
v -1264 -112 0

# Texture cooridinates (Count = 12)
vt 1 0.6
vt 0.6666667 0.6
vt 0.6666667 0.2
vt 1 0.2
vt 0.3333333 0.6
vt 0.3333333 0.2
vt 0 0.6
vt 0 0.2
vt 1 1
vt 0.6666667 1
vt 0.3333333 1
vt 0 1

# Normal
vn 0 0 -1

# Mesh description
g map5_mesh_0020

# Faces
f 1/1/1 2/2/1 3/3/1 4/4/1
f 5/2/1 6/5/1 7/6/1 8/3/1
f 9/5/1 10/7/1 11/8/1 12/6/1
f 13/1/1 14/2/1 15/3/1 16/4/1
f 17/2/1 18/5/1 19/6/1 20/3/1
f 21/5/1 22/7/1 23/8/1 24/6/1
f 25/9/1 26/10/1 27/2/1 28/1/1
f 29/10/1 30/11/1 31/5/1 32/2/1
f 33/11/1 34/12/1 35/7/1 36/5/1

