# Tiled2Unity generated file. Do not modify by hand.
# Wavefront file for 'map5_mesh_0004.obj'

# Vertices (Count = 60)
v -3632 -176 0
v -3648 -176 0
v -3648 -160 0
v -3632 -160 0
v -3648 -176 0
v -3664 -176 0
v -3664 -160 0
v -3648 -160 0
v -3664 -176 0
v -3680 -176 0
v -3680 -160 0
v -3664 -160 0
v -3680 -176 0
v -3696 -176 0
v -3696 -160 0
v -3680 -160 0
v -3632 -192 0
v -3648 -192 0
v -3648 -176 0
v -3632 -176 0
v -3648 -192 0
v -3664 -192 0
v -3664 -176 0
v -3648 -176 0
v -3664 -192 0
v -3680 -192 0
v -3680 -176 0
v -3664 -176 0
v -3680 -192 0
v -3696 -192 0
v -3696 -176 0
v -3680 -176 0
v -3664 -208 0
v -3680 -208 0
v -3680 -192 0
v -3664 -192 0
v -3664 -224 0
v -3680 -224 0
v -3680 -208 0
v -3664 -208 0
v -3664 -240 0
v -3680 -240 0
v -3680 -224 0
v -3664 -224 0
v -3664 -256 0
v -3680 -256 0
v -3680 -240 0
v -3664 -240 0
v -3664 -272 0
v -3680 -272 0
v -3680 -256 0
v -3664 -256 0
v -3664 -288 0
v -3680 -288 0
v -3680 -272 0
v -3664 -272 0
v -3664 -304 0
v -3680 -304 0
v -3680 -288 0
v -3664 -288 0

# Texture cooridinates (Count = 13)
vt 0.875 0.25
vt 0.9166667 0.25
vt 0.9166667 0.3333333
vt 0.875 0.3333333
vt 0.9583333 0.25
vt 0.9583333 0.3333333
vt 0.875 0.1666667
vt 0.9166667 0.1666667
vt 0.9583333 0.1666667
vt 0.4583333 0.9166667
vt 0.4583333 0.8333333
vt 0.5 0.8333333
vt 0.5 0.9166667

# Normal
vn 0 0 -1

# Mesh description
g map5_mesh_0004

# Faces
f 1/1/1 2/2/1 3/3/1 4/4/1
f 5/1/1 6/2/1 7/3/1 8/4/1
f 9/2/1 10/5/1 11/6/1 12/3/1
f 13/2/1 14/5/1 15/6/1 16/3/1
f 17/7/1 18/8/1 19/2/1 20/1/1
f 21/7/1 22/8/1 23/2/1 24/1/1
f 25/8/1 26/9/1 27/5/1 28/2/1
f 29/8/1 30/9/1 31/5/1 32/2/1
f 33/10/1 34/11/1 35/12/1 36/13/1
f 37/10/1 38/11/1 39/12/1 40/13/1
f 41/10/1 42/11/1 43/12/1 44/13/1
f 45/10/1 46/11/1 47/12/1 48/13/1
f 49/10/1 50/11/1 51/12/1 52/13/1
f 53/10/1 54/11/1 55/12/1 56/13/1
f 57/10/1 58/11/1 59/12/1 60/13/1

