# Tiled2Unity generated file. Do not modify by hand.
# Wavefront file for 'map5_mesh_0003.obj'

# Vertices (Count = 68)
v -768 -64 0
v -784 -64 0
v -784 -48 0
v -768 -48 0
v -784 -64 0
v -800 -64 0
v -800 -48 0
v -784 -48 0
v -864 -64 0
v -880 -64 0
v -880 -48 0
v -864 -48 0
v -880 -64 0
v -896 -64 0
v -896 -48 0
v -880 -48 0
v -768 -80 0
v -784 -80 0
v -784 -64 0
v -768 -64 0
v -784 -80 0
v -800 -80 0
v -800 -64 0
v -784 -64 0
v -864 -80 0
v -880 -80 0
v -880 -64 0
v -864 -64 0
v -880 -80 0
v -896 -80 0
v -896 -64 0
v -880 -64 0
v -752 -96 0
v -768 -96 0
v -768 -80 0
v -752 -80 0
v -768 -96 0
v -784 -96 0
v -784 -80 0
v -768 -80 0
v -784 -96 0
v -800 -96 0
v -800 -80 0
v -784 -80 0
v -864 -96 0
v -880 -96 0
v -880 -80 0
v -864 -80 0
v -880 -96 0
v -896 -96 0
v -896 -80 0
v -880 -80 0
v -752 -112 0
v -768 -112 0
v -768 -96 0
v -752 -96 0
v -768 -112 0
v -784 -112 0
v -784 -96 0
v -768 -96 0
v -752 -128 0
v -768 -128 0
v -768 -112 0
v -752 -112 0
v -768 -128 0
v -784 -128 0
v -784 -112 0
v -768 -112 0

# Texture cooridinates (Count = 12)
vt 0 0.6981132
vt 0.4210526 0.6981132
vt 0.4210526 1
vt 0 1
vt 0.8421053 0.6981132
vt 0.8421053 1
vt 0 0.3962264
vt 0.4210526 0.3962264
vt 0.8421053 0.3962264
vt 0.4210526 0.09433961
vt 0.8421053 0.09433961
vt 0 0.09433961

# Normal
vn 0 0 -1

# Mesh description
g map5_mesh_0003

# Faces
f 1/1/1 2/2/1 3/3/1 4/4/1
f 5/2/1 6/5/1 7/6/1 8/3/1
f 9/1/1 10/2/1 11/3/1 12/4/1
f 13/2/1 14/5/1 15/6/1 16/3/1
f 17/7/1 18/8/1 19/2/1 20/1/1
f 21/8/1 22/9/1 23/5/1 24/2/1
f 25/7/1 26/8/1 27/2/1 28/1/1
f 29/8/1 30/9/1 31/5/1 32/2/1
f 33/1/1 34/2/1 35/3/1 36/4/1
f 37/2/1 38/5/1 39/6/1 40/3/1
f 41/10/1 42/11/1 43/9/1 44/8/1
f 45/12/1 46/10/1 47/8/1 48/7/1
f 49/10/1 50/11/1 51/9/1 52/8/1
f 53/7/1 54/8/1 55/2/1 56/1/1
f 57/8/1 58/9/1 59/5/1 60/2/1
f 61/12/1 62/10/1 63/8/1 64/7/1
f 65/10/1 66/11/1 67/9/1 68/8/1

