# Tiled2Unity generated file. Do not modify by hand.
# Wavefront file for 'map5_mesh_0009.obj'

# Vertices (Count = 400)
v -336 -16 0
v -352 -16 0
v -352 0 0
v -336 0 0
v -3296 -16 0
v -3312 -16 0
v -3312 0 0
v -3296 0 0
v -3312 -16 0
v -3328 -16 0
v -3328 0 0
v -3312 0 0
v -496 -32 0
v -512 -32 0
v -512 -16 0
v -496 -16 0
v -592 -32 0
v -608 -32 0
v -608 -16 0
v -592 -16 0
v -832 -32 0
v -848 -32 0
v -848 -16 0
v -832 -16 0
v -1024 -32 0
v -1040 -32 0
v -1040 -16 0
v -1024 -16 0
v -1200 -32 0
v -1216 -32 0
v -1216 -16 0
v -1200 -16 0
v -3296 -32 0
v -3312 -32 0
v -3312 -16 0
v -3296 -16 0
v -3312 -32 0
v -3328 -32 0
v -3328 -16 0
v -3312 -16 0
v -736 -48 0
v -752 -48 0
v -752 -32 0
v -736 -32 0
v -1200 -48 0
v -1216 -48 0
v -1216 -32 0
v -1200 -32 0
v -1088 -64 0
v -1104 -64 0
v -1104 -48 0
v -1088 -48 0
v -1312 -80 0
v -1328 -80 0
v -1328 -64 0
v -1312 -64 0
v -1328 -80 0
v -1344 -80 0
v -1344 -64 0
v -1328 -64 0
v -704 -96 0
v -720 -96 0
v -720 -80 0
v -704 -80 0
v -720 -96 0
v -736 -96 0
v -736 -80 0
v -720 -80 0
v -1312 -96 0
v -1328 -96 0
v -1328 -80 0
v -1312 -80 0
v -1328 -96 0
v -1344 -96 0
v -1344 -80 0
v -1328 -80 0
v -704 -112 0
v -720 -112 0
v -720 -96 0
v -704 -96 0
v -720 -112 0
v -736 -112 0
v -736 -96 0
v -720 -96 0
v -3008 -176 0
v -3024 -176 0
v -3024 -160 0
v -3008 -160 0
v -3024 -176 0
v -3040 -176 0
v -3040 -160 0
v -3024 -160 0
v -3616 -176 0
v -3632 -176 0
v -3632 -160 0
v -3616 -160 0
v -3008 -192 0
v -3024 -192 0
v -3024 -176 0
v -3008 -176 0
v -3024 -192 0
v -3040 -192 0
v -3040 -176 0
v -3024 -176 0
v -3616 -192 0
v -3632 -192 0
v -3632 -176 0
v -3616 -176 0
v -1920 -208 0
v -1936 -208 0
v -1936 -192 0
v -1920 -192 0
v -1936 -208 0
v -1952 -208 0
v -1952 -192 0
v -1936 -192 0
v -3920 -208 0
v -3936 -208 0
v -3936 -192 0
v -3920 -192 0
v -3936 -208 0
v -3952 -208 0
v -3952 -192 0
v -3936 -192 0
v -1920 -224 0
v -1936 -224 0
v -1936 -208 0
v -1920 -208 0
v -1936 -224 0
v -1952 -224 0
v -1952 -208 0
v -1936 -208 0
v -3920 -224 0
v -3936 -224 0
v -3936 -208 0
v -3920 -208 0
v -3936 -224 0
v -3952 -224 0
v -3952 -208 0
v -3936 -208 0
v -272 -240 0
v -288 -240 0
v -288 -224 0
v -272 -224 0
v -3856 -240 0
v -3872 -240 0
v -3872 -224 0
v -3856 -224 0
v -3872 -240 0
v -3888 -240 0
v -3888 -224 0
v -3872 -224 0
v -3888 -240 0
v -3904 -240 0
v -3904 -224 0
v -3888 -224 0
v -3904 -240 0
v -3920 -240 0
v -3920 -224 0
v -3904 -224 0
v -3920 -240 0
v -3936 -240 0
v -3936 -224 0
v -3920 -224 0
v -3936 -240 0
v -3952 -240 0
v -3952 -224 0
v -3936 -224 0
v -3952 -240 0
v -3968 -240 0
v -3968 -224 0
v -3952 -224 0
v -3968 -240 0
v -3984 -240 0
v -3984 -224 0
v -3968 -224 0
v -3984 -240 0
v -4000 -240 0
v -4000 -224 0
v -3984 -224 0
v -2496 -256 0
v -2512 -256 0
v -2512 -240 0
v -2496 -240 0
v -3872 -256 0
v -3888 -256 0
v -3888 -240 0
v -3872 -240 0
v -3888 -256 0
v -3904 -256 0
v -3904 -240 0
v -3888 -240 0
v -3904 -256 0
v -3920 -256 0
v -3920 -240 0
v -3904 -240 0
v -3920 -256 0
v -3936 -256 0
v -3936 -240 0
v -3920 -240 0
v -3936 -256 0
v -3952 -256 0
v -3952 -240 0
v -3936 -240 0
v -3952 -256 0
v -3968 -256 0
v -3968 -240 0
v -3952 -240 0
v -3968 -256 0
v -3984 -256 0
v -3984 -240 0
v -3968 -240 0
v -3984 -256 0
v -4000 -256 0
v -4000 -240 0
v -3984 -240 0
v -256 -272 0
v -272 -272 0
v -272 -256 0
v -256 -256 0
v -3872 -272 0
v -3888 -272 0
v -3888 -256 0
v -3872 -256 0
v -3888 -272 0
v -3904 -272 0
v -3904 -256 0
v -3888 -256 0
v -3904 -272 0
v -3920 -272 0
v -3920 -256 0
v -3904 -256 0
v -3920 -272 0
v -3936 -272 0
v -3936 -256 0
v -3920 -256 0
v -3936 -272 0
v -3952 -272 0
v -3952 -256 0
v -3936 -256 0
v -3952 -272 0
v -3968 -272 0
v -3968 -256 0
v -3952 -256 0
v -3968 -272 0
v -3984 -272 0
v -3984 -256 0
v -3968 -256 0
v -3984 -272 0
v -4000 -272 0
v -4000 -256 0
v -3984 -256 0
v -2416 -288 0
v -2432 -288 0
v -2432 -272 0
v -2416 -272 0
v -3872 -288 0
v -3888 -288 0
v -3888 -272 0
v -3872 -272 0
v -3888 -288 0
v -3904 -288 0
v -3904 -272 0
v -3888 -272 0
v -3904 -288 0
v -3920 -288 0
v -3920 -272 0
v -3904 -272 0
v -3920 -288 0
v -3936 -288 0
v -3936 -272 0
v -3920 -272 0
v -3936 -288 0
v -3952 -288 0
v -3952 -272 0
v -3936 -272 0
v -3952 -288 0
v -3968 -288 0
v -3968 -272 0
v -3952 -272 0
v -3968 -288 0
v -3984 -288 0
v -3984 -272 0
v -3968 -272 0
v -3984 -288 0
v -4000 -288 0
v -4000 -272 0
v -3984 -272 0
v -2496 -304 0
v -2512 -304 0
v -2512 -288 0
v -2496 -288 0
v -3856 -304 0
v -3872 -304 0
v -3872 -288 0
v -3856 -288 0
v -3872 -304 0
v -3888 -304 0
v -3888 -288 0
v -3872 -288 0
v -3888 -304 0
v -3904 -304 0
v -3904 -288 0
v -3888 -288 0
v -3904 -304 0
v -3920 -304 0
v -3920 -288 0
v -3904 -288 0
v -3920 -304 0
v -3936 -304 0
v -3936 -288 0
v -3920 -288 0
v -3936 -304 0
v -3952 -304 0
v -3952 -288 0
v -3936 -288 0
v -3952 -304 0
v -3968 -304 0
v -3968 -288 0
v -3952 -288 0
v -3968 -304 0
v -3984 -304 0
v -3984 -288 0
v -3968 -288 0
v -3984 -304 0
v -4000 -304 0
v -4000 -288 0
v -3984 -288 0
v -3856 -320 0
v -3872 -320 0
v -3872 -304 0
v -3856 -304 0
v -3872 -320 0
v -3888 -320 0
v -3888 -304 0
v -3872 -304 0
v -3888 -320 0
v -3904 -320 0
v -3904 -304 0
v -3888 -304 0
v -3904 -320 0
v -3920 -320 0
v -3920 -304 0
v -3904 -304 0
v -3920 -320 0
v -3936 -320 0
v -3936 -304 0
v -3920 -304 0
v -3936 -320 0
v -3952 -320 0
v -3952 -304 0
v -3936 -304 0
v -3952 -320 0
v -3968 -320 0
v -3968 -304 0
v -3952 -304 0
v -3968 -320 0
v -3984 -320 0
v -3984 -304 0
v -3968 -304 0
v -3984 -320 0
v -4000 -320 0
v -4000 -304 0
v -3984 -304 0
v -3856 -336 0
v -3872 -336 0
v -3872 -320 0
v -3856 -320 0
v -3872 -336 0
v -3888 -336 0
v -3888 -320 0
v -3872 -320 0
v -3888 -336 0
v -3904 -336 0
v -3904 -320 0
v -3888 -320 0
v -3904 -336 0
v -3920 -336 0
v -3920 -320 0
v -3904 -320 0
v -3920 -336 0
v -3936 -336 0
v -3936 -320 0
v -3920 -320 0
v -3936 -336 0
v -3952 -336 0
v -3952 -320 0
v -3936 -320 0
v -3952 -336 0
v -3968 -336 0
v -3968 -320 0
v -3952 -320 0
v -3968 -336 0
v -3984 -336 0
v -3984 -320 0
v -3968 -320 0
v -3984 -336 0
v -4000 -336 0
v -4000 -320 0
v -3984 -320 0

# Texture cooridinates (Count = 17)
vt 0.4166667 0.6666666
vt 0.4583333 0.6666666
vt 0.4583333 0.75
vt 0.4166667 0.75
vt 0.2083333 0.4166667
vt 0.1666667 0.4166667
vt 0.1666667 0.3333333
vt 0.2083333 0.3333333
vt 0.125 0.4166667
vt 0.125 0.3333333
vt 0.2083333 0.5
vt 0.1666667 0.5
vt 0.125 0.5
vt 0.625 0.25
vt 0.6666667 0.25
vt 0.6666667 0.3333333
vt 0.625 0.3333333

# Normal
vn 0 0 -1

# Mesh description
g map5_mesh_0009

# Faces
f 1/1/1 2/2/1 3/3/1 4/4/1
f 5/5/1 6/6/1 7/7/1 8/8/1
f 9/6/1 10/9/1 11/10/1 12/7/1
f 13/1/1 14/2/1 15/3/1 16/4/1
f 17/1/1 18/2/1 19/3/1 20/4/1
f 21/1/1 22/2/1 23/3/1 24/4/1
f 25/1/1 26/2/1 27/3/1 28/4/1
f 29/1/1 30/2/1 31/3/1 32/4/1
f 33/11/1 34/12/1 35/6/1 36/5/1
f 37/12/1 38/13/1 39/9/1 40/6/1
f 41/1/1 42/2/1 43/3/1 44/4/1
f 45/1/1 46/2/1 47/3/1 48/4/1
f 49/1/1 50/2/1 51/3/1 52/4/1
f 53/7/1 54/6/1 55/9/1 56/10/1
f 57/6/1 58/12/1 59/13/1 60/9/1
f 61/7/1 62/6/1 63/9/1 64/10/1
f 65/6/1 66/12/1 67/13/1 68/9/1
f 69/8/1 70/5/1 71/6/1 72/7/1
f 73/5/1 74/11/1 75/12/1 76/6/1
f 77/8/1 78/5/1 79/6/1 80/7/1
f 81/5/1 82/11/1 83/12/1 84/6/1
f 85/12/1 86/6/1 87/5/1 88/11/1
f 89/6/1 90/7/1 91/8/1 92/5/1
f 93/12/1 94/6/1 95/5/1 96/11/1
f 97/13/1 98/9/1 99/6/1 100/12/1
f 101/9/1 102/10/1 103/7/1 104/6/1
f 105/13/1 106/9/1 107/6/1 108/12/1
f 109/7/1 110/6/1 111/9/1 112/10/1
f 113/6/1 114/12/1 115/13/1 116/9/1
f 117/9/1 118/6/1 119/12/1 120/13/1
f 121/6/1 122/5/1 123/11/1 124/12/1
f 125/8/1 126/5/1 127/6/1 128/7/1
f 129/5/1 130/11/1 131/12/1 132/6/1
f 133/10/1 134/7/1 135/6/1 136/9/1
f 137/7/1 138/8/1 139/5/1 140/6/1
f 141/1/1 142/2/1 143/3/1 144/4/1
f 145/14/1 146/15/1 147/16/1 148/17/1
f 149/14/1 150/15/1 151/16/1 152/17/1
f 153/14/1 154/15/1 155/16/1 156/17/1
f 157/14/1 158/15/1 159/16/1 160/17/1
f 161/14/1 162/15/1 163/16/1 164/17/1
f 165/14/1 166/15/1 167/16/1 168/17/1
f 169/14/1 170/15/1 171/16/1 172/17/1
f 173/14/1 174/15/1 175/16/1 176/17/1
f 177/14/1 178/15/1 179/16/1 180/17/1
f 181/1/1 182/2/1 183/3/1 184/4/1
f 185/14/1 186/15/1 187/16/1 188/17/1
f 189/1/1 190/2/1 191/3/1 192/4/1
f 193/1/1 194/2/1 195/3/1 196/4/1
f 197/14/1 198/15/1 199/16/1 200/17/1
f 201/14/1 202/15/1 203/16/1 204/17/1
f 205/14/1 206/15/1 207/16/1 208/17/1
f 209/14/1 210/15/1 211/16/1 212/17/1
f 213/14/1 214/15/1 215/16/1 216/17/1
f 217/1/1 218/2/1 219/3/1 220/4/1
f 221/14/1 222/15/1 223/16/1 224/17/1
f 225/14/1 226/15/1 227/16/1 228/17/1
f 229/1/1 230/2/1 231/3/1 232/4/1
f 233/14/1 234/15/1 235/16/1 236/17/1
f 237/14/1 238/15/1 239/16/1 240/17/1
f 241/14/1 242/15/1 243/16/1 244/17/1
f 245/14/1 246/15/1 247/16/1 248/17/1
f 249/14/1 250/15/1 251/16/1 252/17/1
f 253/1/1 254/2/1 255/3/1 256/4/1
f 257/1/1 258/2/1 259/3/1 260/4/1
f 261/14/1 262/15/1 263/16/1 264/17/1
f 265/14/1 266/15/1 267/16/1 268/17/1
f 269/14/1 270/15/1 271/16/1 272/17/1
f 273/14/1 274/15/1 275/16/1 276/17/1
f 277/14/1 278/15/1 279/16/1 280/17/1
f 281/14/1 282/15/1 283/16/1 284/17/1
f 285/14/1 286/15/1 287/16/1 288/17/1
f 289/1/1 290/2/1 291/3/1 292/4/1
f 293/14/1 294/15/1 295/16/1 296/17/1
f 297/14/1 298/15/1 299/16/1 300/17/1
f 301/14/1 302/15/1 303/16/1 304/17/1
f 305/14/1 306/15/1 307/16/1 308/17/1
f 309/14/1 310/15/1 311/16/1 312/17/1
f 313/14/1 314/15/1 315/16/1 316/17/1
f 317/14/1 318/15/1 319/16/1 320/17/1
f 321/14/1 322/15/1 323/16/1 324/17/1
f 325/14/1 326/15/1 327/16/1 328/17/1
f 329/14/1 330/15/1 331/16/1 332/17/1
f 333/14/1 334/15/1 335/16/1 336/17/1
f 337/14/1 338/15/1 339/16/1 340/17/1
f 341/14/1 342/15/1 343/16/1 344/17/1
f 345/14/1 346/15/1 347/16/1 348/17/1
f 349/1/1 350/2/1 351/3/1 352/4/1
f 353/14/1 354/15/1 355/16/1 356/17/1
f 357/14/1 358/15/1 359/16/1 360/17/1
f 361/14/1 362/15/1 363/16/1 364/17/1
f 365/14/1 366/15/1 367/16/1 368/17/1
f 369/14/1 370/15/1 371/16/1 372/17/1
f 373/14/1 374/15/1 375/16/1 376/17/1
f 377/14/1 378/15/1 379/16/1 380/17/1
f 381/14/1 382/15/1 383/16/1 384/17/1
f 385/14/1 386/15/1 387/16/1 388/17/1
f 389/14/1 390/15/1 391/16/1 392/17/1
f 393/14/1 394/15/1 395/16/1 396/17/1
f 397/14/1 398/15/1 399/16/1 400/17/1

