# Tiled2Unity generated file. Do not modify by hand.
# Wavefront file for 'map5_mesh_0019.obj'

# Vertices (Count = 332)
v -480 -48 0
v -496 -48 0
v -496 -32 0
v -480 -32 0
v -496 -48 0
v -512 -48 0
v -512 -32 0
v -496 -32 0
v -288 -64 0
v -304 -64 0
v -304 -48 0
v -288 -48 0
v -304 -64 0
v -320 -64 0
v -320 -48 0
v -304 -48 0
v -480 -64 0
v -496 -64 0
v -496 -48 0
v -480 -48 0
v -496 -64 0
v -512 -64 0
v -512 -48 0
v -496 -48 0
v -512 -64 0
v -528 -64 0
v -528 -48 0
v -512 -48 0
v -528 -64 0
v -544 -64 0
v -544 -48 0
v -528 -48 0
v -544 -64 0
v -560 -64 0
v -560 -48 0
v -544 -48 0
v -560 -64 0
v -576 -64 0
v -576 -48 0
v -560 -48 0
v -576 -64 0
v -592 -64 0
v -592 -48 0
v -576 -48 0
v -592 -64 0
v -608 -64 0
v -608 -48 0
v -592 -48 0
v -608 -64 0
v -624 -64 0
v -624 -48 0
v -608 -48 0
v -624 -64 0
v -640 -64 0
v -640 -48 0
v -624 -48 0
v -640 -64 0
v -656 -64 0
v -656 -48 0
v -640 -48 0
v -656 -64 0
v -672 -64 0
v -672 -48 0
v -656 -48 0
v -672 -64 0
v -688 -64 0
v -688 -48 0
v -672 -48 0
v -288 -80 0
v -304 -80 0
v -304 -64 0
v -288 -64 0
v -304 -80 0
v -320 -80 0
v -320 -64 0
v -304 -64 0
v -512 -80 0
v -528 -80 0
v -528 -64 0
v -512 -64 0
v -528 -80 0
v -544 -80 0
v -544 -64 0
v -528 -64 0
v -544 -80 0
v -560 -80 0
v -560 -64 0
v -544 -64 0
v -560 -80 0
v -576 -80 0
v -576 -64 0
v -560 -64 0
v -624 -80 0
v -640 -80 0
v -640 -64 0
v -624 -64 0
v -640 -80 0
v -656 -80 0
v -656 -64 0
v -640 -64 0
v -656 -80 0
v -672 -80 0
v -672 -64 0
v -656 -64 0
v -288 -96 0
v -304 -96 0
v -304 -80 0
v -288 -80 0
v -304 -96 0
v -320 -96 0
v -320 -80 0
v -304 -80 0
v -288 -112 0
v -304 -112 0
v -304 -96 0
v -288 -96 0
v -304 -112 0
v -320 -112 0
v -320 -96 0
v -304 -96 0
v -288 -128 0
v -304 -128 0
v -304 -112 0
v -288 -112 0
v -304 -128 0
v -320 -128 0
v -320 -112 0
v -304 -112 0
v -416 -240 0
v -432 -240 0
v -432 -224 0
v -416 -224 0
v -432 -240 0
v -448 -240 0
v -448 -224 0
v -432 -224 0
v -448 -240 0
v -464 -240 0
v -464 -224 0
v -448 -224 0
v -464 -240 0
v -480 -240 0
v -480 -224 0
v -464 -224 0
v -480 -240 0
v -496 -240 0
v -496 -224 0
v -480 -224 0
v -496 -240 0
v -512 -240 0
v -512 -224 0
v -496 -224 0
v -512 -240 0
v -528 -240 0
v -528 -224 0
v -512 -224 0
v -640 -240 0
v -656 -240 0
v -656 -224 0
v -640 -224 0
v -656 -240 0
v -672 -240 0
v -672 -224 0
v -656 -224 0
v -672 -240 0
v -688 -240 0
v -688 -224 0
v -672 -224 0
v -688 -240 0
v -704 -240 0
v -704 -224 0
v -688 -224 0
v -704 -240 0
v -720 -240 0
v -720 -224 0
v -704 -224 0
v -720 -240 0
v -736 -240 0
v -736 -224 0
v -720 -224 0
v -736 -240 0
v -752 -240 0
v -752 -224 0
v -736 -224 0
v -848 -240 0
v -864 -240 0
v -864 -224 0
v -848 -224 0
v -864 -240 0
v -880 -240 0
v -880 -224 0
v -864 -224 0
v -880 -240 0
v -896 -240 0
v -896 -224 0
v -880 -224 0
v -896 -240 0
v -912 -240 0
v -912 -224 0
v -896 -224 0
v -912 -240 0
v -928 -240 0
v -928 -224 0
v -912 -224 0
v -928 -240 0
v -944 -240 0
v -944 -224 0
v -928 -224 0
v -944 -240 0
v -960 -240 0
v -960 -224 0
v -944 -224 0
v -1040 -240 0
v -1056 -240 0
v -1056 -224 0
v -1040 -224 0
v -1056 -240 0
v -1072 -240 0
v -1072 -224 0
v -1056 -224 0
v -1072 -240 0
v -1088 -240 0
v -1088 -224 0
v -1072 -224 0
v -1088 -240 0
v -1104 -240 0
v -1104 -224 0
v -1088 -224 0
v -1104 -240 0
v -1120 -240 0
v -1120 -224 0
v -1104 -224 0
v -1120 -240 0
v -1136 -240 0
v -1136 -224 0
v -1120 -224 0
v -1136 -240 0
v -1152 -240 0
v -1152 -224 0
v -1136 -224 0
v -1216 -240 0
v -1232 -240 0
v -1232 -224 0
v -1216 -224 0
v -1232 -240 0
v -1248 -240 0
v -1248 -224 0
v -1232 -224 0
v -1248 -240 0
v -1264 -240 0
v -1264 -224 0
v -1248 -224 0
v -1264 -240 0
v -1280 -240 0
v -1280 -224 0
v -1264 -224 0
v -1280 -240 0
v -1296 -240 0
v -1296 -224 0
v -1280 -224 0
v -1296 -240 0
v -1312 -240 0
v -1312 -224 0
v -1296 -224 0
v -1312 -240 0
v -1328 -240 0
v -1328 -224 0
v -1312 -224 0
v -160 -288 0
v -176 -288 0
v -176 -272 0
v -160 -272 0
v -176 -288 0
v -192 -288 0
v -192 -272 0
v -176 -272 0
v -192 -288 0
v -208 -288 0
v -208 -272 0
v -192 -272 0
v -224 -288 0
v -240 -288 0
v -240 -272 0
v -224 -272 0
v -160 -304 0
v -176 -304 0
v -176 -288 0
v -160 -288 0
v -176 -304 0
v -192 -304 0
v -192 -288 0
v -176 -288 0
v -192 -304 0
v -208 -304 0
v -208 -288 0
v -192 -288 0
v -224 -304 0
v -240 -304 0
v -240 -288 0
v -224 -288 0
v -160 -320 0
v -176 -320 0
v -176 -304 0
v -160 -304 0
v -176 -320 0
v -192 -320 0
v -192 -304 0
v -176 -304 0
v -192 -320 0
v -208 -320 0
v -208 -304 0
v -192 -304 0
v -224 -320 0
v -240 -320 0
v -240 -304 0
v -224 -304 0
v -160 -336 0
v -176 -336 0
v -176 -320 0
v -160 -320 0
v -176 -336 0
v -192 -336 0
v -192 -320 0
v -176 -320 0
v -192 -336 0
v -208 -336 0
v -208 -320 0
v -192 -320 0
v -224 -336 0
v -240 -336 0
v -240 -320 0
v -224 -320 0

# Texture cooridinates (Count = 69)
vt 0.5 0.1666667
vt 0.4583333 0.1666667
vt 0.4583333 0.08333331
vt 0.5 0.08333331
vt 0.4166667 0.1666667
vt 0.4166667 0.08333331
vt 0.625 0.25
vt 0.6666667 0.25
vt 0.6666667 0.3333333
vt 0.625 0.3333333
vt 0.5 0.25
vt 0.4583333 0.25
vt 0.4166667 0.25
vt 0.375 0.1666667
vt 0.3333333 0.1666667
vt 0.3333333 0.08333331
vt 0.375 0.08333331
vt 0.2916667 0.1666667
vt 0.2916667 0.08333331
vt 0.7083333 0.08333331
vt 0.7083333 0.1666667
vt 0.6666667 0.1666667
vt 0.6666667 0.08333331
vt 0.7083333 0.25
vt 0.7083333 0.3333333
vt 0.7083333 0.4166667
vt 0.6666667 0.4166667
vt 0.5 0.4166667
vt 0.4583333 0.4166667
vt 0.4583333 0.3333333
vt 0.5 0.3333333
vt 0.4166667 0.4166667
vt 0.4166667 0.3333333
vt 0.375 0.25
vt 0.3333333 0.25
vt 0.2916667 0.25
vt 0.75 0.3333333
vt 0.75 0.4166667
vt 0.5 0.5
vt 0.4583333 0.5
vt 0.4166667 0.5
vt 0.08333334 0.8333333
vt 0.125 0.8333333
vt 0.125 0.9166667
vt 0.08333334 0.9166667
vt 0.2083333 0.8333333
vt 0.25 0.8333333
vt 0.25 0.9166667
vt 0.2083333 0.9166667
vt 0.2916667 0.8333333
vt 0.2916667 0.9166667
vt 0.2083333 0.1666667
vt 0.25 0.1666667
vt 0.25 0.25
vt 0.2083333 0.25
vt 0.5416667 0.25
vt 0.5833333 0.25
vt 0.5833333 0.3333333
vt 0.5416667 0.3333333
vt 0.2083333 0.08333331
vt 0.25 0.08333331
vt 0.5416667 0.1666667
vt 0.5833333 0.1666667
vt 0.5416667 0.08333331
vt 0.5833333 0.08333331
vt 0.1666667 0.3333333
vt 0.2083333 0.3333333
vt 0.2083333 0.4166667
vt 0.1666667 0.4166667

# Normal
vn 0 0 -1

# Mesh description
g map5_mesh_0019

# Faces
f 1/1/1 2/2/1 3/3/1 4/4/1
f 5/2/1 6/5/1 7/6/1 8/3/1
f 9/7/1 10/8/1 11/9/1 12/10/1
f 13/7/1 14/8/1 15/9/1 16/10/1
f 17/11/1 18/12/1 19/2/1 20/1/1
f 21/12/1 22/13/1 23/5/1 24/2/1
f 25/1/1 26/2/1 27/3/1 28/4/1
f 29/2/1 30/5/1 31/6/1 32/3/1
f 33/14/1 34/15/1 35/16/1 36/17/1
f 37/15/1 38/18/1 39/19/1 40/16/1
f 41/20/1 42/21/1 43/22/1 44/23/1
f 45/21/1 46/24/1 47/8/1 48/22/1
f 49/24/1 50/25/1 51/9/1 52/8/1
f 53/25/1 54/26/1 55/27/1 56/9/1
f 57/28/1 58/29/1 59/30/1 60/31/1
f 61/29/1 62/32/1 63/33/1 64/30/1
f 65/28/1 66/29/1 67/30/1 68/31/1
f 69/7/1 70/8/1 71/9/1 72/10/1
f 73/7/1 74/8/1 75/9/1 76/10/1
f 77/11/1 78/12/1 79/2/1 80/1/1
f 81/12/1 82/13/1 83/5/1 84/2/1
f 85/34/1 86/35/1 87/15/1 88/14/1
f 89/35/1 90/36/1 91/18/1 92/15/1
f 93/37/1 94/38/1 95/26/1 96/25/1
f 97/39/1 98/40/1 99/29/1 100/28/1
f 101/40/1 102/41/1 103/32/1 104/29/1
f 105/7/1 106/8/1 107/9/1 108/10/1
f 109/7/1 110/8/1 111/9/1 112/10/1
f 113/7/1 114/8/1 115/9/1 116/10/1
f 117/7/1 118/8/1 119/9/1 120/10/1
f 121/7/1 122/8/1 123/9/1 124/10/1
f 125/7/1 126/8/1 127/9/1 128/10/1
f 129/42/1 130/43/1 131/44/1 132/45/1
f 133/46/1 134/47/1 135/48/1 136/49/1
f 137/46/1 138/47/1 139/48/1 140/49/1
f 141/46/1 142/47/1 143/48/1 144/49/1
f 145/46/1 146/47/1 147/48/1 148/49/1
f 149/46/1 150/47/1 151/48/1 152/49/1
f 153/47/1 154/50/1 155/51/1 156/48/1
f 157/42/1 158/43/1 159/44/1 160/45/1
f 161/46/1 162/47/1 163/48/1 164/49/1
f 165/46/1 166/47/1 167/48/1 168/49/1
f 169/46/1 170/47/1 171/48/1 172/49/1
f 173/46/1 174/47/1 175/48/1 176/49/1
f 177/46/1 178/47/1 179/48/1 180/49/1
f 181/47/1 182/50/1 183/51/1 184/48/1
f 185/42/1 186/43/1 187/44/1 188/45/1
f 189/46/1 190/47/1 191/48/1 192/49/1
f 193/46/1 194/47/1 195/48/1 196/49/1
f 197/46/1 198/47/1 199/48/1 200/49/1
f 201/46/1 202/47/1 203/48/1 204/49/1
f 205/46/1 206/47/1 207/48/1 208/49/1
f 209/47/1 210/50/1 211/51/1 212/48/1
f 213/42/1 214/43/1 215/44/1 216/45/1
f 217/46/1 218/47/1 219/48/1 220/49/1
f 221/46/1 222/47/1 223/48/1 224/49/1
f 225/46/1 226/47/1 227/48/1 228/49/1
f 229/46/1 230/47/1 231/48/1 232/49/1
f 233/46/1 234/47/1 235/48/1 236/49/1
f 237/47/1 238/50/1 239/51/1 240/48/1
f 241/42/1 242/43/1 243/44/1 244/45/1
f 245/46/1 246/47/1 247/48/1 248/49/1
f 249/46/1 250/47/1 251/48/1 252/49/1
f 253/46/1 254/47/1 255/48/1 256/49/1
f 257/46/1 258/47/1 259/48/1 260/49/1
f 261/46/1 262/47/1 263/48/1 264/49/1
f 265/47/1 266/50/1 267/51/1 268/48/1
f 269/12/1 270/2/1 271/1/1 272/11/1
f 273/2/1 274/3/1 275/4/1 276/1/1
f 277/52/1 278/53/1 279/54/1 280/55/1
f 281/56/1 282/57/1 283/58/1 284/59/1
f 285/13/1 286/5/1 287/2/1 288/12/1
f 289/5/1 290/6/1 291/3/1 292/2/1
f 293/60/1 294/61/1 295/53/1 296/52/1
f 297/62/1 298/63/1 299/57/1 300/56/1
f 301/35/1 302/15/1 303/14/1 304/34/1
f 305/15/1 306/16/1 307/17/1 308/14/1
f 309/30/1 310/31/1 311/28/1 312/29/1
f 313/64/1 314/65/1 315/63/1 316/62/1
f 317/36/1 318/18/1 319/15/1 320/35/1
f 321/18/1 322/19/1 323/16/1 324/15/1
f 325/66/1 326/67/1 327/68/1 328/69/1
f 329/56/1 330/57/1 331/58/1 332/59/1

