# Tiled2Unity generated file. Do not modify by hand.
# Wavefront file for 'map5_mesh_0012.obj'

# Vertices (Count = 356)
v -2320 -16 0
v -2336 -16 0
v -2336 0 0
v -2320 0 0
v -2336 -16 0
v -2352 -16 0
v -2352 0 0
v -2336 0 0
v -2352 -16 0
v -2368 -16 0
v -2368 0 0
v -2352 0 0
v -2784 -16 0
v -2800 -16 0
v -2800 0 0
v -2784 0 0
v -2800 -16 0
v -2816 -16 0
v -2816 0 0
v -2800 0 0
v -2816 -16 0
v -2832 -16 0
v -2832 0 0
v -2816 0 0
v -2304 -32 0
v -2320 -32 0
v -2320 -16 0
v -2304 -16 0
v -2320 -32 0
v -2336 -32 0
v -2336 -16 0
v -2320 -16 0
v -2336 -32 0
v -2352 -32 0
v -2352 -16 0
v -2336 -16 0
v -2352 -32 0
v -2368 -32 0
v -2368 -16 0
v -2352 -16 0
v -2544 -32 0
v -2560 -32 0
v -2560 -16 0
v -2544 -16 0
v -2560 -32 0
v -2576 -32 0
v -2576 -16 0
v -2560 -16 0
v -2576 -32 0
v -2592 -32 0
v -2592 -16 0
v -2576 -16 0
v -2784 -32 0
v -2800 -32 0
v -2800 -16 0
v -2784 -16 0
v -2800 -32 0
v -2816 -32 0
v -2816 -16 0
v -2800 -16 0
v -2816 -32 0
v -2832 -32 0
v -2832 -16 0
v -2816 -16 0
v -2304 -48 0
v -2320 -48 0
v -2320 -32 0
v -2304 -32 0
v -2320 -48 0
v -2336 -48 0
v -2336 -32 0
v -2320 -32 0
v -2336 -48 0
v -2352 -48 0
v -2352 -32 0
v -2336 -32 0
v -2352 -48 0
v -2368 -48 0
v -2368 -32 0
v -2352 -32 0
v -2528 -48 0
v -2544 -48 0
v -2544 -32 0
v -2528 -32 0
v -2544 -48 0
v -2560 -48 0
v -2560 -32 0
v -2544 -32 0
v -2560 -48 0
v -2576 -48 0
v -2576 -32 0
v -2560 -32 0
v -2576 -48 0
v -2592 -48 0
v -2592 -32 0
v -2576 -32 0
v -2784 -48 0
v -2800 -48 0
v -2800 -32 0
v -2784 -32 0
v -2800 -48 0
v -2816 -48 0
v -2816 -32 0
v -2800 -32 0
v -2816 -48 0
v -2832 -48 0
v -2832 -32 0
v -2816 -32 0
v -576 -64 0
v -592 -64 0
v -592 -48 0
v -576 -48 0
v -592 -64 0
v -608 -64 0
v -608 -48 0
v -592 -48 0
v -672 -64 0
v -688 -64 0
v -688 -48 0
v -672 -48 0
v -688 -64 0
v -704 -64 0
v -704 -48 0
v -688 -48 0
v -2304 -64 0
v -2320 -64 0
v -2320 -48 0
v -2304 -48 0
v -2320 -64 0
v -2336 -64 0
v -2336 -48 0
v -2320 -48 0
v -2528 -64 0
v -2544 -64 0
v -2544 -48 0
v -2528 -48 0
v -2544 -64 0
v -2560 -64 0
v -2560 -48 0
v -2544 -48 0
v -2560 -64 0
v -2576 -64 0
v -2576 -48 0
v -2560 -48 0
v -2576 -64 0
v -2592 -64 0
v -2592 -48 0
v -2576 -48 0
v -576 -80 0
v -592 -80 0
v -592 -64 0
v -576 -64 0
v -592 -80 0
v -608 -80 0
v -608 -64 0
v -592 -64 0
v -672 -80 0
v -688 -80 0
v -688 -64 0
v -672 -64 0
v -688 -80 0
v -704 -80 0
v -704 -64 0
v -688 -64 0
v -2304 -80 0
v -2320 -80 0
v -2320 -64 0
v -2304 -64 0
v -2320 -80 0
v -2336 -80 0
v -2336 -64 0
v -2320 -64 0
v -2528 -80 0
v -2544 -80 0
v -2544 -64 0
v -2528 -64 0
v -2544 -80 0
v -2560 -80 0
v -2560 -64 0
v -2544 -64 0
v -2560 -80 0
v -2576 -80 0
v -2576 -64 0
v -2560 -64 0
v -576 -96 0
v -592 -96 0
v -592 -80 0
v -576 -80 0
v -592 -96 0
v -608 -96 0
v -608 -80 0
v -592 -80 0
v -672 -96 0
v -688 -96 0
v -688 -80 0
v -672 -80 0
v -688 -96 0
v -704 -96 0
v -704 -80 0
v -688 -80 0
v -1088 -96 0
v -1104 -96 0
v -1104 -80 0
v -1088 -80 0
v -1104 -96 0
v -1120 -96 0
v -1120 -80 0
v -1104 -80 0
v -1264 -96 0
v -1280 -96 0
v -1280 -80 0
v -1264 -80 0
v -1280 -96 0
v -1296 -96 0
v -1296 -80 0
v -1280 -80 0
v -2304 -96 0
v -2320 -96 0
v -2320 -80 0
v -2304 -80 0
v -2320 -96 0
v -2336 -96 0
v -2336 -80 0
v -2320 -80 0
v -2528 -96 0
v -2544 -96 0
v -2544 -80 0
v -2528 -80 0
v -2544 -96 0
v -2560 -96 0
v -2560 -80 0
v -2544 -80 0
v -2560 -96 0
v -2576 -96 0
v -2576 -80 0
v -2560 -80 0
v -672 -112 0
v -688 -112 0
v -688 -96 0
v -672 -96 0
v -688 -112 0
v -704 -112 0
v -704 -96 0
v -688 -96 0
v -1088 -112 0
v -1104 -112 0
v -1104 -96 0
v -1088 -96 0
v -1104 -112 0
v -1120 -112 0
v -1120 -96 0
v -1104 -96 0
v -1120 -112 0
v -1136 -112 0
v -1136 -96 0
v -1120 -96 0
v -1264 -112 0
v -1280 -112 0
v -1280 -96 0
v -1264 -96 0
v -1280 -112 0
v -1296 -112 0
v -1296 -96 0
v -1280 -96 0
v -2544 -112 0
v -2560 -112 0
v -2560 -96 0
v -2544 -96 0
v -2560 -112 0
v -2576 -112 0
v -2576 -96 0
v -2560 -96 0
v -672 -128 0
v -688 -128 0
v -688 -112 0
v -672 -112 0
v -688 -128 0
v -704 -128 0
v -704 -112 0
v -688 -112 0
v -704 -128 0
v -720 -128 0
v -720 -112 0
v -704 -112 0
v -1088 -128 0
v -1104 -128 0
v -1104 -112 0
v -1088 -112 0
v -1104 -128 0
v -1120 -128 0
v -1120 -112 0
v -1104 -112 0
v -1120 -128 0
v -1136 -128 0
v -1136 -112 0
v -1120 -112 0
v -1264 -128 0
v -1280 -128 0
v -1280 -112 0
v -1264 -112 0
v -1280 -128 0
v -1296 -128 0
v -1296 -112 0
v -1280 -112 0
v -672 -144 0
v -688 -144 0
v -688 -128 0
v -672 -128 0
v -688 -144 0
v -704 -144 0
v -704 -128 0
v -688 -128 0
v -1088 -144 0
v -1104 -144 0
v -1104 -128 0
v -1088 -128 0
v -1104 -144 0
v -1120 -144 0
v -1120 -128 0
v -1104 -128 0
v -1120 -144 0
v -1136 -144 0
v -1136 -128 0
v -1120 -128 0
v -1264 -144 0
v -1280 -144 0
v -1280 -128 0
v -1264 -128 0
v -1280 -144 0
v -1296 -144 0
v -1296 -128 0
v -1280 -128 0
v -672 -160 0
v -688 -160 0
v -688 -144 0
v -672 -144 0
v -688 -160 0
v -704 -160 0
v -704 -144 0
v -688 -144 0
v -1088 -160 0
v -1104 -160 0
v -1104 -144 0
v -1088 -144 0
v -1104 -160 0
v -1120 -160 0
v -1120 -144 0
v -1104 -144 0
v -1264 -160 0
v -1280 -160 0
v -1280 -144 0
v -1264 -144 0
v -1280 -160 0
v -1296 -160 0
v -1296 -144 0
v -1280 -144 0

# Texture cooridinates (Count = 12)
vt 0 0.6981132
vt 0.4210526 0.6981132
vt 0.4210526 1
vt 0 1
vt 0.8421053 0.6981132
vt 0.8421053 1
vt 0 0.3962264
vt 0.4210526 0.3962264
vt 0.8421053 0.3962264
vt 0 0.09433961
vt 0.4210526 0.09433961
vt 0.8421053 0.09433961

# Normal
vn 0 0 -1

# Mesh description
g map5_mesh_0012

# Faces
f 1/1/1 2/2/1 3/3/1 4/4/1
f 5/1/1 6/2/1 7/3/1 8/4/1
f 9/2/1 10/5/1 11/6/1 12/3/1
f 13/1/1 14/2/1 15/3/1 16/4/1
f 17/2/1 18/5/1 19/6/1 20/3/1
f 21/2/1 22/5/1 23/6/1 24/3/1
f 25/1/1 26/2/1 27/3/1 28/4/1
f 29/2/1 30/5/1 31/6/1 32/3/1
f 33/7/1 34/8/1 35/2/1 36/1/1
f 37/8/1 38/9/1 39/5/1 40/2/1
f 41/2/1 42/5/1 43/6/1 44/3/1
f 45/1/1 46/2/1 47/3/1 48/4/1
f 49/2/1 50/5/1 51/6/1 52/3/1
f 53/7/1 54/8/1 55/2/1 56/1/1
f 57/8/1 58/9/1 59/5/1 60/2/1
f 61/8/1 62/9/1 63/5/1 64/2/1
f 65/1/1 66/2/1 67/3/1 68/4/1
f 69/2/1 70/5/1 71/6/1 72/3/1
f 73/10/1 74/11/1 75/8/1 76/7/1
f 77/11/1 78/12/1 79/9/1 80/8/1
f 81/7/1 82/8/1 83/2/1 84/1/1
f 85/8/1 86/9/1 87/5/1 88/2/1
f 89/7/1 90/8/1 91/2/1 92/1/1
f 93/8/1 94/9/1 95/5/1 96/2/1
f 97/10/1 98/11/1 99/8/1 100/7/1
f 101/11/1 102/12/1 103/9/1 104/8/1
f 105/11/1 106/12/1 107/9/1 108/8/1
f 109/1/1 110/2/1 111/3/1 112/4/1
f 113/2/1 114/5/1 115/6/1 116/3/1
f 117/1/1 118/2/1 119/3/1 120/4/1
f 121/2/1 122/5/1 123/6/1 124/3/1
f 125/1/1 126/2/1 127/3/1 128/4/1
f 129/2/1 130/5/1 131/6/1 132/3/1
f 133/1/1 134/2/1 135/3/1 136/4/1
f 137/2/1 138/5/1 139/6/1 140/3/1
f 141/10/1 142/11/1 143/8/1 144/7/1
f 145/11/1 146/12/1 147/9/1 148/8/1
f 149/7/1 150/8/1 151/2/1 152/1/1
f 153/8/1 154/9/1 155/5/1 156/2/1
f 157/1/1 158/2/1 159/3/1 160/4/1
f 161/2/1 162/5/1 163/6/1 164/3/1
f 165/7/1 166/8/1 167/2/1 168/1/1
f 169/8/1 170/9/1 171/5/1 172/2/1
f 173/7/1 174/8/1 175/2/1 176/1/1
f 177/1/1 178/2/1 179/3/1 180/4/1
f 181/2/1 182/5/1 183/6/1 184/3/1
f 185/10/1 186/11/1 187/8/1 188/7/1
f 189/11/1 190/12/1 191/9/1 192/8/1
f 193/7/1 194/8/1 195/2/1 196/1/1
f 197/8/1 198/9/1 199/5/1 200/2/1
f 201/1/1 202/2/1 203/3/1 204/4/1
f 205/2/1 206/5/1 207/6/1 208/3/1
f 209/1/1 210/2/1 211/3/1 212/4/1
f 213/2/1 214/5/1 215/6/1 216/3/1
f 217/10/1 218/11/1 219/8/1 220/7/1
f 221/11/1 222/12/1 223/9/1 224/8/1
f 225/10/1 226/11/1 227/8/1 228/7/1
f 229/7/1 230/8/1 231/2/1 232/1/1
f 233/8/1 234/9/1 235/5/1 236/2/1
f 237/10/1 238/11/1 239/8/1 240/7/1
f 241/11/1 242/12/1 243/9/1 244/8/1
f 245/1/1 246/2/1 247/3/1 248/4/1
f 249/2/1 250/5/1 251/6/1 252/3/1
f 253/2/1 254/5/1 255/6/1 256/3/1
f 257/7/1 258/8/1 259/2/1 260/1/1
f 261/8/1 262/9/1 263/5/1 264/2/1
f 265/10/1 266/11/1 267/8/1 268/7/1
f 269/11/1 270/12/1 271/9/1 272/8/1
f 273/1/1 274/2/1 275/3/1 276/4/1
f 277/2/1 278/5/1 279/6/1 280/3/1
f 281/11/1 282/12/1 283/9/1 284/8/1
f 285/1/1 286/2/1 287/3/1 288/4/1
f 289/2/1 290/5/1 291/6/1 292/3/1
f 293/8/1 294/9/1 295/5/1 296/2/1
f 297/1/1 298/2/1 299/3/1 300/4/1
f 301/2/1 302/5/1 303/6/1 304/3/1
f 305/7/1 306/8/1 307/2/1 308/1/1
f 309/8/1 310/9/1 311/5/1 312/2/1
f 313/7/1 314/8/1 315/2/1 316/1/1
f 317/8/1 318/9/1 319/5/1 320/2/1
f 321/11/1 322/12/1 323/9/1 324/8/1
f 325/7/1 326/8/1 327/2/1 328/1/1
f 329/8/1 330/9/1 331/5/1 332/2/1
f 333/10/1 334/11/1 335/8/1 336/7/1
f 337/11/1 338/12/1 339/9/1 340/8/1
f 341/10/1 342/11/1 343/8/1 344/7/1
f 345/11/1 346/12/1 347/9/1 348/8/1
f 349/10/1 350/11/1 351/8/1 352/7/1
f 353/11/1 354/12/1 355/9/1 356/8/1

