# Tiled2Unity generated file. Do not modify by hand.
# Wavefront file for 'map5_mesh_0018.obj'

# Vertices (Count = 280)
v -2352 -16 0
v -2368 -16 0
v -2368 0 0
v -2352 0 0
v -2368 -16 0
v -2384 -16 0
v -2384 0 0
v -2368 0 0
v -2816 -16 0
v -2832 -16 0
v -2832 0 0
v -2816 0 0
v -2832 -16 0
v -2848 -16 0
v -2848 0 0
v -2832 0 0
v -2352 -32 0
v -2368 -32 0
v -2368 -16 0
v -2352 -16 0
v -2368 -32 0
v -2384 -32 0
v -2384 -16 0
v -2368 -16 0
v -2816 -32 0
v -2832 -32 0
v -2832 -16 0
v -2816 -16 0
v -2832 -32 0
v -2848 -32 0
v -2848 -16 0
v -2832 -16 0
v -320 -80 0
v -336 -80 0
v -336 -64 0
v -320 -64 0
v -336 -80 0
v -352 -80 0
v -352 -64 0
v -336 -64 0
v -320 -96 0
v -336 -96 0
v -336 -80 0
v -320 -80 0
v -336 -96 0
v -352 -96 0
v -352 -80 0
v -336 -80 0
v -1552 -192 0
v -1568 -192 0
v -1568 -176 0
v -1552 -176 0
v -1568 -192 0
v -1584 -192 0
v -1584 -176 0
v -1568 -176 0
v -1552 -208 0
v -1568 -208 0
v -1568 -192 0
v -1552 -192 0
v -1568 -208 0
v -1584 -208 0
v -1584 -192 0
v -1568 -192 0
v -3840 -208 0
v -3856 -208 0
v -3856 -192 0
v -3840 -192 0
v -3856 -208 0
v -3872 -208 0
v -3872 -192 0
v -3856 -192 0
v -3872 -208 0
v -3888 -208 0
v -3888 -192 0
v -3872 -192 0
v -3888 -208 0
v -3904 -208 0
v -3904 -192 0
v -3888 -192 0
v -3904 -208 0
v -3920 -208 0
v -3920 -192 0
v -3904 -192 0
v -3920 -208 0
v -3936 -208 0
v -3936 -192 0
v -3920 -192 0
v -3936 -208 0
v -3952 -208 0
v -3952 -192 0
v -3936 -192 0
v -3952 -208 0
v -3968 -208 0
v -3968 -192 0
v -3952 -192 0
v -3840 -224 0
v -3856 -224 0
v -3856 -208 0
v -3840 -208 0
v -3856 -224 0
v -3872 -224 0
v -3872 -208 0
v -3856 -208 0
v -3872 -224 0
v -3888 -224 0
v -3888 -208 0
v -3872 -208 0
v -3888 -224 0
v -3904 -224 0
v -3904 -208 0
v -3888 -208 0
v -3904 -224 0
v -3920 -224 0
v -3920 -208 0
v -3904 -208 0
v -3920 -224 0
v -3936 -224 0
v -3936 -208 0
v -3920 -208 0
v -3936 -224 0
v -3952 -224 0
v -3952 -208 0
v -3936 -208 0
v -3952 -224 0
v -3968 -224 0
v -3968 -208 0
v -3952 -208 0
v -3968 -224 0
v -3984 -224 0
v -3984 -208 0
v -3968 -208 0
v -3984 -224 0
v -4000 -224 0
v -4000 -208 0
v -3984 -208 0
v -3824 -240 0
v -3840 -240 0
v -3840 -224 0
v -3824 -224 0
v -3840 -240 0
v -3856 -240 0
v -3856 -224 0
v -3840 -224 0
v -704 -256 0
v -720 -256 0
v -720 -240 0
v -704 -240 0
v -720 -256 0
v -736 -256 0
v -736 -240 0
v -720 -240 0
v -3824 -256 0
v -3840 -256 0
v -3840 -240 0
v -3824 -240 0
v -3840 -256 0
v -3856 -256 0
v -3856 -240 0
v -3840 -240 0
v -3856 -256 0
v -3872 -256 0
v -3872 -240 0
v -3856 -240 0
v -704 -272 0
v -720 -272 0
v -720 -256 0
v -704 -256 0
v -720 -272 0
v -736 -272 0
v -736 -256 0
v -720 -256 0
v -2592 -272 0
v -2608 -272 0
v -2608 -256 0
v -2592 -256 0
v -2608 -272 0
v -2624 -272 0
v -2624 -256 0
v -2608 -256 0
v -3824 -272 0
v -3840 -272 0
v -3840 -256 0
v -3824 -256 0
v -3840 -272 0
v -3856 -272 0
v -3856 -256 0
v -3840 -256 0
v -3856 -272 0
v -3872 -272 0
v -3872 -256 0
v -3856 -256 0
v -3872 -272 0
v -3888 -272 0
v -3888 -256 0
v -3872 -256 0
v -1104 -288 0
v -1120 -288 0
v -1120 -272 0
v -1104 -272 0
v -1120 -288 0
v -1136 -288 0
v -1136 -272 0
v -1120 -272 0
v -2592 -288 0
v -2608 -288 0
v -2608 -272 0
v -2592 -272 0
v -2608 -288 0
v -2624 -288 0
v -2624 -272 0
v -2608 -272 0
v -3824 -288 0
v -3840 -288 0
v -3840 -272 0
v -3824 -272 0
v -3840 -288 0
v -3856 -288 0
v -3856 -272 0
v -3840 -272 0
v -3856 -288 0
v -3872 -288 0
v -3872 -272 0
v -3856 -272 0
v -3872 -288 0
v -3888 -288 0
v -3888 -272 0
v -3872 -272 0
v -1104 -304 0
v -1120 -304 0
v -1120 -288 0
v -1104 -288 0
v -1120 -304 0
v -1136 -304 0
v -1136 -288 0
v -1120 -288 0
v -3824 -304 0
v -3840 -304 0
v -3840 -288 0
v -3824 -288 0
v -3840 -304 0
v -3856 -304 0
v -3856 -288 0
v -3840 -288 0
v -3872 -304 0
v -3888 -304 0
v -3888 -288 0
v -3872 -288 0
v -3824 -320 0
v -3840 -320 0
v -3840 -304 0
v -3824 -304 0
v -3840 -320 0
v -3856 -320 0
v -3856 -304 0
v -3840 -304 0
v -3872 -320 0
v -3888 -320 0
v -3888 -304 0
v -3872 -304 0
v -3824 -336 0
v -3840 -336 0
v -3840 -320 0
v -3824 -320 0
v -3840 -336 0
v -3856 -336 0
v -3856 -320 0
v -3840 -320 0
v -3872 -336 0
v -3888 -336 0
v -3888 -320 0
v -3872 -320 0
v -3888 -336 0
v -3904 -336 0
v -3904 -320 0
v -3888 -320 0
v -3904 -336 0
v -3920 -336 0
v -3920 -320 0
v -3904 -320 0

# Texture cooridinates (Count = 53)
vt 0.1666667 0.3333333
vt 0.1666667 0.4166667
vt 0.125 0.4166667
vt 0.125 0.3333333
vt 0.1666667 0.5
vt 0.125 0.5
vt 0.2083333 0.3333333
vt 0.2083333 0.4166667
vt 0.2083333 0.5
vt 0.5416667 0.4166667
vt 0.5833333 0.4166667
vt 0.5833333 0.5
vt 0.5416667 0.5
vt 0.625 0.4166667
vt 0.625 0.5
vt 0.4166667 0.4166667
vt 0.4583333 0.4166667
vt 0.4583333 0.5
vt 0.4166667 0.5
vt 0.5 0.4166667
vt 0.5 0.5
vt 0.5416667 0.3333333
vt 0.5833333 0.3333333
vt 0.625 0.3333333
vt 0.4166667 0.3333333
vt 0.4583333 0.3333333
vt 0.5 0.3333333
vt 0.5416667 0.8333333
vt 0.5833333 0.8333333
vt 0.5833333 0.9166667
vt 0.5416667 0.9166667
vt 0.4583333 0.25
vt 0.4583333 0.1666667
vt 0.5 0.1666667
vt 0.5 0.25
vt 0.4583333 0.08333331
vt 0.5 0.08333331
vt 0.4166667 0.25
vt 0.4166667 0.1666667
vt 0.4166667 0.08333331
vt 0.625 0.25
vt 0.6666667 0.25
vt 0.6666667 0.3333333
vt 0.5 0.6666666
vt 0.5416667 0.6666666
vt 0.5416667 0.75
vt 0.5 0.75
vt 0.5416667 0.25
vt 0.5833333 0.25
vt 0.5416667 0.1666667
vt 0.5833333 0.1666667
vt 0.5416667 0.08333331
vt 0.5833333 0.08333331

# Normal
vn 0 0 -1

# Mesh description
g map5_mesh_0018

# Faces
f 1/1/1 2/2/1 3/3/1 4/4/1
f 5/2/1 6/5/1 7/6/1 8/3/1
f 9/1/1 10/2/1 11/3/1 12/4/1
f 13/2/1 14/5/1 15/6/1 16/3/1
f 17/7/1 18/8/1 19/2/1 20/1/1
f 21/8/1 22/9/1 23/5/1 24/2/1
f 25/7/1 26/8/1 27/2/1 28/1/1
f 29/8/1 30/9/1 31/5/1 32/2/1
f 33/1/1 34/2/1 35/3/1 36/4/1
f 37/2/1 38/5/1 39/6/1 40/3/1
f 41/7/1 42/8/1 43/2/1 44/1/1
f 45/8/1 46/9/1 47/5/1 48/2/1
f 49/1/1 50/2/1 51/3/1 52/4/1
f 53/2/1 54/5/1 55/6/1 56/3/1
f 57/7/1 58/8/1 59/2/1 60/1/1
f 61/8/1 62/9/1 63/5/1 64/2/1
f 65/10/1 66/11/1 67/12/1 68/13/1
f 69/11/1 70/14/1 71/15/1 72/12/1
f 73/3/1 74/2/1 75/5/1 76/6/1
f 77/2/1 78/8/1 79/9/1 80/5/1
f 81/16/1 82/17/1 83/18/1 84/19/1
f 85/17/1 86/20/1 87/21/1 88/18/1
f 89/16/1 90/17/1 91/18/1 92/19/1
f 93/17/1 94/20/1 95/21/1 96/18/1
f 97/22/1 98/23/1 99/11/1 100/10/1
f 101/23/1 102/24/1 103/14/1 104/11/1
f 105/4/1 106/1/1 107/2/1 108/3/1
f 109/1/1 110/7/1 111/8/1 112/2/1
f 113/25/1 114/26/1 115/17/1 116/16/1
f 117/26/1 118/27/1 119/20/1 120/17/1
f 121/25/1 122/26/1 123/17/1 124/16/1
f 125/26/1 126/27/1 127/20/1 128/17/1
f 129/28/1 130/29/1 131/30/1 132/31/1
f 133/28/1 134/29/1 135/30/1 136/31/1
f 137/32/1 138/33/1 139/34/1 140/35/1
f 141/33/1 142/36/1 143/37/1 144/34/1
f 145/1/1 146/2/1 147/3/1 148/4/1
f 149/2/1 150/5/1 151/6/1 152/3/1
f 153/38/1 154/39/1 155/33/1 156/32/1
f 157/39/1 158/40/1 159/36/1 160/33/1
f 161/41/1 162/42/1 163/43/1 164/24/1
f 165/7/1 166/8/1 167/2/1 168/1/1
f 169/8/1 170/9/1 171/5/1 172/2/1
f 173/1/1 174/2/1 175/3/1 176/4/1
f 177/2/1 178/5/1 179/6/1 180/3/1
f 181/44/1 182/45/1 183/46/1 184/47/1
f 185/41/1 186/42/1 187/43/1 188/24/1
f 189/41/1 190/42/1 191/43/1 192/24/1
f 193/41/1 194/42/1 195/43/1 196/24/1
f 197/1/1 198/2/1 199/3/1 200/4/1
f 201/2/1 202/5/1 203/6/1 204/3/1
f 205/7/1 206/8/1 207/2/1 208/1/1
f 209/8/1 210/9/1 211/5/1 212/2/1
f 213/27/1 214/22/1 215/10/1 216/20/1
f 217/22/1 218/23/1 219/11/1 220/10/1
f 221/41/1 222/42/1 223/43/1 224/24/1
f 225/41/1 226/42/1 227/43/1 228/24/1
f 229/7/1 230/8/1 231/2/1 232/1/1
f 233/8/1 234/9/1 235/5/1 236/2/1
f 237/35/1 238/48/1 239/22/1 240/27/1
f 241/48/1 242/49/1 243/23/1 244/22/1
f 245/41/1 246/42/1 247/43/1 248/24/1
f 249/34/1 250/50/1 251/48/1 252/35/1
f 253/50/1 254/51/1 255/49/1 256/48/1
f 257/41/1 258/42/1 259/43/1 260/24/1
f 261/37/1 262/52/1 263/50/1 264/34/1
f 265/52/1 266/53/1 267/51/1 268/50/1
f 269/41/1 270/42/1 271/43/1 272/24/1
f 273/41/1 274/42/1 275/43/1 276/24/1
f 277/41/1 278/42/1 279/43/1 280/24/1

