# Tiled2Unity generated file. Do not modify by hand.
# Wavefront file for 'map5_mesh_0013.obj'

# Vertices (Count = 60)
v -624 -80 0
v -640 -80 0
v -640 -64 0
v -624 -64 0
v -640 -80 0
v -656 -80 0
v -656 -64 0
v -640 -64 0
v -656 -80 0
v -672 -80 0
v -672 -64 0
v -656 -64 0
v -624 -96 0
v -640 -96 0
v -640 -80 0
v -624 -80 0
v -640 -96 0
v -656 -96 0
v -656 -80 0
v -640 -80 0
v -656 -96 0
v -672 -96 0
v -672 -80 0
v -656 -80 0
v -976 -96 0
v -992 -96 0
v -992 -80 0
v -976 -80 0
v -992 -96 0
v -1008 -96 0
v -1008 -80 0
v -992 -80 0
v -1008 -96 0
v -1024 -96 0
v -1024 -80 0
v -1008 -80 0
v -976 -112 0
v -992 -112 0
v -992 -96 0
v -976 -96 0
v -992 -112 0
v -1008 -112 0
v -1008 -96 0
v -992 -96 0
v -1008 -112 0
v -1024 -112 0
v -1024 -96 0
v -1008 -96 0
v -976 -128 0
v -992 -128 0
v -992 -112 0
v -976 -112 0
v -992 -128 0
v -1008 -128 0
v -1008 -112 0
v -992 -112 0
v -1008 -128 0
v -1024 -128 0
v -1024 -112 0
v -1008 -112 0

# Texture cooridinates (Count = 12)
vt 1 0.6
vt 0.6666667 0.6
vt 0.6666667 0.2
vt 1 0.2
vt 0.3333333 0.6
vt 0.3333333 0.2
vt 0 0.6
vt 0 0.2
vt 1 1
vt 0.6666667 1
vt 0.3333333 1
vt 0 1

# Normal
vn 0 0 -1

# Mesh description
g map5_mesh_0013

# Faces
f 1/1/1 2/2/1 3/3/1 4/4/1
f 5/2/1 6/5/1 7/6/1 8/3/1
f 9/5/1 10/7/1 11/8/1 12/6/1
f 13/9/1 14/10/1 15/2/1 16/1/1
f 17/10/1 18/11/1 19/5/1 20/2/1
f 21/11/1 22/12/1 23/7/1 24/5/1
f 25/1/1 26/2/1 27/3/1 28/4/1
f 29/2/1 30/5/1 31/6/1 32/3/1
f 33/5/1 34/7/1 35/8/1 36/6/1
f 37/1/1 38/2/1 39/3/1 40/4/1
f 41/2/1 42/5/1 43/6/1 44/3/1
f 45/5/1 46/7/1 47/8/1 48/6/1
f 49/9/1 50/10/1 51/2/1 52/1/1
f 53/10/1 54/11/1 55/5/1 56/2/1
f 57/11/1 58/12/1 59/7/1 60/5/1

