# Tiled2Unity generated file. Do not modify by hand.
# Wavefront file for 'map5_mesh_0002.obj'

# Vertices (Count = 36)
v -384 -32 0
v -400 -32 0
v -400 -16 0
v -384 -16 0
v -400 -32 0
v -416 -32 0
v -416 -16 0
v -400 -16 0
v -416 -32 0
v -432 -32 0
v -432 -16 0
v -416 -16 0
v -384 -48 0
v -400 -48 0
v -400 -32 0
v -384 -32 0
v -400 -48 0
v -416 -48 0
v -416 -32 0
v -400 -32 0
v -416 -48 0
v -432 -48 0
v -432 -32 0
v -416 -32 0
v -816 -64 0
v -832 -64 0
v -832 -48 0
v -816 -48 0
v -832 -64 0
v -848 -64 0
v -848 -48 0
v -832 -48 0
v -848 -64 0
v -864 -64 0
v -864 -48 0
v -848 -48 0

# Texture cooridinates (Count = 12)
vt 1 0.6
vt 0.6666667 0.6
vt 0.6666667 0.2
vt 1 0.2
vt 0.3333333 0.6
vt 0.3333333 0.2
vt 0 0.6
vt 0 0.2
vt 1 1
vt 0.6666667 1
vt 0.3333333 1
vt 0 1

# Normal
vn 0 0 -1

# Mesh description
g map5_mesh_0002

# Faces
f 1/1/1 2/2/1 3/3/1 4/4/1
f 5/2/1 6/5/1 7/6/1 8/3/1
f 9/5/1 10/7/1 11/8/1 12/6/1
f 13/9/1 14/10/1 15/2/1 16/1/1
f 17/10/1 18/11/1 19/5/1 20/2/1
f 21/11/1 22/12/1 23/7/1 24/5/1
f 25/1/1 26/2/1 27/3/1 28/4/1
f 29/2/1 30/5/1 31/6/1 32/3/1
f 33/5/1 34/7/1 35/8/1 36/6/1

