# Tiled2Unity generated file. Do not modify by hand.
# Wavefront file for 'untitled2_mesh_0006.obj'

# Vertices (Count = 232)
v -816 -96 0
v -832 -96 0
v -832 -80 0
v -816 -80 0
v -832 -96 0
v -848 -96 0
v -848 -80 0
v -832 -80 0
v -944 -96 0
v -960 -96 0
v -960 -80 0
v -944 -80 0
v -960 -96 0
v -976 -96 0
v -976 -80 0
v -960 -80 0
v -976 -96 0
v -992 -96 0
v -992 -80 0
v -976 -80 0
v -1072 -96 0
v -1088 -96 0
v -1088 -80 0
v -1072 -80 0
v -1104 -96 0
v -1120 -96 0
v -1120 -80 0
v -1104 -80 0
v -816 -112 0
v -832 -112 0
v -832 -96 0
v -816 -96 0
v -832 -112 0
v -848 -112 0
v -848 -96 0
v -832 -96 0
v -848 -112 0
v -864 -112 0
v -864 -96 0
v -848 -96 0
v -944 -112 0
v -960 -112 0
v -960 -96 0
v -944 -96 0
v -960 -112 0
v -976 -112 0
v -976 -96 0
v -960 -96 0
v -976 -112 0
v -992 -112 0
v -992 -96 0
v -976 -96 0
v -1072 -112 0
v -1088 -112 0
v -1088 -96 0
v -1072 -96 0
v -1088 -112 0
v -1104 -112 0
v -1104 -96 0
v -1088 -96 0
v -1104 -112 0
v -1120 -112 0
v -1120 -96 0
v -1104 -96 0
v -752 -128 0
v -768 -128 0
v -768 -112 0
v -752 -112 0
v -816 -128 0
v -832 -128 0
v -832 -112 0
v -816 -112 0
v -832 -128 0
v -848 -128 0
v -848 -112 0
v -832 -112 0
v -880 -128 0
v -896 -128 0
v -896 -112 0
v -880 -112 0
v -896 -128 0
v -912 -128 0
v -912 -112 0
v -896 -112 0
v -1072 -128 0
v -1088 -128 0
v -1088 -112 0
v -1072 -112 0
v -1088 -128 0
v -1104 -128 0
v -1104 -112 0
v -1088 -112 0
v -1136 -128 0
v -1152 -128 0
v -1152 -112 0
v -1136 -112 0
v -1152 -128 0
v -1168 -128 0
v -1168 -112 0
v -1152 -112 0
v -784 -144 0
v -800 -144 0
v -800 -128 0
v -784 -128 0
v -880 -144 0
v -896 -144 0
v -896 -128 0
v -880 -128 0
v -896 -144 0
v -912 -144 0
v -912 -128 0
v -896 -128 0
v -912 -144 0
v -928 -144 0
v -928 -128 0
v -912 -128 0
v -1136 -144 0
v -1152 -144 0
v -1152 -128 0
v -1136 -128 0
v -1152 -144 0
v -1168 -144 0
v -1168 -128 0
v -1152 -128 0
v -688 -160 0
v -704 -160 0
v -704 -144 0
v -688 -144 0
v -704 -160 0
v -720 -160 0
v -720 -144 0
v -704 -144 0
v -720 -160 0
v -736 -160 0
v -736 -144 0
v -720 -144 0
v -752 -160 0
v -768 -160 0
v -768 -144 0
v -752 -144 0
v -768 -160 0
v -784 -160 0
v -784 -144 0
v -768 -144 0
v -880 -160 0
v -896 -160 0
v -896 -144 0
v -880 -144 0
v -896 -160 0
v -912 -160 0
v -912 -144 0
v -896 -144 0
v -1136 -160 0
v -1152 -160 0
v -1152 -144 0
v -1136 -144 0
v -1152 -160 0
v -1168 -160 0
v -1168 -144 0
v -1152 -144 0
v -688 -176 0
v -704 -176 0
v -704 -160 0
v -688 -160 0
v -704 -176 0
v -720 -176 0
v -720 -160 0
v -704 -160 0
v -720 -176 0
v -736 -176 0
v -736 -160 0
v -720 -160 0
v -624 -192 0
v -640 -192 0
v -640 -176 0
v -624 -176 0
v -704 -192 0
v -720 -192 0
v -720 -176 0
v -704 -176 0
v -624 -208 0
v -640 -208 0
v -640 -192 0
v -624 -192 0
v -640 -208 0
v -656 -208 0
v -656 -192 0
v -640 -192 0
v -656 -208 0
v -672 -208 0
v -672 -192 0
v -656 -192 0
v -560 -224 0
v -576 -224 0
v -576 -208 0
v -560 -208 0
v -576 -224 0
v -592 -224 0
v -592 -208 0
v -576 -208 0
v -592 -224 0
v -608 -224 0
v -608 -208 0
v -592 -208 0
v -624 -224 0
v -640 -224 0
v -640 -208 0
v -624 -208 0
v -640 -224 0
v -656 -224 0
v -656 -208 0
v -640 -208 0
v -560 -240 0
v -576 -240 0
v -576 -224 0
v -560 -224 0
v -576 -240 0
v -592 -240 0
v -592 -224 0
v -576 -224 0
v -592 -240 0
v -608 -240 0
v -608 -224 0
v -592 -224 0
v -560 -256 0
v -576 -256 0
v -576 -240 0
v -560 -240 0
v -576 -256 0
v -592 -256 0
v -592 -240 0
v -576 -240 0

# Texture cooridinates (Count = 15)
vt 0 0.6862745
vt 0.2909091 0.6862745
vt 0.2909091 1
vt 0 1
vt 0.5818182 0.6862745
vt 0.5818182 1
vt 0.8727273 0.6862745
vt 0.8727273 1
vt 0 0.372549
vt 0.2909091 0.372549
vt 0.5818182 0.372549
vt 0.8727273 0.372549
vt 0 0.05882353
vt 0.2909091 0.05882353
vt 0.5818182 0.05882353

# Normal
vn 0 0 -1

# Mesh description
g untitled2_mesh_0006

# Faces
f 1/1/1 2/2/1 3/3/1 4/4/1
f 5/2/1 6/5/1 7/6/1 8/3/1
f 9/1/1 10/2/1 11/3/1 12/4/1
f 13/2/1 14/5/1 15/6/1 16/3/1
f 17/5/1 18/7/1 19/8/1 20/6/1
f 21/1/1 22/2/1 23/3/1 24/4/1
f 25/5/1 26/7/1 27/8/1 28/6/1
f 29/9/1 30/10/1 31/2/1 32/1/1
f 33/10/1 34/11/1 35/5/1 36/2/1
f 37/11/1 38/12/1 39/7/1 40/5/1
f 41/9/1 42/10/1 43/2/1 44/1/1
f 45/10/1 46/11/1 47/5/1 48/2/1
f 49/11/1 50/12/1 51/7/1 52/5/1
f 53/9/1 54/10/1 55/2/1 56/1/1
f 57/10/1 58/11/1 59/5/1 60/2/1
f 61/11/1 62/12/1 63/7/1 64/5/1
f 65/1/1 66/2/1 67/3/1 68/4/1
f 69/13/1 70/14/1 71/10/1 72/9/1
f 73/14/1 74/15/1 75/11/1 76/10/1
f 77/1/1 78/2/1 79/3/1 80/4/1
f 81/2/1 82/5/1 83/6/1 84/3/1
f 85/13/1 86/14/1 87/10/1 88/9/1
f 89/14/1 90/15/1 91/11/1 92/10/1
f 93/1/1 94/2/1 95/3/1 96/4/1
f 97/2/1 98/5/1 99/6/1 100/3/1
f 101/11/1 102/12/1 103/7/1 104/5/1
f 105/9/1 106/10/1 107/2/1 108/1/1
f 109/10/1 110/11/1 111/5/1 112/2/1
f 113/11/1 114/12/1 115/7/1 116/5/1
f 117/9/1 118/10/1 119/2/1 120/1/1
f 121/10/1 122/11/1 123/5/1 124/2/1
f 125/1/1 126/2/1 127/3/1 128/4/1
f 129/2/1 130/5/1 131/6/1 132/3/1
f 133/5/1 134/7/1 135/8/1 136/6/1
f 137/13/1 138/14/1 139/10/1 140/9/1
f 141/14/1 142/15/1 143/11/1 144/10/1
f 145/13/1 146/14/1 147/10/1 148/9/1
f 149/14/1 150/15/1 151/11/1 152/10/1
f 153/13/1 154/14/1 155/10/1 156/9/1
f 157/14/1 158/15/1 159/11/1 160/10/1
f 161/9/1 162/10/1 163/2/1 164/1/1
f 165/10/1 166/11/1 167/5/1 168/2/1
f 169/11/1 170/12/1 171/7/1 172/5/1
f 173/1/1 174/2/1 175/3/1 176/4/1
f 177/14/1 178/15/1 179/11/1 180/10/1
f 181/9/1 182/10/1 183/2/1 184/1/1
f 185/10/1 186/11/1 187/5/1 188/2/1
f 189/11/1 190/12/1 191/7/1 192/5/1
f 193/1/1 194/2/1 195/3/1 196/4/1
f 197/2/1 198/5/1 199/6/1 200/3/1
f 201/5/1 202/7/1 203/8/1 204/6/1
f 205/13/1 206/14/1 207/10/1 208/9/1
f 209/14/1 210/15/1 211/11/1 212/10/1
f 213/9/1 214/10/1 215/2/1 216/1/1
f 217/10/1 218/11/1 219/5/1 220/2/1
f 221/11/1 222/12/1 223/7/1 224/5/1
f 225/13/1 226/14/1 227/10/1 228/9/1
f 229/14/1 230/15/1 231/11/1 232/10/1

