# Tiled2Unity generated file. Do not modify by hand.
# Wavefront file for 'untitled2_mesh_0003.obj'

# Vertices (Count = 24)
v -976 -224 0
v -992 -224 0
v -992 -208 0
v -976 -208 0
v -992 -224 0
v -1008 -224 0
v -1008 -208 0
v -992 -208 0
v -960 -240 0
v -976 -240 0
v -976 -224 0
v -960 -224 0
v -976 -240 0
v -992 -240 0
v -992 -224 0
v -976 -224 0
v -992 -240 0
v -1008 -240 0
v -1008 -224 0
v -992 -224 0
v -976 -256 0
v -992 -256 0
v -992 -240 0
v -976 -240 0

# Texture cooridinates (Count = 13)
vt 0.2909091 0.372549
vt 0.2909091 0.6862745
vt 0 0.6862745
vt 0 0.372549
vt 0.2909091 1
vt 0 1
vt 0.5818182 0.05882353
vt 0.5818182 0.372549
vt 0.2909091 0.05882353
vt 0.5818182 0.6862745
vt 0.5818182 1
vt 0.8727273 0.372549
vt 0.8727273 0.6862745

# Normal
vn 0 0 -1

# Mesh description
g untitled2_mesh_0003

# Faces
f 1/1/1 2/2/1 3/3/1 4/4/1
f 5/2/1 6/5/1 7/6/1 8/3/1
f 9/7/1 10/8/1 11/1/1 12/9/1
f 13/8/1 14/10/1 15/2/1 16/1/1
f 17/10/1 18/11/1 19/5/1 20/2/1
f 21/12/1 22/13/1 23/10/1 24/8/1

