# Tiled2Unity generated file. Do not modify by hand.
# Wavefront file for 'untitled2_mesh_0007.obj'

# Vertices (Count = 636)
v -2736 -32 0
v -2752 -32 0
v -2752 -16 0
v -2736 -16 0
v -1296 -48 0
v -1312 -48 0
v -1312 -32 0
v -1296 -32 0
v -2736 -48 0
v -2752 -48 0
v -2752 -32 0
v -2736 -32 0
v -1296 -64 0
v -1312 -64 0
v -1312 -48 0
v -1296 -48 0
v -2736 -64 0
v -2752 -64 0
v -2752 -48 0
v -2736 -48 0
v -1296 -80 0
v -1312 -80 0
v -1312 -64 0
v -1296 -64 0
v -448 -112 0
v -464 -112 0
v -464 -96 0
v -448 -96 0
v -1296 -112 0
v -1312 -112 0
v -1312 -96 0
v -1296 -96 0
v -1312 -112 0
v -1328 -112 0
v -1328 -96 0
v -1312 -96 0
v -1328 -112 0
v -1344 -112 0
v -1344 -96 0
v -1328 -96 0
v -1344 -112 0
v -1360 -112 0
v -1360 -96 0
v -1344 -96 0
v -1360 -112 0
v -1376 -112 0
v -1376 -96 0
v -1360 -96 0
v -1376 -112 0
v -1392 -112 0
v -1392 -96 0
v -1376 -96 0
v -1392 -112 0
v -1408 -112 0
v -1408 -96 0
v -1392 -96 0
v -1408 -112 0
v -1424 -112 0
v -1424 -96 0
v -1408 -96 0
v -1424 -112 0
v -1440 -112 0
v -1440 -96 0
v -1424 -96 0
v -1440 -112 0
v -1456 -112 0
v -1456 -96 0
v -1440 -96 0
v -1456 -112 0
v -1472 -112 0
v -1472 -96 0
v -1456 -96 0
v -1472 -112 0
v -1488 -112 0
v -1488 -96 0
v -1472 -96 0
v -1488 -112 0
v -1504 -112 0
v -1504 -96 0
v -1488 -96 0
v -1504 -112 0
v -1520 -112 0
v -1520 -96 0
v -1504 -96 0
v -1520 -112 0
v -1536 -112 0
v -1536 -96 0
v -1520 -96 0
v -1536 -112 0
v -1552 -112 0
v -1552 -96 0
v -1536 -96 0
v -1552 -112 0
v -1568 -112 0
v -1568 -96 0
v -1552 -96 0
v -1568 -112 0
v -1584 -112 0
v -1584 -96 0
v -1568 -96 0
v -1584 -112 0
v -1600 -112 0
v -1600 -96 0
v -1584 -96 0
v -1600 -112 0
v -1616 -112 0
v -1616 -96 0
v -1600 -96 0
v -1616 -112 0
v -1632 -112 0
v -1632 -96 0
v -1616 -96 0
v -1632 -112 0
v -1648 -112 0
v -1648 -96 0
v -1632 -96 0
v -2704 -112 0
v -2720 -112 0
v -2720 -96 0
v -2704 -96 0
v -2720 -112 0
v -2736 -112 0
v -2736 -96 0
v -2720 -96 0
v -2800 -112 0
v -2816 -112 0
v -2816 -96 0
v -2800 -96 0
v -2880 -112 0
v -2896 -112 0
v -2896 -96 0
v -2880 -96 0
v -2896 -112 0
v -2912 -112 0
v -2912 -96 0
v -2896 -96 0
v -224 -128 0
v -240 -128 0
v -240 -112 0
v -224 -112 0
v -1248 -128 0
v -1264 -128 0
v -1264 -112 0
v -1248 -112 0
v -1264 -128 0
v -1280 -128 0
v -1280 -112 0
v -1264 -112 0
v -1280 -128 0
v -1296 -128 0
v -1296 -112 0
v -1280 -112 0
v -1296 -128 0
v -1312 -128 0
v -1312 -112 0
v -1296 -112 0
v -1312 -128 0
v -1328 -128 0
v -1328 -112 0
v -1312 -112 0
v -1328 -128 0
v -1344 -128 0
v -1344 -112 0
v -1328 -112 0
v -1344 -128 0
v -1360 -128 0
v -1360 -112 0
v -1344 -112 0
v -1360 -128 0
v -1376 -128 0
v -1376 -112 0
v -1360 -112 0
v -1376 -128 0
v -1392 -128 0
v -1392 -112 0
v -1376 -112 0
v -1392 -128 0
v -1408 -128 0
v -1408 -112 0
v -1392 -112 0
v -1408 -128 0
v -1424 -128 0
v -1424 -112 0
v -1408 -112 0
v -1424 -128 0
v -1440 -128 0
v -1440 -112 0
v -1424 -112 0
v -1440 -128 0
v -1456 -128 0
v -1456 -112 0
v -1440 -112 0
v -1456 -128 0
v -1472 -128 0
v -1472 -112 0
v -1456 -112 0
v -1472 -128 0
v -1488 -128 0
v -1488 -112 0
v -1472 -112 0
v -1488 -128 0
v -1504 -128 0
v -1504 -112 0
v -1488 -112 0
v -1504 -128 0
v -1520 -128 0
v -1520 -112 0
v -1504 -112 0
v -1520 -128 0
v -1536 -128 0
v -1536 -112 0
v -1520 -112 0
v -1536 -128 0
v -1552 -128 0
v -1552 -112 0
v -1536 -112 0
v -1552 -128 0
v -1568 -128 0
v -1568 -112 0
v -1552 -112 0
v -1568 -128 0
v -1584 -128 0
v -1584 -112 0
v -1568 -112 0
v -1584 -128 0
v -1600 -128 0
v -1600 -112 0
v -1584 -112 0
v -1600 -128 0
v -1616 -128 0
v -1616 -112 0
v -1600 -112 0
v -1616 -128 0
v -1632 -128 0
v -1632 -112 0
v -1616 -112 0
v -1632 -128 0
v -1648 -128 0
v -1648 -112 0
v -1632 -112 0
v -2704 -128 0
v -2720 -128 0
v -2720 -112 0
v -2704 -112 0
v -2720 -128 0
v -2736 -128 0
v -2736 -112 0
v -2720 -112 0
v -2800 -128 0
v -2816 -128 0
v -2816 -112 0
v -2800 -112 0
v -2880 -128 0
v -2896 -128 0
v -2896 -112 0
v -2880 -112 0
v -2896 -128 0
v -2912 -128 0
v -2912 -112 0
v -2896 -112 0
v -1232 -144 0
v -1248 -144 0
v -1248 -128 0
v -1232 -128 0
v -1248 -144 0
v -1264 -144 0
v -1264 -128 0
v -1248 -128 0
v -1376 -144 0
v -1392 -144 0
v -1392 -128 0
v -1376 -128 0
v -1520 -144 0
v -1536 -144 0
v -1536 -128 0
v -1520 -128 0
v -2800 -144 0
v -2816 -144 0
v -2816 -128 0
v -2800 -128 0
v -416 -160 0
v -432 -160 0
v -432 -144 0
v -416 -144 0
v -1232 -160 0
v -1248 -160 0
v -1248 -144 0
v -1232 -144 0
v -1248 -160 0
v -1264 -160 0
v -1264 -144 0
v -1248 -144 0
v -1520 -160 0
v -1536 -160 0
v -1536 -144 0
v -1520 -144 0
v -1232 -176 0
v -1248 -176 0
v -1248 -160 0
v -1232 -160 0
v -1248 -176 0
v -1264 -176 0
v -1264 -160 0
v -1248 -160 0
v -1520 -176 0
v -1536 -176 0
v -1536 -160 0
v -1520 -160 0
v -96 -192 0
v -112 -192 0
v -112 -176 0
v -96 -176 0
v -384 -192 0
v -400 -192 0
v -400 -176 0
v -384 -176 0
v -1232 -192 0
v -1248 -192 0
v -1248 -176 0
v -1232 -176 0
v -1248 -192 0
v -1264 -192 0
v -1264 -176 0
v -1248 -176 0
v -3456 -192 0
v -3472 -192 0
v -3472 -176 0
v -3456 -176 0
v -96 -208 0
v -112 -208 0
v -112 -192 0
v -96 -192 0
v -384 -208 0
v -400 -208 0
v -400 -192 0
v -384 -192 0
v -1248 -208 0
v -1264 -208 0
v -1264 -192 0
v -1248 -192 0
v -1264 -208 0
v -1280 -208 0
v -1280 -192 0
v -1264 -192 0
v -3456 -208 0
v -3472 -208 0
v -3472 -192 0
v -3456 -192 0
v -96 -224 0
v -112 -224 0
v -112 -208 0
v -96 -208 0
v -1248 -224 0
v -1264 -224 0
v -1264 -208 0
v -1248 -208 0
v -1264 -224 0
v -1280 -224 0
v -1280 -208 0
v -1264 -208 0
v -3456 -224 0
v -3472 -224 0
v -3472 -208 0
v -3456 -208 0
v -1264 -240 0
v -1280 -240 0
v -1280 -224 0
v -1264 -224 0
v -1280 -240 0
v -1296 -240 0
v -1296 -224 0
v -1280 -224 0
v -1264 -256 0
v -1280 -256 0
v -1280 -240 0
v -1264 -240 0
v -1280 -256 0
v -1296 -256 0
v -1296 -240 0
v -1280 -240 0
v -2992 -256 0
v -3008 -256 0
v -3008 -240 0
v -2992 -240 0
v -3008 -256 0
v -3024 -256 0
v -3024 -240 0
v -3008 -240 0
v -3120 -256 0
v -3136 -256 0
v -3136 -240 0
v -3120 -240 0
v -3344 -256 0
v -3360 -256 0
v -3360 -240 0
v -3344 -240 0
v -3360 -256 0
v -3376 -256 0
v -3376 -240 0
v -3360 -240 0
v -144 -272 0
v -160 -272 0
v -160 -256 0
v -144 -256 0
v -160 -272 0
v -176 -272 0
v -176 -256 0
v -160 -256 0
v -320 -272 0
v -336 -272 0
v -336 -256 0
v -320 -256 0
v -336 -272 0
v -352 -272 0
v -352 -256 0
v -336 -256 0
v -416 -272 0
v -432 -272 0
v -432 -256 0
v -416 -256 0
v -480 -272 0
v -496 -272 0
v -496 -256 0
v -480 -256 0
v -496 -272 0
v -512 -272 0
v -512 -256 0
v -496 -256 0
v -1184 -272 0
v -1200 -272 0
v -1200 -256 0
v -1184 -256 0
v -1264 -272 0
v -1280 -272 0
v -1280 -256 0
v -1264 -256 0
v -1280 -272 0
v -1296 -272 0
v -1296 -256 0
v -1280 -256 0
v -2640 -272 0
v -2656 -272 0
v -2656 -256 0
v -2640 -256 0
v -2656 -272 0
v -2672 -272 0
v -2672 -256 0
v -2656 -256 0
v -2992 -272 0
v -3008 -272 0
v -3008 -256 0
v -2992 -256 0
v -3008 -272 0
v -3024 -272 0
v -3024 -256 0
v -3008 -256 0
v -3120 -272 0
v -3136 -272 0
v -3136 -256 0
v -3120 -256 0
v -3344 -272 0
v -3360 -272 0
v -3360 -256 0
v -3344 -256 0
v -3360 -272 0
v -3376 -272 0
v -3376 -256 0
v -3360 -256 0
v -144 -288 0
v -160 -288 0
v -160 -272 0
v -144 -272 0
v -160 -288 0
v -176 -288 0
v -176 -272 0
v -160 -272 0
v -320 -288 0
v -336 -288 0
v -336 -272 0
v -320 -272 0
v -336 -288 0
v -352 -288 0
v -352 -272 0
v -336 -272 0
v -416 -288 0
v -432 -288 0
v -432 -272 0
v -416 -272 0
v -480 -288 0
v -496 -288 0
v -496 -272 0
v -480 -272 0
v -496 -288 0
v -512 -288 0
v -512 -272 0
v -496 -272 0
v -1264 -288 0
v -1280 -288 0
v -1280 -272 0
v -1264 -272 0
v -1280 -288 0
v -1296 -288 0
v -1296 -272 0
v -1280 -272 0
v -1344 -288 0
v -1360 -288 0
v -1360 -272 0
v -1344 -272 0
v -1360 -288 0
v -1376 -288 0
v -1376 -272 0
v -1360 -272 0
v -1376 -288 0
v -1392 -288 0
v -1392 -272 0
v -1376 -272 0
v -1392 -288 0
v -1408 -288 0
v -1408 -272 0
v -1392 -272 0
v -1472 -288 0
v -1488 -288 0
v -1488 -272 0
v -1472 -272 0
v -1536 -288 0
v -1552 -288 0
v -1552 -272 0
v -1536 -272 0
v -1552 -288 0
v -1568 -288 0
v -1568 -272 0
v -1552 -272 0
v -1696 -288 0
v -1712 -288 0
v -1712 -272 0
v -1696 -272 0
v -1712 -288 0
v -1728 -288 0
v -1728 -272 0
v -1712 -272 0
v -2640 -288 0
v -2656 -288 0
v -2656 -272 0
v -2640 -272 0
v -2656 -288 0
v -2672 -288 0
v -2672 -272 0
v -2656 -272 0
v -3120 -288 0
v -3136 -288 0
v -3136 -272 0
v -3120 -272 0
v -416 -304 0
v -432 -304 0
v -432 -288 0
v -416 -288 0
v -608 -304 0
v -624 -304 0
v -624 -288 0
v -608 -288 0
v -1264 -304 0
v -1280 -304 0
v -1280 -288 0
v -1264 -288 0
v -1280 -304 0
v -1296 -304 0
v -1296 -288 0
v -1280 -288 0
v -1344 -304 0
v -1360 -304 0
v -1360 -288 0
v -1344 -288 0
v -1360 -304 0
v -1376 -304 0
v -1376 -288 0
v -1360 -288 0
v -1376 -304 0
v -1392 -304 0
v -1392 -288 0
v -1376 -288 0
v -1392 -304 0
v -1408 -304 0
v -1408 -288 0
v -1392 -288 0
v -1472 -304 0
v -1488 -304 0
v -1488 -288 0
v -1472 -288 0
v -1536 -304 0
v -1552 -304 0
v -1552 -288 0
v -1536 -288 0
v -1552 -304 0
v -1568 -304 0
v -1568 -288 0
v -1552 -288 0
v -1696 -304 0
v -1712 -304 0
v -1712 -288 0
v -1696 -288 0
v -1712 -304 0
v -1728 -304 0
v -1728 -288 0
v -1712 -288 0
v -2640 -304 0
v -2656 -304 0
v -2656 -288 0
v -2640 -288 0
v -2656 -304 0
v -2672 -304 0
v -2672 -288 0
v -2656 -288 0
v -608 -320 0
v -624 -320 0
v -624 -304 0
v -608 -304 0
v -1264 -320 0
v -1280 -320 0
v -1280 -304 0
v -1264 -304 0
v -1280 -320 0
v -1296 -320 0
v -1296 -304 0
v -1280 -304 0
v -1472 -320 0
v -1488 -320 0
v -1488 -304 0
v -1472 -304 0
v -2640 -320 0
v -2656 -320 0
v -2656 -304 0
v -2640 -304 0
v -2656 -320 0
v -2672 -320 0
v -2672 -304 0
v -2656 -304 0

# Texture cooridinates (Count = 92)
vt 0.08333334 0.3333333
vt 0.04166667 0.3333333
vt 0.04166667 0.25
vt 0.08333334 0.25
vt 0.08333334 0.4166667
vt 0.04166667 0.4166667
vt 0.08333334 0.5
vt 0.04166667 0.5
vt 0.375 0.4166667
vt 0.375 0.5
vt 0.3333333 0.5
vt 0.3333333 0.4166667
vt 0.5416667 0.4166667
vt 0.5833333 0.4166667
vt 0.5833333 0.5
vt 0.5416667 0.5
vt 0.625 0.4166667
vt 0.625 0.5
vt 0.6666667 0.4166667
vt 0.6666667 0.5
vt 0.4583333 0.4166667
vt 0.5 0.4166667
vt 0.5 0.5
vt 0.4583333 0.5
vt 0.125 0.4166667
vt 0.1666667 0.4166667
vt 0.1666667 0.5
vt 0.125 0.5
vt 0.2083333 0.4166667
vt 0.2083333 0.5
vt 0.4166667 0.4166667
vt 0.4166667 0.5
vt 0.6666667 0.08333331
vt 0.625 0.08333331
vt 0.625 0
vt 0.6666667 0
vt 0.5833333 0.08333331
vt 0.5833333 0
vt 0.5416667 0.08333331
vt 0.5416667 0
vt 0.25 0.5
vt 0.25 0.4166667
vt 0.2916667 0.4166667
vt 0.2916667 0.5
vt 0.625 0.75
vt 0.5833333 0.75
vt 0.5833333 0.6666666
vt 0.625 0.6666666
vt 0.4166667 0.3333333
vt 0.4583333 0.3333333
vt 0.5 0.3333333
vt 0.5416667 0.3333333
vt 0.5833333 0.3333333
vt 0.625 0.3333333
vt 0.6666667 0.3333333
vt 0.125 0.3333333
vt 0.1666667 0.3333333
vt 0.2083333 0.3333333
vt 0.6666667 0.1666667
vt 0.625 0.1666667
vt 0.5833333 0.1666667
vt 0.5416667 0.1666667
vt 0.7083333 0.4166667
vt 0.7083333 0.5
vt 0.7083333 0.3333333
vt 0.8333333 0.5833334
vt 0.8333333 0.6666666
vt 0.7916667 0.6666666
vt 0.7916667 0.5833334
vt 0.8333333 0.75
vt 0.7916667 0.75
vt 0.875 0.5833334
vt 0.875 0.6666666
vt 0.875 0.75
vt 0.75 0.8333333
vt 0.7916667 0.8333333
vt 0.7916667 0.9166667
vt 0.75 0.9166667
vt 0.5 0.25
vt 0.5416667 0.25
vt 0.5833333 0.25
vt 0.75 0.3333333
vt 0.75 0.4166667
vt 0.7083333 0.25
vt 0.75 0.25
vt 0.7083333 0.1666667
vt 0.75 0.1666667
vt 0.7083333 0.08333331
vt 0.75 0.08333331
vt 0.5 0.1666667
vt 0.6666667 0.25
vt 0.5 0.08333331

# Normal
vn 0 0 -1

# Mesh description
g untitled2_mesh_0007

# Faces
f 1/1/1 2/2/1 3/3/1 4/4/1
f 5/1/1 6/2/1 7/3/1 8/4/1
f 9/5/1 10/6/1 11/2/1 12/1/1
f 13/5/1 14/6/1 15/2/1 16/1/1
f 17/7/1 18/8/1 19/6/1 20/5/1
f 21/7/1 22/8/1 23/6/1 24/5/1
f 25/9/1 26/10/1 27/11/1 28/12/1
f 29/13/1 30/14/1 31/15/1 32/16/1
f 33/14/1 34/17/1 35/18/1 36/15/1
f 37/13/1 38/14/1 39/15/1 40/16/1
f 41/14/1 42/17/1 43/18/1 44/15/1
f 45/17/1 46/19/1 47/20/1 48/18/1
f 49/6/1 50/5/1 51/7/1 52/8/1
f 53/21/1 54/22/1 55/23/1 56/24/1
f 57/14/1 58/17/1 59/18/1 60/15/1
f 61/25/1 62/26/1 63/27/1 64/28/1
f 65/26/1 66/29/1 67/30/1 68/27/1
f 69/21/1 70/22/1 71/23/1 72/24/1
f 73/31/1 74/21/1 75/24/1 76/32/1
f 77/21/1 78/22/1 79/23/1 80/24/1
f 81/31/1 82/21/1 83/24/1 84/32/1
f 85/21/1 86/22/1 87/23/1 88/24/1
f 89/33/1 90/34/1 91/35/1 92/36/1
f 93/34/1 94/37/1 95/38/1 96/35/1
f 97/31/1 98/21/1 99/24/1 100/32/1
f 101/21/1 102/22/1 103/23/1 104/24/1
f 105/33/1 106/34/1 107/35/1 108/36/1
f 109/34/1 110/37/1 111/38/1 112/35/1
f 113/37/1 114/39/1 115/40/1 116/38/1
f 117/25/1 118/26/1 119/27/1 120/28/1
f 121/26/1 122/29/1 123/30/1 124/27/1
f 125/6/1 126/5/1 127/7/1 128/8/1
f 129/25/1 130/26/1 131/27/1 132/28/1
f 133/26/1 134/29/1 135/30/1 136/27/1
f 137/41/1 138/42/1 139/43/1 140/44/1
f 141/45/1 142/46/1 143/47/1 144/48/1
f 145/49/1 146/50/1 147/21/1 148/31/1
f 149/50/1 150/51/1 151/22/1 152/21/1
f 153/52/1 154/53/1 155/14/1 156/13/1
f 157/53/1 158/54/1 159/17/1 160/14/1
f 161/52/1 162/53/1 163/14/1 164/13/1
f 165/53/1 166/54/1 167/17/1 168/14/1
f 169/54/1 170/55/1 171/19/1 172/17/1
f 173/2/1 174/1/1 175/5/1 176/6/1
f 177/50/1 178/51/1 179/22/1 180/21/1
f 181/53/1 182/54/1 183/17/1 184/14/1
f 185/56/1 186/57/1 187/26/1 188/25/1
f 189/57/1 190/58/1 191/29/1 192/26/1
f 193/50/1 194/51/1 195/22/1 196/21/1
f 197/49/1 198/50/1 199/21/1 200/31/1
f 201/50/1 202/51/1 203/22/1 204/21/1
f 205/49/1 206/50/1 207/21/1 208/31/1
f 209/50/1 210/51/1 211/22/1 212/21/1
f 213/59/1 214/60/1 215/34/1 216/33/1
f 217/60/1 218/61/1 219/37/1 220/34/1
f 221/49/1 222/50/1 223/21/1 224/31/1
f 225/50/1 226/51/1 227/22/1 228/21/1
f 229/59/1 230/60/1 231/34/1 232/33/1
f 233/60/1 234/61/1 235/37/1 236/34/1
f 237/61/1 238/62/1 239/39/1 240/37/1
f 241/56/1 242/57/1 243/26/1 244/25/1
f 245/57/1 246/58/1 247/29/1 248/26/1
f 249/2/1 250/1/1 251/5/1 252/6/1
f 253/56/1 254/57/1 255/26/1 256/25/1
f 257/57/1 258/58/1 259/29/1 260/26/1
f 261/20/1 262/19/1 263/63/1 264/64/1
f 265/19/1 266/55/1 267/65/1 268/63/1
f 269/3/1 270/4/1 271/1/1 272/2/1
f 273/1/1 274/2/1 275/3/1 276/4/1
f 277/3/1 278/4/1 279/1/1 280/2/1
f 281/9/1 282/10/1 283/11/1 284/12/1
f 285/18/1 286/17/1 287/19/1 288/20/1
f 289/17/1 290/54/1 291/55/1 292/19/1
f 293/5/1 294/6/1 295/2/1 296/1/1
f 297/15/1 298/14/1 299/17/1 300/18/1
f 301/14/1 302/53/1 303/54/1 304/17/1
f 305/7/1 306/8/1 307/6/1 308/5/1
f 309/1/1 310/2/1 311/3/1 312/4/1
f 313/9/1 314/10/1 315/11/1 316/12/1
f 317/16/1 318/13/1 319/14/1 320/15/1
f 321/13/1 322/52/1 323/53/1 324/14/1
f 325/1/1 326/2/1 327/3/1 328/4/1
f 329/5/1 330/6/1 331/2/1 332/1/1
f 333/9/1 334/10/1 335/11/1 336/12/1
f 337/66/1 338/67/1 339/68/1 340/69/1
f 341/67/1 342/70/1 343/71/1 344/68/1
f 345/5/1 346/6/1 347/2/1 348/1/1
f 349/7/1 350/8/1 351/6/1 352/5/1
f 353/72/1 354/73/1 355/67/1 356/66/1
f 357/73/1 358/74/1 359/70/1 360/67/1
f 361/7/1 362/8/1 363/6/1 364/5/1
f 365/66/1 366/67/1 367/68/1 368/69/1
f 369/67/1 370/70/1 371/71/1 372/68/1
f 373/72/1 374/73/1 375/67/1 376/66/1
f 377/73/1 378/74/1 379/70/1 380/67/1
f 381/25/1 382/26/1 383/27/1 384/28/1
f 385/26/1 386/29/1 387/30/1 388/27/1
f 389/6/1 390/5/1 391/7/1 392/8/1
f 393/25/1 394/26/1 395/27/1 396/28/1
f 397/26/1 398/29/1 399/30/1 400/27/1
f 401/25/1 402/26/1 403/27/1 404/28/1
f 405/26/1 406/29/1 407/30/1 408/27/1
f 409/25/1 410/26/1 411/27/1 412/28/1
f 413/26/1 414/29/1 415/30/1 416/27/1
f 417/6/1 418/5/1 419/7/1 420/8/1
f 421/25/1 422/26/1 423/27/1 424/28/1
f 425/26/1 426/29/1 427/30/1 428/27/1
f 429/75/1 430/76/1 431/77/1 432/78/1
f 433/51/1 434/52/1 435/13/1 436/22/1
f 437/52/1 438/53/1 439/14/1 440/13/1
f 441/51/1 442/52/1 443/13/1 444/22/1
f 445/52/1 446/53/1 447/14/1 448/13/1
f 449/56/1 450/57/1 451/26/1 452/25/1
f 453/57/1 454/58/1 455/29/1 456/26/1
f 457/2/1 458/1/1 459/5/1 460/6/1
f 461/56/1 462/57/1 463/26/1 464/25/1
f 465/57/1 466/58/1 467/29/1 468/26/1
f 469/56/1 470/57/1 471/26/1 472/25/1
f 473/57/1 474/58/1 475/29/1 476/26/1
f 477/56/1 478/57/1 479/26/1 480/25/1
f 481/57/1 482/58/1 483/29/1 484/26/1
f 485/2/1 486/1/1 487/5/1 488/6/1
f 489/56/1 490/57/1 491/26/1 492/25/1
f 493/57/1 494/58/1 495/29/1 496/26/1
f 497/79/1 498/80/1 499/52/1 500/51/1
f 501/80/1 502/81/1 503/53/1 504/52/1
f 505/63/1 506/65/1 507/82/1 508/83/1
f 509/65/1 510/84/1 511/85/1 512/82/1
f 513/84/1 514/86/1 515/87/1 516/85/1
f 517/86/1 518/88/1 519/89/1 520/87/1
f 521/6/1 522/5/1 523/7/1 524/8/1
f 525/25/1 526/26/1 527/27/1 528/28/1
f 529/26/1 530/29/1 531/30/1 532/27/1
f 533/25/1 534/26/1 535/27/1 536/28/1
f 537/26/1 538/29/1 539/30/1 540/27/1
f 541/79/1 542/80/1 543/52/1 544/51/1
f 545/80/1 546/81/1 547/53/1 548/52/1
f 549/3/1 550/4/1 551/1/1 552/2/1
f 553/3/1 554/4/1 555/1/1 556/2/1
f 557/26/1 558/27/1 559/28/1 560/25/1
f 561/90/1 562/62/1 563/80/1 564/79/1
f 565/62/1 566/61/1 567/81/1 568/80/1
f 569/19/1 570/55/1 571/65/1 572/63/1
f 573/55/1 574/91/1 575/84/1 576/65/1
f 577/91/1 578/59/1 579/86/1 580/84/1
f 581/59/1 582/33/1 583/88/1 584/86/1
f 585/2/1 586/1/1 587/5/1 588/6/1
f 589/56/1 590/57/1 591/26/1 592/25/1
f 593/57/1 594/58/1 595/29/1 596/26/1
f 597/56/1 598/57/1 599/26/1 600/25/1
f 601/57/1 602/58/1 603/29/1 604/26/1
f 605/90/1 606/62/1 607/80/1 608/79/1
f 609/62/1 610/61/1 611/81/1 612/80/1
f 613/29/1 614/30/1 615/27/1 616/26/1
f 617/92/1 618/39/1 619/62/1 620/90/1
f 621/39/1 622/37/1 623/61/1 624/62/1
f 625/3/1 626/4/1 627/1/1 628/2/1
f 629/92/1 630/39/1 631/62/1 632/90/1
f 633/39/1 634/37/1 635/61/1 636/62/1

