# Tiled2Unity generated file. Do not modify by hand.
# Wavefront file for 'untitled1_mesh_0013.obj'

# Vertices (Count = 24)
v -1424 -144 0
v -1440 -144 0
v -1440 -128 0
v -1424 -128 0
v -1376 -176 0
v -1392 -176 0
v -1392 -160 0
v -1376 -160 0
v -1392 -176 0
v -1408 -176 0
v -1408 -160 0
v -1392 -160 0
v -1296 -192 0
v -1312 -192 0
v -1312 -176 0
v -1296 -176 0
v -1520 -224 0
v -1536 -224 0
v -1536 -208 0
v -1520 -208 0
v -1184 -256 0
v -1200 -256 0
v -1200 -240 0
v -1184 -240 0

# Texture cooridinates (Count = 10)
vt 0 0.6
vt 0.3333333 0.6
vt 0.3333333 1
vt 0 1
vt 0.6666667 0.6
vt 0.6666667 1
vt 1 1
vt 1 0.6
vt 0.6666667 0.2
vt 1 0.2

# Normal
vn 0 0 -1

# Mesh description
g untitled1_mesh_0013

# Faces
f 1/1/1 2/2/1 3/3/1 4/4/1
f 5/1/1 6/2/1 7/3/1 8/4/1
f 9/2/1 10/5/1 11/6/1 12/3/1
f 13/3/1 14/4/1 15/1/1 16/2/1
f 17/7/1 18/6/1 19/5/1 20/8/1
f 21/9/1 22/10/1 23/8/1 24/5/1

