# Tiled2Unity generated file. Do not modify by hand.
# Wavefront file for 'untitled1_mesh_0009.obj'

# Vertices (Count = 36)
v -2528 -288 0
v -2544 -288 0
v -2544 -272 0
v -2528 -272 0
v -2544 -288 0
v -2560 -288 0
v -2560 -272 0
v -2544 -272 0
v -2560 -288 0
v -2576 -288 0
v -2576 -272 0
v -2560 -272 0
v -2528 -304 0
v -2544 -304 0
v -2544 -288 0
v -2528 -288 0
v -2544 -304 0
v -2560 -304 0
v -2560 -288 0
v -2544 -288 0
v -2560 -304 0
v -2576 -304 0
v -2576 -288 0
v -2560 -288 0
v -2528 -320 0
v -2544 -320 0
v -2544 -304 0
v -2528 -304 0
v -2544 -320 0
v -2560 -320 0
v -2560 -304 0
v -2544 -304 0
v -2560 -320 0
v -2576 -320 0
v -2576 -304 0
v -2560 -304 0

# Texture cooridinates (Count = 8)
vt 0 1
vt 0 0.6666666
vt 0.3333333 0.6666666
vt 0.3333333 1
vt 0 0.3333333
vt 0.3333333 0.3333333
vt 0 0
vt 0.3333333 0

# Normal
vn 0 0 -1

# Mesh description
g untitled1_mesh_0009

# Faces
f 1/1/1 2/2/1 3/3/1 4/4/1
f 5/2/1 6/5/1 7/6/1 8/3/1
f 9/5/1 10/7/1 11/8/1 12/6/1
f 13/1/1 14/2/1 15/3/1 16/4/1
f 17/2/1 18/5/1 19/6/1 20/3/1
f 21/5/1 22/7/1 23/8/1 24/6/1
f 25/1/1 26/2/1 27/3/1 28/4/1
f 29/2/1 30/5/1 31/6/1 32/3/1
f 33/5/1 34/7/1 35/8/1 36/6/1

