# Tiled2Unity generated file. Do not modify by hand.
# Wavefront file for 'untitled1_mesh_0003.obj'

# Vertices (Count = 84)
v -2768 -176 0
v -2784 -176 0
v -2784 -160 0
v -2768 -160 0
v -2784 -176 0
v -2800 -176 0
v -2800 -160 0
v -2784 -160 0
v -2800 -176 0
v -2816 -176 0
v -2816 -160 0
v -2800 -160 0
v -2768 -192 0
v -2784 -192 0
v -2784 -176 0
v -2768 -176 0
v -2784 -192 0
v -2800 -192 0
v -2800 -176 0
v -2784 -176 0
v -2800 -192 0
v -2816 -192 0
v -2816 -176 0
v -2800 -176 0
v -2768 -208 0
v -2784 -208 0
v -2784 -192 0
v -2768 -192 0
v -2784 -208 0
v -2800 -208 0
v -2800 -192 0
v -2784 -192 0
v -2800 -208 0
v -2816 -208 0
v -2816 -192 0
v -2800 -192 0
v -2768 -224 0
v -2784 -224 0
v -2784 -208 0
v -2768 -208 0
v -2784 -224 0
v -2800 -224 0
v -2800 -208 0
v -2784 -208 0
v -2800 -224 0
v -2816 -224 0
v -2816 -208 0
v -2800 -208 0
v -2768 -240 0
v -2784 -240 0
v -2784 -224 0
v -2768 -224 0
v -2784 -240 0
v -2800 -240 0
v -2800 -224 0
v -2784 -224 0
v -2800 -240 0
v -2816 -240 0
v -2816 -224 0
v -2800 -224 0
v -2768 -256 0
v -2784 -256 0
v -2784 -240 0
v -2768 -240 0
v -2784 -256 0
v -2800 -256 0
v -2800 -240 0
v -2784 -240 0
v -2800 -256 0
v -2816 -256 0
v -2816 -240 0
v -2800 -240 0
v -2768 -272 0
v -2784 -272 0
v -2784 -256 0
v -2768 -256 0
v -2784 -272 0
v -2800 -272 0
v -2800 -256 0
v -2784 -256 0
v -2800 -272 0
v -2816 -272 0
v -2816 -256 0
v -2800 -256 0

# Texture cooridinates (Count = 8)
vt 0 1
vt 0 0.6666666
vt 0.3333333 0.6666666
vt 0.3333333 1
vt 0 0.3333333
vt 0.3333333 0.3333333
vt 0 0
vt 0.3333333 0

# Normal
vn 0 0 -1

# Mesh description
g untitled1_mesh_0003

# Faces
f 1/1/1 2/2/1 3/3/1 4/4/1
f 5/2/1 6/5/1 7/6/1 8/3/1
f 9/5/1 10/7/1 11/8/1 12/6/1
f 13/1/1 14/2/1 15/3/1 16/4/1
f 17/2/1 18/5/1 19/6/1 20/3/1
f 21/5/1 22/7/1 23/8/1 24/6/1
f 25/1/1 26/2/1 27/3/1 28/4/1
f 29/2/1 30/5/1 31/6/1 32/3/1
f 33/5/1 34/7/1 35/8/1 36/6/1
f 37/1/1 38/2/1 39/3/1 40/4/1
f 41/2/1 42/5/1 43/6/1 44/3/1
f 45/5/1 46/7/1 47/8/1 48/6/1
f 49/1/1 50/2/1 51/3/1 52/4/1
f 53/2/1 54/5/1 55/6/1 56/3/1
f 57/5/1 58/7/1 59/8/1 60/6/1
f 61/1/1 62/2/1 63/3/1 64/4/1
f 65/2/1 66/5/1 67/6/1 68/3/1
f 69/5/1 70/7/1 71/8/1 72/6/1
f 73/1/1 74/2/1 75/3/1 76/4/1
f 77/2/1 78/5/1 79/6/1 80/3/1
f 81/5/1 82/7/1 83/8/1 84/6/1

