# Tiled2Unity generated file. Do not modify by hand.
# Wavefront file for 'untitled1_mesh_0015.obj'

# Vertices (Count = 12)
v -2528 -288 0
v -2544 -288 0
v -2544 -272 0
v -2528 -272 0
v -2544 -288 0
v -2560 -288 0
v -2560 -272 0
v -2544 -272 0
v -2560 -288 0
v -2576 -288 0
v -2576 -272 0
v -2560 -272 0

# Texture cooridinates (Count = 8)
vt 0 1
vt 0 0.6666666
vt 0.3333333 0.6666666
vt 0.3333333 1
vt 0 0.3333333
vt 0.3333333 0.3333333
vt 0 0
vt 0.3333333 0

# Normal
vn 0 0 -1

# Mesh description
g untitled1_mesh_0015

# Faces
f 1/1/1 2/2/1 3/3/1 4/4/1
f 5/2/1 6/5/1 7/6/1 8/3/1
f 9/5/1 10/7/1 11/8/1 12/6/1

