# Tiled2Unity generated file. Do not modify by hand.
# Wavefront file for 'untitled1_mesh_0007.obj'

# Vertices (Count = 180)
v -640 -176 0
v -656 -176 0
v -656 -160 0
v -640 -160 0
v -656 -176 0
v -672 -176 0
v -672 -160 0
v -656 -160 0
v -608 -192 0
v -624 -192 0
v -624 -176 0
v -608 -176 0
v -624 -192 0
v -640 -192 0
v -640 -176 0
v -624 -176 0
v -640 -192 0
v -656 -192 0
v -656 -176 0
v -640 -176 0
v -656 -192 0
v -672 -192 0
v -672 -176 0
v -656 -176 0
v -704 -192 0
v -720 -192 0
v -720 -176 0
v -704 -176 0
v -720 -192 0
v -736 -192 0
v -736 -176 0
v -720 -176 0
v -544 -208 0
v -560 -208 0
v -560 -192 0
v -544 -192 0
v -560 -208 0
v -576 -208 0
v -576 -192 0
v -560 -192 0
v -608 -208 0
v -624 -208 0
v -624 -192 0
v -608 -192 0
v -624 -208 0
v -640 -208 0
v -640 -192 0
v -624 -192 0
v -640 -208 0
v -656 -208 0
v -656 -192 0
v -640 -192 0
v -656 -208 0
v -672 -208 0
v -672 -192 0
v -656 -192 0
v -704 -208 0
v -720 -208 0
v -720 -192 0
v -704 -192 0
v -720 -208 0
v -736 -208 0
v -736 -192 0
v -720 -192 0
v -1360 -208 0
v -1376 -208 0
v -1376 -192 0
v -1360 -192 0
v -1408 -208 0
v -1424 -208 0
v -1424 -192 0
v -1408 -192 0
v -496 -224 0
v -512 -224 0
v -512 -208 0
v -496 -208 0
v -528 -224 0
v -544 -224 0
v -544 -208 0
v -528 -208 0
v -544 -224 0
v -560 -224 0
v -560 -208 0
v -544 -208 0
v -560 -224 0
v -576 -224 0
v -576 -208 0
v -560 -208 0
v -576 -224 0
v -592 -224 0
v -592 -208 0
v -576 -208 0
v -704 -224 0
v -720 -224 0
v -720 -208 0
v -704 -208 0
v -720 -224 0
v -736 -224 0
v -736 -208 0
v -720 -208 0
v -480 -240 0
v -496 -240 0
v -496 -224 0
v -480 -224 0
v -496 -240 0
v -512 -240 0
v -512 -224 0
v -496 -224 0
v -528 -240 0
v -544 -240 0
v -544 -224 0
v -528 -224 0
v -544 -240 0
v -560 -240 0
v -560 -224 0
v -544 -224 0
v -560 -240 0
v -576 -240 0
v -576 -224 0
v -560 -224 0
v -576 -240 0
v -592 -240 0
v -592 -224 0
v -576 -224 0
v -1360 -240 0
v -1376 -240 0
v -1376 -224 0
v -1360 -224 0
v -1408 -240 0
v -1424 -240 0
v -1424 -224 0
v -1408 -224 0
v -480 -256 0
v -496 -256 0
v -496 -240 0
v -480 -240 0
v -496 -256 0
v -512 -256 0
v -512 -240 0
v -496 -240 0
v -1264 -256 0
v -1280 -256 0
v -1280 -240 0
v -1264 -240 0
v -1280 -256 0
v -1296 -256 0
v -1296 -240 0
v -1280 -240 0
v -1248 -272 0
v -1264 -272 0
v -1264 -256 0
v -1248 -256 0
v -1264 -272 0
v -1280 -272 0
v -1280 -256 0
v -1264 -256 0
v -1280 -272 0
v -1296 -272 0
v -1296 -256 0
v -1280 -256 0
v -1360 -272 0
v -1376 -272 0
v -1376 -256 0
v -1360 -256 0
v -1408 -272 0
v -1424 -272 0
v -1424 -256 0
v -1408 -256 0
v -1472 -272 0
v -1488 -272 0
v -1488 -256 0
v -1472 -256 0
v -1488 -272 0
v -1504 -272 0
v -1504 -256 0
v -1488 -256 0
v -1504 -272 0
v -1520 -272 0
v -1520 -256 0
v -1504 -256 0

# Texture cooridinates (Count = 12)
vt 0.8421053 0.3962264
vt 0.4210526 0.3962264
vt 0.4210526 0.09433961
vt 0.8421053 0.09433961
vt 0 0.3962264
vt 0 0.09433961
vt 0.8421053 0.6981132
vt 0.4210526 0.6981132
vt 0 0.6981132
vt 0.8421053 1
vt 0.4210526 1
vt 0 1

# Normal
vn 0 0 -1

# Mesh description
g untitled1_mesh_0007

# Faces
f 1/1/1 2/2/1 3/3/1 4/4/1
f 5/2/1 6/5/1 7/6/1 8/3/1
f 9/1/1 10/2/1 11/3/1 12/4/1
f 13/2/1 14/5/1 15/6/1 16/3/1
f 17/7/1 18/8/1 19/2/1 20/1/1
f 21/8/1 22/9/1 23/5/1 24/2/1
f 25/1/1 26/2/1 27/3/1 28/4/1
f 29/2/1 30/5/1 31/6/1 32/3/1
f 33/1/1 34/2/1 35/3/1 36/4/1
f 37/2/1 38/5/1 39/6/1 40/3/1
f 41/7/1 42/8/1 43/2/1 44/1/1
f 45/8/1 46/9/1 47/5/1 48/2/1
f 49/10/1 50/11/1 51/8/1 52/7/1
f 53/11/1 54/12/1 55/9/1 56/8/1
f 57/7/1 58/8/1 59/2/1 60/1/1
f 61/8/1 62/9/1 63/5/1 64/2/1
f 65/6/1 66/3/1 67/2/1 68/5/1
f 69/3/1 70/4/1 71/1/1 72/2/1
f 73/1/1 74/2/1 75/3/1 76/4/1
f 77/1/1 78/2/1 79/3/1 80/4/1
f 81/7/1 82/8/1 83/2/1 84/1/1
f 85/8/1 86/9/1 87/5/1 88/2/1
f 89/1/1 90/2/1 91/3/1 92/4/1
f 93/10/1 94/11/1 95/8/1 96/7/1
f 97/11/1 98/12/1 99/9/1 100/8/1
f 101/1/1 102/2/1 103/3/1 104/4/1
f 105/7/1 106/8/1 107/2/1 108/1/1
f 109/7/1 110/8/1 111/2/1 112/1/1
f 113/10/1 114/11/1 115/8/1 116/7/1
f 117/11/1 118/12/1 119/9/1 120/8/1
f 121/7/1 122/8/1 123/2/1 124/1/1
f 125/6/1 126/3/1 127/2/1 128/5/1
f 129/3/1 130/4/1 131/1/1 132/2/1
f 133/7/1 134/8/1 135/2/1 136/1/1
f 137/7/1 138/8/1 139/2/1 140/1/1
f 141/1/1 142/2/1 143/3/1 144/4/1
f 145/2/1 146/5/1 147/6/1 148/3/1
f 149/1/1 150/2/1 151/3/1 152/4/1
f 153/7/1 154/8/1 155/2/1 156/1/1
f 157/8/1 158/9/1 159/5/1 160/2/1
f 161/6/1 162/3/1 163/2/1 164/5/1
f 165/3/1 166/4/1 167/1/1 168/2/1
f 169/1/1 170/2/1 171/3/1 172/4/1
f 173/1/1 174/2/1 175/3/1 176/4/1
f 177/2/1 178/5/1 179/6/1 180/3/1

