# Tiled2Unity generated file. Do not modify by hand.
# Wavefront file for 'untitled1_mesh_0012.obj'

# Vertices (Count = 12)
v -1168 -96 0
v -1184 -96 0
v -1184 -80 0
v -1168 -80 0
v -1136 -128 0
v -1152 -128 0
v -1152 -112 0
v -1136 -112 0
v -736 -256 0
v -752 -256 0
v -752 -240 0
v -736 -240 0

# Texture cooridinates (Count = 4)
vt 0.2 0.625
vt 0.3 0.625
vt 0.3 0.75
vt 0.2 0.75

# Normal
vn 0 0 -1

# Mesh description
g untitled1_mesh_0012

# Faces
f 1/1/1 2/2/1 3/3/1 4/4/1
f 5/1/1 6/2/1 7/3/1 8/4/1
f 9/1/1 10/2/1 11/3/1 12/4/1

