# Tiled2Unity generated file. Do not modify by hand.
# Wavefront file for 'untitled1_mesh_0002.obj'

# Vertices (Count = 312)
v -1744 -16 0
v -1760 -16 0
v -1760 0 0
v -1744 0 0
v -1760 -16 0
v -1776 -16 0
v -1776 0 0
v -1760 0 0
v -2336 -16 0
v -2352 -16 0
v -2352 0 0
v -2336 0 0
v -2352 -16 0
v -2368 -16 0
v -2368 0 0
v -2352 0 0
v -2400 -16 0
v -2416 -16 0
v -2416 0 0
v -2400 0 0
v -2416 -16 0
v -2432 -16 0
v -2432 0 0
v -2416 0 0
v -1744 -32 0
v -1760 -32 0
v -1760 -16 0
v -1744 -16 0
v -1760 -32 0
v -1776 -32 0
v -1776 -16 0
v -1760 -16 0
v -2352 -32 0
v -2368 -32 0
v -2368 -16 0
v -2352 -16 0
v -2400 -32 0
v -2416 -32 0
v -2416 -16 0
v -2400 -16 0
v -1744 -48 0
v -1760 -48 0
v -1760 -32 0
v -1744 -32 0
v -1760 -48 0
v -1776 -48 0
v -1776 -32 0
v -1760 -32 0
v -2352 -48 0
v -2368 -48 0
v -2368 -32 0
v -2352 -32 0
v -2368 -48 0
v -2384 -48 0
v -2384 -32 0
v -2368 -32 0
v -2384 -48 0
v -2400 -48 0
v -2400 -32 0
v -2384 -32 0
v -1744 -64 0
v -1760 -64 0
v -1760 -48 0
v -1744 -48 0
v -1760 -64 0
v -1776 -64 0
v -1776 -48 0
v -1760 -48 0
v -2336 -64 0
v -2352 -64 0
v -2352 -48 0
v -2336 -48 0
v -2352 -64 0
v -2368 -64 0
v -2368 -48 0
v -2352 -48 0
v -2368 -64 0
v -2384 -64 0
v -2384 -48 0
v -2368 -48 0
v -1744 -80 0
v -1760 -80 0
v -1760 -64 0
v -1744 -64 0
v -1760 -80 0
v -1776 -80 0
v -1776 -64 0
v -1760 -64 0
v -2336 -80 0
v -2352 -80 0
v -2352 -64 0
v -2336 -64 0
v -2352 -80 0
v -2368 -80 0
v -2368 -64 0
v -2352 -64 0
v -1744 -96 0
v -1760 -96 0
v -1760 -80 0
v -1744 -80 0
v -1760 -96 0
v -1776 -96 0
v -1776 -80 0
v -1760 -80 0
v -2336 -96 0
v -2352 -96 0
v -2352 -80 0
v -2336 -80 0
v -2352 -96 0
v -2368 -96 0
v -2368 -80 0
v -2352 -80 0
v -1744 -112 0
v -1760 -112 0
v -1760 -96 0
v -1744 -96 0
v -1760 -112 0
v -1776 -112 0
v -1776 -96 0
v -1760 -96 0
v -2336 -112 0
v -2352 -112 0
v -2352 -96 0
v -2336 -96 0
v -2352 -112 0
v -2368 -112 0
v -2368 -96 0
v -2352 -96 0
v -1744 -128 0
v -1760 -128 0
v -1760 -112 0
v -1744 -112 0
v -1760 -128 0
v -1776 -128 0
v -1776 -112 0
v -1760 -112 0
v -2336 -128 0
v -2352 -128 0
v -2352 -112 0
v -2336 -112 0
v -2352 -128 0
v -2368 -128 0
v -2368 -112 0
v -2352 -112 0
v -1744 -144 0
v -1760 -144 0
v -1760 -128 0
v -1744 -128 0
v -1760 -144 0
v -1776 -144 0
v -1776 -128 0
v -1760 -128 0
v -2336 -144 0
v -2352 -144 0
v -2352 -128 0
v -2336 -128 0
v -2352 -144 0
v -2368 -144 0
v -2368 -128 0
v -2352 -128 0
v -1744 -160 0
v -1760 -160 0
v -1760 -144 0
v -1744 -144 0
v -1760 -160 0
v -1776 -160 0
v -1776 -144 0
v -1760 -144 0
v -2336 -160 0
v -2352 -160 0
v -2352 -144 0
v -2336 -144 0
v -2352 -160 0
v -2368 -160 0
v -2368 -144 0
v -2352 -144 0
v -1744 -176 0
v -1760 -176 0
v -1760 -160 0
v -1744 -160 0
v -1760 -176 0
v -1776 -176 0
v -1776 -160 0
v -1760 -160 0
v -2336 -176 0
v -2352 -176 0
v -2352 -160 0
v -2336 -160 0
v -2352 -176 0
v -2368 -176 0
v -2368 -160 0
v -2352 -160 0
v -1744 -192 0
v -1760 -192 0
v -1760 -176 0
v -1744 -176 0
v -1760 -192 0
v -1776 -192 0
v -1776 -176 0
v -1760 -176 0
v -2336 -192 0
v -2352 -192 0
v -2352 -176 0
v -2336 -176 0
v -2352 -192 0
v -2368 -192 0
v -2368 -176 0
v -2352 -176 0
v -1744 -208 0
v -1760 -208 0
v -1760 -192 0
v -1744 -192 0
v -1760 -208 0
v -1776 -208 0
v -1776 -192 0
v -1760 -192 0
v -2336 -208 0
v -2352 -208 0
v -2352 -192 0
v -2336 -192 0
v -2352 -208 0
v -2368 -208 0
v -2368 -192 0
v -2352 -192 0
v -1744 -224 0
v -1760 -224 0
v -1760 -208 0
v -1744 -208 0
v -1760 -224 0
v -1776 -224 0
v -1776 -208 0
v -1760 -208 0
v -2336 -224 0
v -2352 -224 0
v -2352 -208 0
v -2336 -208 0
v -2352 -224 0
v -2368 -224 0
v -2368 -208 0
v -2352 -208 0
v -1744 -240 0
v -1760 -240 0
v -1760 -224 0
v -1744 -224 0
v -1760 -240 0
v -1776 -240 0
v -1776 -224 0
v -1760 -224 0
v -2336 -240 0
v -2352 -240 0
v -2352 -224 0
v -2336 -224 0
v -2352 -240 0
v -2368 -240 0
v -2368 -224 0
v -2352 -224 0
v -1728 -256 0
v -1744 -256 0
v -1744 -240 0
v -1728 -240 0
v -1744 -256 0
v -1760 -256 0
v -1760 -240 0
v -1744 -240 0
v -1760 -256 0
v -1776 -256 0
v -1776 -240 0
v -1760 -240 0
v -1776 -256 0
v -1792 -256 0
v -1792 -240 0
v -1776 -240 0
v -2320 -256 0
v -2336 -256 0
v -2336 -240 0
v -2320 -240 0
v -2368 -256 0
v -2384 -256 0
v -2384 -240 0
v -2368 -240 0
v -1712 -272 0
v -1728 -272 0
v -1728 -256 0
v -1712 -256 0
v -1728 -272 0
v -1744 -272 0
v -1744 -256 0
v -1728 -256 0
v -1776 -272 0
v -1792 -272 0
v -1792 -256 0
v -1776 -256 0
v -1792 -272 0
v -1808 -272 0
v -1808 -256 0
v -1792 -256 0
v -2304 -272 0
v -2320 -272 0
v -2320 -256 0
v -2304 -256 0
v -2320 -272 0
v -2336 -272 0
v -2336 -256 0
v -2320 -256 0
v -2368 -272 0
v -2384 -272 0
v -2384 -256 0
v -2368 -256 0
v -2384 -272 0
v -2400 -272 0
v -2400 -256 0
v -2384 -256 0

# Texture cooridinates (Count = 22)
vt 0.2 0.25
vt 0.3 0.25
vt 0.3 0.375
vt 0.2 0.375
vt 0.7 0.25
vt 0.8 0.25
vt 0.8 0.375
vt 0.7 0.375
vt 0.1 0.375
vt 0.2 0.5
vt 0.1 0.5
vt 0.7 0.125
vt 0.8 0.125
vt 0.9 0.375
vt 0.9 0.5
vt 0.8 0.5
vt 0.1 0.125
vt 0.2 0.125
vt 0.1 0.25
vt 0.3 0.125
vt 0.9 0.125
vt 0.9 0.25

# Normal
vn 0 0 -1

# Mesh description
g untitled1_mesh_0002

# Faces
f 1/1/1 2/2/1 3/3/1 4/4/1
f 5/5/1 6/6/1 7/7/1 8/8/1
f 9/9/1 10/4/1 11/10/1 12/11/1
f 13/12/1 14/13/1 15/6/1 16/5/1
f 17/12/1 18/13/1 19/6/1 20/5/1
f 21/7/1 22/14/1 23/15/1 24/16/1
f 25/1/1 26/2/1 27/3/1 28/4/1
f 29/5/1 30/6/1 31/7/1 32/8/1
f 33/9/1 34/4/1 35/10/1 36/11/1
f 37/7/1 38/14/1 39/15/1 40/16/1
f 41/1/1 42/2/1 43/3/1 44/4/1
f 45/5/1 46/6/1 47/7/1 48/8/1
f 49/17/1 50/18/1 51/1/1 52/19/1
f 53/12/1 54/13/1 55/6/1 56/5/1
f 57/7/1 58/14/1 59/15/1 60/16/1
f 61/1/1 62/2/1 63/3/1 64/4/1
f 65/5/1 66/6/1 67/7/1 68/8/1
f 69/17/1 70/18/1 71/1/1 72/19/1
f 73/12/1 74/13/1 75/6/1 76/5/1
f 77/7/1 78/14/1 79/15/1 80/16/1
f 81/1/1 82/2/1 83/3/1 84/4/1
f 85/5/1 86/6/1 87/7/1 88/8/1
f 89/1/1 90/2/1 91/3/1 92/4/1
f 93/5/1 94/6/1 95/7/1 96/8/1
f 97/1/1 98/2/1 99/3/1 100/4/1
f 101/5/1 102/6/1 103/7/1 104/8/1
f 105/1/1 106/2/1 107/3/1 108/4/1
f 109/5/1 110/6/1 111/7/1 112/8/1
f 113/1/1 114/2/1 115/3/1 116/4/1
f 117/5/1 118/6/1 119/7/1 120/8/1
f 121/1/1 122/2/1 123/3/1 124/4/1
f 125/5/1 126/6/1 127/7/1 128/8/1
f 129/1/1 130/2/1 131/3/1 132/4/1
f 133/5/1 134/6/1 135/7/1 136/8/1
f 137/1/1 138/2/1 139/3/1 140/4/1
f 141/5/1 142/6/1 143/7/1 144/8/1
f 145/1/1 146/2/1 147/3/1 148/4/1
f 149/5/1 150/6/1 151/7/1 152/8/1
f 153/1/1 154/2/1 155/3/1 156/4/1
f 157/5/1 158/6/1 159/7/1 160/8/1
f 161/1/1 162/2/1 163/3/1 164/4/1
f 165/5/1 166/6/1 167/7/1 168/8/1
f 169/1/1 170/2/1 171/3/1 172/4/1
f 173/5/1 174/6/1 175/7/1 176/8/1
f 177/1/1 178/2/1 179/3/1 180/4/1
f 181/5/1 182/6/1 183/7/1 184/8/1
f 185/1/1 186/2/1 187/3/1 188/4/1
f 189/5/1 190/6/1 191/7/1 192/8/1
f 193/1/1 194/2/1 195/3/1 196/4/1
f 197/5/1 198/6/1 199/7/1 200/8/1
f 201/1/1 202/2/1 203/3/1 204/4/1
f 205/5/1 206/6/1 207/7/1 208/8/1
f 209/1/1 210/2/1 211/3/1 212/4/1
f 213/5/1 214/6/1 215/7/1 216/8/1
f 217/1/1 218/2/1 219/3/1 220/4/1
f 221/5/1 222/6/1 223/7/1 224/8/1
f 225/1/1 226/2/1 227/3/1 228/4/1
f 229/5/1 230/6/1 231/7/1 232/8/1
f 233/1/1 234/2/1 235/3/1 236/4/1
f 237/5/1 238/6/1 239/7/1 240/8/1
f 241/1/1 242/2/1 243/3/1 244/4/1
f 245/5/1 246/6/1 247/7/1 248/8/1
f 249/1/1 250/2/1 251/3/1 252/4/1
f 253/5/1 254/6/1 255/7/1 256/8/1
f 257/17/1 258/18/1 259/1/1 260/19/1
f 261/18/1 262/20/1 263/2/1 264/1/1
f 265/12/1 266/13/1 267/6/1 268/5/1
f 269/13/1 270/21/1 271/22/1 272/6/1
f 273/17/1 274/18/1 275/1/1 276/19/1
f 277/13/1 278/21/1 279/22/1 280/6/1
f 281/17/1 282/18/1 283/1/1 284/19/1
f 285/18/1 286/20/1 287/2/1 288/1/1
f 289/12/1 290/13/1 291/6/1 292/5/1
f 293/13/1 294/21/1 295/22/1 296/6/1
f 297/17/1 298/18/1 299/1/1 300/19/1
f 301/18/1 302/20/1 303/2/1 304/1/1
f 305/12/1 306/13/1 307/6/1 308/5/1
f 309/13/1 310/21/1 311/22/1 312/6/1

