# Tiled2Unity generated file. Do not modify by hand.
# Wavefront file for 'map4_mesh_0011.obj'

# Vertices (Count = 24)
v -2480 -272 0
v -2496 -272 0
v -2496 -256 0
v -2480 -256 0
v -2496 -272 0
v -2512 -272 0
v -2512 -256 0
v -2496 -256 0
v -2480 -288 0
v -2496 -288 0
v -2496 -272 0
v -2480 -272 0
v -2496 -288 0
v -2512 -288 0
v -2512 -272 0
v -2496 -272 0
v -2480 -304 0
v -2496 -304 0
v -2496 -288 0
v -2480 -288 0
v -2496 -304 0
v -2512 -304 0
v -2512 -288 0
v -2496 -288 0

# Texture cooridinates (Count = 4)
vt 0.5416667 0.9166667
vt 0.5416667 0.8333333
vt 0.5833333 0.8333333
vt 0.5833333 0.9166667

# Normal
vn 0 0 -1

# Mesh description
g map4_mesh_0011

# Faces
f 1/1/1 2/2/1 3/3/1 4/4/1
f 5/1/1 6/2/1 7/3/1 8/4/1
f 9/1/1 10/2/1 11/3/1 12/4/1
f 13/1/1 14/2/1 15/3/1 16/4/1
f 17/1/1 18/2/1 19/3/1 20/4/1
f 21/1/1 22/2/1 23/3/1 24/4/1

