# Tiled2Unity generated file. Do not modify by hand.
# Wavefront file for 'map4_mesh_0007.obj'

# Vertices (Count = 64)
v -1360 -32 0
v -1376 -32 0
v -1376 -16 0
v -1360 -16 0
v -1376 -32 0
v -1392 -32 0
v -1392 -16 0
v -1376 -16 0
v -1504 -32 0
v -1520 -32 0
v -1520 -16 0
v -1504 -16 0
v -1520 -32 0
v -1536 -32 0
v -1536 -16 0
v -1520 -16 0
v -1360 -48 0
v -1376 -48 0
v -1376 -32 0
v -1360 -32 0
v -1376 -48 0
v -1392 -48 0
v -1392 -32 0
v -1376 -32 0
v -1488 -48 0
v -1504 -48 0
v -1504 -32 0
v -1488 -32 0
v -1504 -48 0
v -1520 -48 0
v -1520 -32 0
v -1504 -32 0
v -1520 -48 0
v -1536 -48 0
v -1536 -32 0
v -1520 -32 0
v -1360 -64 0
v -1376 -64 0
v -1376 -48 0
v -1360 -48 0
v -1376 -64 0
v -1392 -64 0
v -1392 -48 0
v -1376 -48 0
v -1488 -64 0
v -1504 -64 0
v -1504 -48 0
v -1488 -48 0
v -1504 -64 0
v -1520 -64 0
v -1520 -48 0
v -1504 -48 0
v -1520 -64 0
v -1536 -64 0
v -1536 -48 0
v -1520 -48 0
v -1488 -80 0
v -1504 -80 0
v -1504 -64 0
v -1488 -64 0
v -1504 -80 0
v -1520 -80 0
v -1520 -64 0
v -1504 -64 0

# Texture cooridinates (Count = 12)
vt 0 0.6981132
vt 0.4210526 0.6981132
vt 0.4210526 1
vt 0 1
vt 0.8421053 0.6981132
vt 0.8421053 1
vt 0 0.3962264
vt 0.4210526 0.3962264
vt 0.8421053 0.3962264
vt 0 0.09433961
vt 0.4210526 0.09433961
vt 0.8421053 0.09433961

# Normal
vn 0 0 -1

# Mesh description
g map4_mesh_0007

# Faces
f 1/1/1 2/2/1 3/3/1 4/4/1
f 5/2/1 6/5/1 7/6/1 8/3/1
f 9/1/1 10/2/1 11/3/1 12/4/1
f 13/2/1 14/5/1 15/6/1 16/3/1
f 17/7/1 18/8/1 19/2/1 20/1/1
f 21/8/1 22/9/1 23/5/1 24/2/1
f 25/1/1 26/2/1 27/3/1 28/4/1
f 29/2/1 30/5/1 31/6/1 32/3/1
f 33/8/1 34/9/1 35/5/1 36/2/1
f 37/10/1 38/11/1 39/8/1 40/7/1
f 41/11/1 42/12/1 43/9/1 44/8/1
f 45/7/1 46/8/1 47/2/1 48/1/1
f 49/8/1 50/9/1 51/5/1 52/2/1
f 53/11/1 54/12/1 55/9/1 56/8/1
f 57/10/1 58/11/1 59/8/1 60/7/1
f 61/11/1 62/12/1 63/9/1 64/8/1

