# Tiled2Unity generated file. Do not modify by hand.
# Wavefront file for 'map4_mesh_0015.obj'

# Vertices (Count = 704)
v -2000 -160 0
v -2016 -160 0
v -2016 -144 0
v -2000 -144 0
v -1856 -176 0
v -1872 -176 0
v -1872 -160 0
v -1856 -160 0
v -1936 -176 0
v -1952 -176 0
v -1952 -160 0
v -1936 -160 0
v -1952 -176 0
v -1968 -176 0
v -1968 -160 0
v -1952 -160 0
v -1968 -176 0
v -1984 -176 0
v -1984 -160 0
v -1968 -160 0
v -1984 -176 0
v -2000 -176 0
v -2000 -160 0
v -1984 -160 0
v -2000 -176 0
v -2016 -176 0
v -2016 -160 0
v -2000 -160 0
v -1232 -192 0
v -1248 -192 0
v -1248 -176 0
v -1232 -176 0
v -1232 -208 0
v -1248 -208 0
v -1248 -192 0
v -1232 -192 0
v -2416 -208 0
v -2432 -208 0
v -2432 -192 0
v -2416 -192 0
v -3616 -208 0
v -3632 -208 0
v -3632 -192 0
v -3616 -192 0
v -3632 -208 0
v -3648 -208 0
v -3648 -192 0
v -3632 -192 0
v -3648 -208 0
v -3664 -208 0
v -3664 -192 0
v -3648 -192 0
v -3664 -208 0
v -3680 -208 0
v -3680 -192 0
v -3664 -192 0
v -3680 -208 0
v -3696 -208 0
v -3696 -192 0
v -3680 -192 0
v -3696 -208 0
v -3712 -208 0
v -3712 -192 0
v -3696 -192 0
v -3712 -208 0
v -3728 -208 0
v -3728 -192 0
v -3712 -192 0
v -3728 -208 0
v -3744 -208 0
v -3744 -192 0
v -3728 -192 0
v -3792 -208 0
v -3808 -208 0
v -3808 -192 0
v -3792 -192 0
v -3808 -208 0
v -3824 -208 0
v -3824 -192 0
v -3808 -192 0
v -3824 -208 0
v -3840 -208 0
v -3840 -192 0
v -3824 -192 0
v -3840 -208 0
v -3856 -208 0
v -3856 -192 0
v -3840 -192 0
v -3856 -208 0
v -3872 -208 0
v -3872 -192 0
v -3856 -192 0
v -3872 -208 0
v -3888 -208 0
v -3888 -192 0
v -3872 -192 0
v -3888 -208 0
v -3904 -208 0
v -3904 -192 0
v -3888 -192 0
v -3904 -208 0
v -3920 -208 0
v -3920 -192 0
v -3904 -192 0
v -3920 -208 0
v -3936 -208 0
v -3936 -192 0
v -3920 -192 0
v -3936 -208 0
v -3952 -208 0
v -3952 -192 0
v -3936 -192 0
v -3952 -208 0
v -3968 -208 0
v -3968 -192 0
v -3952 -192 0
v -3968 -208 0
v -3984 -208 0
v -3984 -192 0
v -3968 -192 0
v -3984 -208 0
v -4000 -208 0
v -4000 -192 0
v -3984 -192 0
v -4000 -208 0
v -4016 -208 0
v -4016 -192 0
v -4000 -192 0
v -4016 -208 0
v -4032 -208 0
v -4032 -192 0
v -4016 -192 0
v -4032 -208 0
v -4048 -208 0
v -4048 -192 0
v -4032 -192 0
v -4048 -208 0
v -4064 -208 0
v -4064 -192 0
v -4048 -192 0
v -4064 -208 0
v -4080 -208 0
v -4080 -192 0
v -4064 -192 0
v -4080 -208 0
v -4096 -208 0
v -4096 -192 0
v -4080 -192 0
v -4096 -208 0
v -4112 -208 0
v -4112 -192 0
v -4096 -192 0
v -4112 -208 0
v -4128 -208 0
v -4128 -192 0
v -4112 -192 0
v -4128 -208 0
v -4144 -208 0
v -4144 -192 0
v -4128 -192 0
v -4144 -208 0
v -4160 -208 0
v -4160 -192 0
v -4144 -192 0
v -1232 -224 0
v -1248 -224 0
v -1248 -208 0
v -1232 -208 0
v -3824 -272 0
v -3840 -272 0
v -3840 -256 0
v -3824 -256 0
v -3840 -272 0
v -3856 -272 0
v -3856 -256 0
v -3840 -256 0
v -3856 -272 0
v -3872 -272 0
v -3872 -256 0
v -3856 -256 0
v -3872 -272 0
v -3888 -272 0
v -3888 -256 0
v -3872 -256 0
v -3888 -272 0
v -3904 -272 0
v -3904 -256 0
v -3888 -256 0
v -3904 -272 0
v -3920 -272 0
v -3920 -256 0
v -3904 -256 0
v -3920 -272 0
v -3936 -272 0
v -3936 -256 0
v -3920 -256 0
v -3936 -272 0
v -3952 -272 0
v -3952 -256 0
v -3936 -256 0
v -3952 -272 0
v -3968 -272 0
v -3968 -256 0
v -3952 -256 0
v -3968 -272 0
v -3984 -272 0
v -3984 -256 0
v -3968 -256 0
v -3984 -272 0
v -4000 -272 0
v -4000 -256 0
v -3984 -256 0
v -4000 -272 0
v -4016 -272 0
v -4016 -256 0
v -4000 -256 0
v -4016 -272 0
v -4032 -272 0
v -4032 -256 0
v -4016 -256 0
v -4032 -272 0
v -4048 -272 0
v -4048 -256 0
v -4032 -256 0
v -4048 -272 0
v -4064 -272 0
v -4064 -256 0
v -4048 -256 0
v -4064 -272 0
v -4080 -272 0
v -4080 -256 0
v -4064 -256 0
v -4080 -272 0
v -4096 -272 0
v -4096 -256 0
v -4080 -256 0
v -4096 -272 0
v -4112 -272 0
v -4112 -256 0
v -4096 -256 0
v -4112 -272 0
v -4128 -272 0
v -4128 -256 0
v -4112 -256 0
v -4128 -272 0
v -4144 -272 0
v -4144 -256 0
v -4128 -256 0
v -4144 -272 0
v -4160 -272 0
v -4160 -256 0
v -4144 -256 0
v -880 -288 0
v -896 -288 0
v -896 -272 0
v -880 -272 0
v -880 -304 0
v -896 -304 0
v -896 -288 0
v -880 -288 0
v -2592 -304 0
v -2608 -304 0
v -2608 -288 0
v -2592 -288 0
v -880 -320 0
v -896 -320 0
v -896 -304 0
v -880 -304 0
v -2592 -320 0
v -2608 -320 0
v -2608 -304 0
v -2592 -304 0
v -2016 -336 0
v -2032 -336 0
v -2032 -320 0
v -2016 -320 0
v -2032 -336 0
v -2048 -336 0
v -2048 -320 0
v -2032 -320 0
v -2048 -336 0
v -2064 -336 0
v -2064 -320 0
v -2048 -320 0
v -2064 -336 0
v -2080 -336 0
v -2080 -320 0
v -2064 -320 0
v -2128 -336 0
v -2144 -336 0
v -2144 -320 0
v -2128 -320 0
v -2144 -336 0
v -2160 -336 0
v -2160 -320 0
v -2144 -320 0
v -2160 -336 0
v -2176 -336 0
v -2176 -320 0
v -2160 -320 0
v -2176 -336 0
v -2192 -336 0
v -2192 -320 0
v -2176 -320 0
v -2192 -336 0
v -2208 -336 0
v -2208 -320 0
v -2192 -320 0
v -2208 -336 0
v -2224 -336 0
v -2224 -320 0
v -2208 -320 0
v -2224 -336 0
v -2240 -336 0
v -2240 -320 0
v -2224 -320 0
v -2240 -336 0
v -2256 -336 0
v -2256 -320 0
v -2240 -320 0
v -2256 -336 0
v -2272 -336 0
v -2272 -320 0
v -2256 -320 0
v -2272 -336 0
v -2288 -336 0
v -2288 -320 0
v -2272 -320 0
v -2288 -336 0
v -2304 -336 0
v -2304 -320 0
v -2288 -320 0
v -2304 -336 0
v -2320 -336 0
v -2320 -320 0
v -2304 -320 0
v -2320 -336 0
v -2336 -336 0
v -2336 -320 0
v -2320 -320 0
v -2608 -336 0
v -2624 -336 0
v -2624 -320 0
v -2608 -320 0
v -2624 -336 0
v -2640 -336 0
v -2640 -320 0
v -2624 -320 0
v -2640 -336 0
v -2656 -336 0
v -2656 -320 0
v -2640 -320 0
v -2656 -336 0
v -2672 -336 0
v -2672 -320 0
v -2656 -320 0
v -2672 -336 0
v -2688 -336 0
v -2688 -320 0
v -2672 -320 0
v -2688 -336 0
v -2704 -336 0
v -2704 -320 0
v -2688 -320 0
v -2704 -336 0
v -2720 -336 0
v -2720 -320 0
v -2704 -320 0
v -2720 -336 0
v -2736 -336 0
v -2736 -320 0
v -2720 -320 0
v -2736 -336 0
v -2752 -336 0
v -2752 -320 0
v -2736 -320 0
v -2752 -336 0
v -2768 -336 0
v -2768 -320 0
v -2752 -320 0
v -2768 -336 0
v -2784 -336 0
v -2784 -320 0
v -2768 -320 0
v -2784 -336 0
v -2800 -336 0
v -2800 -320 0
v -2784 -320 0
v -2800 -336 0
v -2816 -336 0
v -2816 -320 0
v -2800 -320 0
v -2816 -336 0
v -2832 -336 0
v -2832 -320 0
v -2816 -320 0
v -2832 -336 0
v -2848 -336 0
v -2848 -320 0
v -2832 -320 0
v -2848 -336 0
v -2864 -336 0
v -2864 -320 0
v -2848 -320 0
v -2864 -336 0
v -2880 -336 0
v -2880 -320 0
v -2864 -320 0
v -2880 -336 0
v -2896 -336 0
v -2896 -320 0
v -2880 -320 0
v -2896 -336 0
v -2912 -336 0
v -2912 -320 0
v -2896 -320 0
v -2912 -336 0
v -2928 -336 0
v -2928 -320 0
v -2912 -320 0
v -2928 -336 0
v -2944 -336 0
v -2944 -320 0
v -2928 -320 0
v -2944 -336 0
v -2960 -336 0
v -2960 -320 0
v -2944 -320 0
v -2960 -336 0
v -2976 -336 0
v -2976 -320 0
v -2960 -320 0
v -2976 -336 0
v -2992 -336 0
v -2992 -320 0
v -2976 -320 0
v -2992 -336 0
v -3008 -336 0
v -3008 -320 0
v -2992 -320 0
v -3008 -336 0
v -3024 -336 0
v -3024 -320 0
v -3008 -320 0
v -3024 -336 0
v -3040 -336 0
v -3040 -320 0
v -3024 -320 0
v -3040 -336 0
v -3056 -336 0
v -3056 -320 0
v -3040 -320 0
v -3056 -336 0
v -3072 -336 0
v -3072 -320 0
v -3056 -320 0
v -3072 -336 0
v -3088 -336 0
v -3088 -320 0
v -3072 -320 0
v -3088 -336 0
v -3104 -336 0
v -3104 -320 0
v -3088 -320 0
v -3104 -336 0
v -3120 -336 0
v -3120 -320 0
v -3104 -320 0
v -3120 -336 0
v -3136 -336 0
v -3136 -320 0
v -3120 -320 0
v -3136 -336 0
v -3152 -336 0
v -3152 -320 0
v -3136 -320 0
v -3152 -336 0
v -3168 -336 0
v -3168 -320 0
v -3152 -320 0
v -3168 -336 0
v -3184 -336 0
v -3184 -320 0
v -3168 -320 0
v -3184 -336 0
v -3200 -336 0
v -3200 -320 0
v -3184 -320 0
v -3200 -336 0
v -3216 -336 0
v -3216 -320 0
v -3200 -320 0
v -3216 -336 0
v -3232 -336 0
v -3232 -320 0
v -3216 -320 0
v -3232 -336 0
v -3248 -336 0
v -3248 -320 0
v -3232 -320 0
v -3248 -336 0
v -3264 -336 0
v -3264 -320 0
v -3248 -320 0
v -3264 -336 0
v -3280 -336 0
v -3280 -320 0
v -3264 -320 0
v -3280 -336 0
v -3296 -336 0
v -3296 -320 0
v -3280 -320 0
v -3296 -336 0
v -3312 -336 0
v -3312 -320 0
v -3296 -320 0
v -3312 -336 0
v -3328 -336 0
v -3328 -320 0
v -3312 -320 0
v -3328 -336 0
v -3344 -336 0
v -3344 -320 0
v -3328 -320 0
v -3344 -336 0
v -3360 -336 0
v -3360 -320 0
v -3344 -320 0
v -3360 -336 0
v -3376 -336 0
v -3376 -320 0
v -3360 -320 0
v -3376 -336 0
v -3392 -336 0
v -3392 -320 0
v -3376 -320 0
v -3392 -336 0
v -3408 -336 0
v -3408 -320 0
v -3392 -320 0
v -3456 -336 0
v -3472 -336 0
v -3472 -320 0
v -3456 -320 0
v -3472 -336 0
v -3488 -336 0
v -3488 -320 0
v -3472 -320 0
v -3488 -336 0
v -3504 -336 0
v -3504 -320 0
v -3488 -320 0
v -3504 -336 0
v -3520 -336 0
v -3520 -320 0
v -3504 -320 0
v -3520 -336 0
v -3536 -336 0
v -3536 -320 0
v -3520 -320 0
v -3536 -336 0
v -3552 -336 0
v -3552 -320 0
v -3536 -320 0
v -3552 -336 0
v -3568 -336 0
v -3568 -320 0
v -3552 -320 0
v -3568 -336 0
v -3584 -336 0
v -3584 -320 0
v -3568 -320 0
v -3584 -336 0
v -3600 -336 0
v -3600 -320 0
v -3584 -320 0
v -3600 -336 0
v -3616 -336 0
v -3616 -320 0
v -3600 -320 0
v -3616 -336 0
v -3632 -336 0
v -3632 -320 0
v -3616 -320 0
v -3632 -336 0
v -3648 -336 0
v -3648 -320 0
v -3632 -320 0
v -3648 -336 0
v -3664 -336 0
v -3664 -320 0
v -3648 -320 0
v -3664 -336 0
v -3680 -336 0
v -3680 -320 0
v -3664 -320 0
v -3680 -336 0
v -3696 -336 0
v -3696 -320 0
v -3680 -320 0
v -3696 -336 0
v -3712 -336 0
v -3712 -320 0
v -3696 -320 0
v -3712 -336 0
v -3728 -336 0
v -3728 -320 0
v -3712 -320 0
v -3728 -336 0
v -3744 -336 0
v -3744 -320 0
v -3728 -320 0
v -3792 -336 0
v -3808 -336 0
v -3808 -320 0
v -3792 -320 0
v -3808 -336 0
v -3824 -336 0
v -3824 -320 0
v -3808 -320 0
v -3824 -336 0
v -3840 -336 0
v -3840 -320 0
v -3824 -320 0
v -3840 -336 0
v -3856 -336 0
v -3856 -320 0
v -3840 -320 0
v -3856 -336 0
v -3872 -336 0
v -3872 -320 0
v -3856 -320 0
v -3872 -336 0
v -3888 -336 0
v -3888 -320 0
v -3872 -320 0
v -3888 -336 0
v -3904 -336 0
v -3904 -320 0
v -3888 -320 0
v -3904 -336 0
v -3920 -336 0
v -3920 -320 0
v -3904 -320 0
v -3920 -336 0
v -3936 -336 0
v -3936 -320 0
v -3920 -320 0
v -3936 -336 0
v -3952 -336 0
v -3952 -320 0
v -3936 -320 0
v -3952 -336 0
v -3968 -336 0
v -3968 -320 0
v -3952 -320 0
v -3968 -336 0
v -3984 -336 0
v -3984 -320 0
v -3968 -320 0
v -3984 -336 0
v -4000 -336 0
v -4000 -320 0
v -3984 -320 0
v -4000 -336 0
v -4016 -336 0
v -4016 -320 0
v -4000 -320 0
v -4016 -336 0
v -4032 -336 0
v -4032 -320 0
v -4016 -320 0
v -4032 -336 0
v -4048 -336 0
v -4048 -320 0
v -4032 -320 0
v -4048 -336 0
v -4064 -336 0
v -4064 -320 0
v -4048 -320 0
v -4064 -336 0
v -4080 -336 0
v -4080 -320 0
v -4064 -320 0
v -4080 -336 0
v -4096 -336 0
v -4096 -320 0
v -4080 -320 0
v -4096 -336 0
v -4112 -336 0
v -4112 -320 0
v -4096 -320 0
v -4112 -336 0
v -4128 -336 0
v -4128 -320 0
v -4112 -320 0
v -4128 -336 0
v -4144 -336 0
v -4144 -320 0
v -4128 -320 0
v -4144 -336 0
v -4160 -336 0
v -4160 -320 0
v -4144 -320 0

# Texture cooridinates (Count = 43)
vt 0.3333333 0.4166667
vt 0.375 0.4166667
vt 0.375 0.5
vt 0.3333333 0.5
vt 0.125 0.3333333
vt 0.1666667 0.3333333
vt 0.1666667 0.4166667
vt 0.125 0.4166667
vt 0.4166667 0.3333333
vt 0.4583333 0.3333333
vt 0.4583333 0.4166667
vt 0.4166667 0.4166667
vt 0.5 0.3333333
vt 0.5 0.4166667
vt 0.75 0.25
vt 0.7916667 0.25
vt 0.7916667 0.3333333
vt 0.75 0.3333333
vt 0.75 0.1666667
vt 0.7916667 0.1666667
vt 0.1666667 0.8333333
vt 0.2083333 0.8333333
vt 0.2083333 0.9166667
vt 0.1666667 0.9166667
vt 0.25 0.9166667
vt 0.25 0.8333333
vt 0.75 0.08333331
vt 0.7916667 0.08333331
vt 0.6666667 0.3333333
vt 0.7083333 0.3333333
vt 0.7083333 0.4166667
vt 0.6666667 0.4166667
vt 0.9166667 0.5833334
vt 0.9583333 0.5833334
vt 0.9583333 0.6666666
vt 0.9166667 0.6666666
vt 0.625 0.25
vt 0.6666667 0.25
vt 0.625 0.3333333
vt 0.5416667 0.9166667
vt 0.5416667 0.8333333
vt 0.5833333 0.8333333
vt 0.5833333 0.9166667

# Normal
vn 0 0 -1

# Mesh description
g map4_mesh_0015

# Faces
f 1/1/1 2/2/1 3/3/1 4/4/1
f 5/5/1 6/6/1 7/7/1 8/8/1
f 9/9/1 10/10/1 11/11/1 12/12/1
f 13/10/1 14/13/1 15/14/1 16/11/1
f 17/9/1 18/10/1 19/11/1 20/12/1
f 21/9/1 22/10/1 23/11/1 24/12/1
f 25/10/1 26/13/1 27/14/1 28/11/1
f 29/15/1 30/16/1 31/17/1 32/18/1
f 33/19/1 34/20/1 35/16/1 36/15/1
f 37/21/1 38/22/1 39/23/1 40/24/1
f 41/25/1 42/23/1 43/22/1 44/26/1
f 45/25/1 46/23/1 47/22/1 48/26/1
f 49/25/1 50/23/1 51/22/1 52/26/1
f 53/25/1 54/23/1 55/22/1 56/26/1
f 57/25/1 58/23/1 59/22/1 60/26/1
f 61/25/1 62/23/1 63/22/1 64/26/1
f 65/25/1 66/23/1 67/22/1 68/26/1
f 69/25/1 70/23/1 71/22/1 72/26/1
f 73/25/1 74/23/1 75/22/1 76/26/1
f 77/25/1 78/23/1 79/22/1 80/26/1
f 81/25/1 82/23/1 83/22/1 84/26/1
f 85/25/1 86/23/1 87/22/1 88/26/1
f 89/25/1 90/23/1 91/22/1 92/26/1
f 93/25/1 94/23/1 95/22/1 96/26/1
f 97/25/1 98/23/1 99/22/1 100/26/1
f 101/25/1 102/23/1 103/22/1 104/26/1
f 105/25/1 106/23/1 107/22/1 108/26/1
f 109/25/1 110/23/1 111/22/1 112/26/1
f 113/25/1 114/23/1 115/22/1 116/26/1
f 117/25/1 118/23/1 119/22/1 120/26/1
f 121/25/1 122/23/1 123/22/1 124/26/1
f 125/25/1 126/23/1 127/22/1 128/26/1
f 129/25/1 130/23/1 131/22/1 132/26/1
f 133/25/1 134/23/1 135/22/1 136/26/1
f 137/25/1 138/23/1 139/22/1 140/26/1
f 141/25/1 142/23/1 143/22/1 144/26/1
f 145/25/1 146/23/1 147/22/1 148/26/1
f 149/25/1 150/23/1 151/22/1 152/26/1
f 153/25/1 154/23/1 155/22/1 156/26/1
f 157/25/1 158/23/1 159/22/1 160/26/1
f 161/25/1 162/23/1 163/22/1 164/26/1
f 165/27/1 166/28/1 167/20/1 168/19/1
f 169/22/1 170/26/1 171/25/1 172/23/1
f 173/22/1 174/26/1 175/25/1 176/23/1
f 177/22/1 178/26/1 179/25/1 180/23/1
f 181/22/1 182/26/1 183/25/1 184/23/1
f 185/22/1 186/26/1 187/25/1 188/23/1
f 189/22/1 190/26/1 191/25/1 192/23/1
f 193/22/1 194/26/1 195/25/1 196/23/1
f 197/22/1 198/26/1 199/25/1 200/23/1
f 201/22/1 202/26/1 203/25/1 204/23/1
f 205/22/1 206/26/1 207/25/1 208/23/1
f 209/22/1 210/26/1 211/25/1 212/23/1
f 213/22/1 214/26/1 215/25/1 216/23/1
f 217/22/1 218/26/1 219/25/1 220/23/1
f 221/22/1 222/26/1 223/25/1 224/23/1
f 225/22/1 226/26/1 227/25/1 228/23/1
f 229/22/1 230/26/1 231/25/1 232/23/1
f 233/22/1 234/26/1 235/25/1 236/23/1
f 237/22/1 238/26/1 239/25/1 240/23/1
f 241/22/1 242/26/1 243/25/1 244/23/1
f 245/22/1 246/26/1 247/25/1 248/23/1
f 249/22/1 250/26/1 251/25/1 252/23/1
f 253/15/1 254/16/1 255/17/1 256/18/1
f 257/19/1 258/20/1 259/16/1 260/15/1
f 261/29/1 262/30/1 263/31/1 264/32/1
f 265/27/1 266/28/1 267/20/1 268/19/1
f 269/29/1 270/30/1 271/31/1 272/32/1
f 273/33/1 274/34/1 275/35/1 276/36/1
f 277/33/1 278/34/1 279/35/1 280/36/1
f 281/33/1 282/34/1 283/35/1 284/36/1
f 285/33/1 286/34/1 287/35/1 288/36/1
f 289/33/1 290/34/1 291/35/1 292/36/1
f 293/33/1 294/34/1 295/35/1 296/36/1
f 297/33/1 298/34/1 299/35/1 300/36/1
f 301/33/1 302/34/1 303/35/1 304/36/1
f 305/33/1 306/34/1 307/35/1 308/36/1
f 309/37/1 310/38/1 311/29/1 312/39/1
f 313/37/1 314/38/1 315/29/1 316/39/1
f 317/37/1 318/38/1 319/29/1 320/39/1
f 321/37/1 322/38/1 323/29/1 324/39/1
f 325/33/1 326/34/1 327/35/1 328/36/1
f 329/33/1 330/34/1 331/35/1 332/36/1
f 333/33/1 334/34/1 335/35/1 336/36/1
f 337/33/1 338/34/1 339/35/1 340/36/1
f 341/33/1 342/34/1 343/35/1 344/36/1
f 345/33/1 346/34/1 347/35/1 348/36/1
f 349/33/1 350/34/1 351/35/1 352/36/1
f 353/33/1 354/34/1 355/35/1 356/36/1
f 357/33/1 358/34/1 359/35/1 360/36/1
f 361/40/1 362/41/1 363/42/1 364/43/1
f 365/40/1 366/41/1 367/42/1 368/43/1
f 369/33/1 370/34/1 371/35/1 372/36/1
f 373/33/1 374/34/1 375/35/1 376/36/1
f 377/33/1 378/34/1 379/35/1 380/36/1
f 381/33/1 382/34/1 383/35/1 384/36/1
f 385/33/1 386/34/1 387/35/1 388/36/1
f 389/33/1 390/34/1 391/35/1 392/36/1
f 393/33/1 394/34/1 395/35/1 396/36/1
f 397/33/1 398/34/1 399/35/1 400/36/1
f 401/33/1 402/34/1 403/35/1 404/36/1
f 405/33/1 406/34/1 407/35/1 408/36/1
f 409/33/1 410/34/1 411/35/1 412/36/1
f 413/33/1 414/34/1 415/35/1 416/36/1
f 417/40/1 418/41/1 419/42/1 420/43/1
f 421/40/1 422/41/1 423/42/1 424/43/1
f 425/33/1 426/34/1 427/35/1 428/36/1
f 429/33/1 430/34/1 431/35/1 432/36/1
f 433/33/1 434/34/1 435/35/1 436/36/1
f 437/33/1 438/34/1 439/35/1 440/36/1
f 441/33/1 442/34/1 443/35/1 444/36/1
f 445/33/1 446/34/1 447/35/1 448/36/1
f 449/33/1 450/34/1 451/35/1 452/36/1
f 453/33/1 454/34/1 455/35/1 456/36/1
f 457/33/1 458/34/1 459/35/1 460/36/1
f 461/33/1 462/34/1 463/35/1 464/36/1
f 465/40/1 466/41/1 467/42/1 468/43/1
f 469/40/1 470/41/1 471/42/1 472/43/1
f 473/33/1 474/34/1 475/35/1 476/36/1
f 477/33/1 478/34/1 479/35/1 480/36/1
f 481/33/1 482/34/1 483/35/1 484/36/1
f 485/33/1 486/34/1 487/35/1 488/36/1
f 489/33/1 490/34/1 491/35/1 492/36/1
f 493/33/1 494/34/1 495/35/1 496/36/1
f 497/33/1 498/34/1 499/35/1 500/36/1
f 501/33/1 502/34/1 503/35/1 504/36/1
f 505/33/1 506/34/1 507/35/1 508/36/1
f 509/33/1 510/34/1 511/35/1 512/36/1
f 513/33/1 514/34/1 515/35/1 516/36/1
f 517/33/1 518/34/1 519/35/1 520/36/1
f 521/33/1 522/34/1 523/35/1 524/36/1
f 525/33/1 526/34/1 527/35/1 528/36/1
f 529/33/1 530/34/1 531/35/1 532/36/1
f 533/33/1 534/34/1 535/35/1 536/36/1
f 537/33/1 538/34/1 539/35/1 540/36/1
f 541/33/1 542/34/1 543/35/1 544/36/1
f 545/33/1 546/34/1 547/35/1 548/36/1
f 549/33/1 550/34/1 551/35/1 552/36/1
f 553/33/1 554/34/1 555/35/1 556/36/1
f 557/33/1 558/34/1 559/35/1 560/36/1
f 561/33/1 562/34/1 563/35/1 564/36/1
f 565/33/1 566/34/1 567/35/1 568/36/1
f 569/33/1 570/34/1 571/35/1 572/36/1
f 573/33/1 574/34/1 575/35/1 576/36/1
f 577/33/1 578/34/1 579/35/1 580/36/1
f 581/33/1 582/34/1 583/35/1 584/36/1
f 585/33/1 586/34/1 587/35/1 588/36/1
f 589/33/1 590/34/1 591/35/1 592/36/1
f 593/33/1 594/34/1 595/35/1 596/36/1
f 597/33/1 598/34/1 599/35/1 600/36/1
f 601/33/1 602/34/1 603/35/1 604/36/1
f 605/33/1 606/34/1 607/35/1 608/36/1
f 609/33/1 610/34/1 611/35/1 612/36/1
f 613/33/1 614/34/1 615/35/1 616/36/1
f 617/33/1 618/34/1 619/35/1 620/36/1
f 621/33/1 622/34/1 623/35/1 624/36/1
f 625/33/1 626/34/1 627/35/1 628/36/1
f 629/33/1 630/34/1 631/35/1 632/36/1
f 633/33/1 634/34/1 635/35/1 636/36/1
f 637/33/1 638/34/1 639/35/1 640/36/1
f 641/33/1 642/34/1 643/35/1 644/36/1
f 645/33/1 646/34/1 647/35/1 648/36/1
f 649/33/1 650/34/1 651/35/1 652/36/1
f 653/33/1 654/34/1 655/35/1 656/36/1
f 657/33/1 658/34/1 659/35/1 660/36/1
f 661/33/1 662/34/1 663/35/1 664/36/1
f 665/33/1 666/34/1 667/35/1 668/36/1
f 669/33/1 670/34/1 671/35/1 672/36/1
f 673/33/1 674/34/1 675/35/1 676/36/1
f 677/33/1 678/34/1 679/35/1 680/36/1
f 681/33/1 682/34/1 683/35/1 684/36/1
f 685/33/1 686/34/1 687/35/1 688/36/1
f 689/33/1 690/34/1 691/35/1 692/36/1
f 693/33/1 694/34/1 695/35/1 696/36/1
f 697/33/1 698/34/1 699/35/1 700/36/1
f 701/33/1 702/34/1 703/35/1 704/36/1

