# Tiled2Unity generated file. Do not modify by hand.
# Wavefront file for 'untitled_mesh_0009.obj'

# Vertices (Count = 848)
v -944 -16 0
v -960 -16 0
v -960 0 0
v -944 0 0
v -1040 -16 0
v -1056 -16 0
v -1056 0 0
v -1040 0 0
v -1056 -16 0
v -1072 -16 0
v -1072 0 0
v -1056 0 0
v -1648 -16 0
v -1664 -16 0
v -1664 0 0
v -1648 0 0
v -1696 -16 0
v -1712 -16 0
v -1712 0 0
v -1696 0 0
v -1712 -16 0
v -1728 -16 0
v -1728 0 0
v -1712 0 0
v -1760 -16 0
v -1776 -16 0
v -1776 0 0
v -1760 0 0
v -1776 -16 0
v -1792 -16 0
v -1792 0 0
v -1776 0 0
v -1984 -16 0
v -2000 -16 0
v -2000 0 0
v -1984 0 0
v -2000 -16 0
v -2016 -16 0
v -2016 0 0
v -2000 0 0
v -2448 -16 0
v -2464 -16 0
v -2464 0 0
v -2448 0 0
v -2464 -16 0
v -2480 -16 0
v -2480 0 0
v -2464 0 0
v -2480 -16 0
v -2496 -16 0
v -2496 0 0
v -2480 0 0
v -944 -32 0
v -960 -32 0
v -960 -16 0
v -944 -16 0
v -1040 -32 0
v -1056 -32 0
v -1056 -16 0
v -1040 -16 0
v -1056 -32 0
v -1072 -32 0
v -1072 -16 0
v -1056 -16 0
v -1648 -32 0
v -1664 -32 0
v -1664 -16 0
v -1648 -16 0
v -1696 -32 0
v -1712 -32 0
v -1712 -16 0
v -1696 -16 0
v -1712 -32 0
v -1728 -32 0
v -1728 -16 0
v -1712 -16 0
v -1760 -32 0
v -1776 -32 0
v -1776 -16 0
v -1760 -16 0
v -1776 -32 0
v -1792 -32 0
v -1792 -16 0
v -1776 -16 0
v -1840 -32 0
v -1856 -32 0
v -1856 -16 0
v -1840 -16 0
v -1936 -32 0
v -1952 -32 0
v -1952 -16 0
v -1936 -16 0
v -1952 -32 0
v -1968 -32 0
v -1968 -16 0
v -1952 -16 0
v -1968 -32 0
v -1984 -32 0
v -1984 -16 0
v -1968 -16 0
v -1984 -32 0
v -2000 -32 0
v -2000 -16 0
v -1984 -16 0
v -2480 -32 0
v -2496 -32 0
v -2496 -16 0
v -2480 -16 0
v -944 -48 0
v -960 -48 0
v -960 -32 0
v -944 -32 0
v -1760 -48 0
v -1776 -48 0
v -1776 -32 0
v -1760 -32 0
v -1776 -48 0
v -1792 -48 0
v -1792 -32 0
v -1776 -32 0
v -1840 -48 0
v -1856 -48 0
v -1856 -32 0
v -1840 -32 0
v -1936 -48 0
v -1952 -48 0
v -1952 -32 0
v -1936 -32 0
v -1952 -48 0
v -1968 -48 0
v -1968 -32 0
v -1952 -32 0
v -2480 -48 0
v -2496 -48 0
v -2496 -32 0
v -2480 -32 0
v -1536 -64 0
v -1552 -64 0
v -1552 -48 0
v -1536 -48 0
v -1648 -64 0
v -1664 -64 0
v -1664 -48 0
v -1648 -48 0
v -1664 -64 0
v -1680 -64 0
v -1680 -48 0
v -1664 -48 0
v -1760 -64 0
v -1776 -64 0
v -1776 -48 0
v -1760 -48 0
v -1776 -64 0
v -1792 -64 0
v -1792 -48 0
v -1776 -48 0
v -2288 -64 0
v -2304 -64 0
v -2304 -48 0
v -2288 -48 0
v -2304 -64 0
v -2320 -64 0
v -2320 -48 0
v -2304 -48 0
v -2320 -64 0
v -2336 -64 0
v -2336 -48 0
v -2320 -48 0
v -2336 -64 0
v -2352 -64 0
v -2352 -48 0
v -2336 -48 0
v -2352 -64 0
v -2368 -64 0
v -2368 -48 0
v -2352 -48 0
v -2368 -64 0
v -2384 -64 0
v -2384 -48 0
v -2368 -48 0
v -2384 -64 0
v -2400 -64 0
v -2400 -48 0
v -2384 -48 0
v -2400 -64 0
v -2416 -64 0
v -2416 -48 0
v -2400 -48 0
v -2416 -64 0
v -2432 -64 0
v -2432 -48 0
v -2416 -48 0
v -2480 -64 0
v -2496 -64 0
v -2496 -48 0
v -2480 -48 0
v -1536 -80 0
v -1552 -80 0
v -1552 -64 0
v -1536 -64 0
v -1648 -80 0
v -1664 -80 0
v -1664 -64 0
v -1648 -64 0
v -1664 -80 0
v -1680 -80 0
v -1680 -64 0
v -1664 -64 0
v -1728 -80 0
v -1744 -80 0
v -1744 -64 0
v -1728 -64 0
v -1744 -80 0
v -1760 -80 0
v -1760 -64 0
v -1744 -64 0
v -1760 -80 0
v -1776 -80 0
v -1776 -64 0
v -1760 -64 0
v -1776 -80 0
v -1792 -80 0
v -1792 -64 0
v -1776 -64 0
v -1872 -80 0
v -1888 -80 0
v -1888 -64 0
v -1872 -64 0
v -2256 -80 0
v -2272 -80 0
v -2272 -64 0
v -2256 -64 0
v -2272 -80 0
v -2288 -80 0
v -2288 -64 0
v -2272 -64 0
v -2288 -80 0
v -2304 -80 0
v -2304 -64 0
v -2288 -64 0
v -2304 -80 0
v -2320 -80 0
v -2320 -64 0
v -2304 -64 0
v -2320 -80 0
v -2336 -80 0
v -2336 -64 0
v -2320 -64 0
v -2336 -80 0
v -2352 -80 0
v -2352 -64 0
v -2336 -64 0
v -2352 -80 0
v -2368 -80 0
v -2368 -64 0
v -2352 -64 0
v -2368 -80 0
v -2384 -80 0
v -2384 -64 0
v -2368 -64 0
v -2384 -80 0
v -2400 -80 0
v -2400 -64 0
v -2384 -64 0
v -2400 -80 0
v -2416 -80 0
v -2416 -64 0
v -2400 -64 0
v -2416 -80 0
v -2432 -80 0
v -2432 -64 0
v -2416 -64 0
v -2432 -80 0
v -2448 -80 0
v -2448 -64 0
v -2432 -64 0
v -2480 -80 0
v -2496 -80 0
v -2496 -64 0
v -2480 -64 0
v -1856 -96 0
v -1872 -96 0
v -1872 -80 0
v -1856 -80 0
v -1872 -96 0
v -1888 -96 0
v -1888 -80 0
v -1872 -80 0
v -1888 -96 0
v -1904 -96 0
v -1904 -80 0
v -1888 -80 0
v -1904 -96 0
v -1920 -96 0
v -1920 -80 0
v -1904 -80 0
v -2256 -96 0
v -2272 -96 0
v -2272 -80 0
v -2256 -80 0
v -2272 -96 0
v -2288 -96 0
v -2288 -80 0
v -2272 -80 0
v -1072 -112 0
v -1088 -112 0
v -1088 -96 0
v -1072 -96 0
v -1088 -112 0
v -1104 -112 0
v -1104 -96 0
v -1088 -96 0
v -1856 -112 0
v -1872 -112 0
v -1872 -96 0
v -1856 -96 0
v -1872 -112 0
v -1888 -112 0
v -1888 -96 0
v -1872 -96 0
v -1888 -112 0
v -1904 -112 0
v -1904 -96 0
v -1888 -96 0
v -1904 -112 0
v -1920 -112 0
v -1920 -96 0
v -1904 -96 0
v -2256 -112 0
v -2272 -112 0
v -2272 -96 0
v -2256 -96 0
v -2272 -112 0
v -2288 -112 0
v -2288 -96 0
v -2272 -96 0
v -1072 -128 0
v -1088 -128 0
v -1088 -112 0
v -1072 -112 0
v -1088 -128 0
v -1104 -128 0
v -1104 -112 0
v -1088 -112 0
v -1424 -128 0
v -1440 -128 0
v -1440 -112 0
v -1424 -112 0
v -1440 -128 0
v -1456 -128 0
v -1456 -112 0
v -1440 -112 0
v -1856 -128 0
v -1872 -128 0
v -1872 -112 0
v -1856 -112 0
v -1872 -128 0
v -1888 -128 0
v -1888 -112 0
v -1872 -112 0
v -1888 -128 0
v -1904 -128 0
v -1904 -112 0
v -1888 -112 0
v -2256 -128 0
v -2272 -128 0
v -2272 -112 0
v -2256 -112 0
v -2272 -128 0
v -2288 -128 0
v -2288 -112 0
v -2272 -112 0
v -1424 -144 0
v -1440 -144 0
v -1440 -128 0
v -1424 -128 0
v -1440 -144 0
v -1456 -144 0
v -1456 -128 0
v -1440 -128 0
v -1808 -144 0
v -1824 -144 0
v -1824 -128 0
v -1808 -128 0
v -1824 -144 0
v -1840 -144 0
v -1840 -128 0
v -1824 -128 0
v -1856 -144 0
v -1872 -144 0
v -1872 -128 0
v -1856 -128 0
v -1872 -144 0
v -1888 -144 0
v -1888 -128 0
v -1872 -128 0
v -1888 -144 0
v -1904 -144 0
v -1904 -128 0
v -1888 -128 0
v -1904 -144 0
v -1920 -144 0
v -1920 -128 0
v -1904 -128 0
v -1920 -144 0
v -1936 -144 0
v -1936 -128 0
v -1920 -128 0
v -1936 -144 0
v -1952 -144 0
v -1952 -128 0
v -1936 -128 0
v -2160 -144 0
v -2176 -144 0
v -2176 -128 0
v -2160 -128 0
v -2176 -144 0
v -2192 -144 0
v -2192 -128 0
v -2176 -128 0
v -2192 -144 0
v -2208 -144 0
v -2208 -128 0
v -2192 -128 0
v -2208 -144 0
v -2224 -144 0
v -2224 -128 0
v -2208 -128 0
v -2224 -144 0
v -2240 -144 0
v -2240 -128 0
v -2224 -128 0
v -2240 -144 0
v -2256 -144 0
v -2256 -128 0
v -2240 -128 0
v -2256 -144 0
v -2272 -144 0
v -2272 -128 0
v -2256 -128 0
v -2272 -144 0
v -2288 -144 0
v -2288 -128 0
v -2272 -128 0
v -1648 -160 0
v -1664 -160 0
v -1664 -144 0
v -1648 -144 0
v -1664 -160 0
v -1680 -160 0
v -1680 -144 0
v -1664 -144 0
v -1680 -160 0
v -1696 -160 0
v -1696 -144 0
v -1680 -144 0
v -1696 -160 0
v -1712 -160 0
v -1712 -144 0
v -1696 -144 0
v -1712 -160 0
v -1728 -160 0
v -1728 -144 0
v -1712 -144 0
v -1728 -160 0
v -1744 -160 0
v -1744 -144 0
v -1728 -144 0
v -1744 -160 0
v -1760 -160 0
v -1760 -144 0
v -1744 -144 0
v -1760 -160 0
v -1776 -160 0
v -1776 -144 0
v -1760 -144 0
v -1776 -160 0
v -1792 -160 0
v -1792 -144 0
v -1776 -144 0
v -1792 -160 0
v -1808 -160 0
v -1808 -144 0
v -1792 -144 0
v -1872 -160 0
v -1888 -160 0
v -1888 -144 0
v -1872 -144 0
v -1888 -160 0
v -1904 -160 0
v -1904 -144 0
v -1888 -144 0
v -1920 -160 0
v -1936 -160 0
v -1936 -144 0
v -1920 -144 0
v -1936 -160 0
v -1952 -160 0
v -1952 -144 0
v -1936 -144 0
v -2128 -160 0
v -2144 -160 0
v -2144 -144 0
v -2128 -144 0
v -2144 -160 0
v -2160 -160 0
v -2160 -144 0
v -2144 -144 0
v -2160 -160 0
v -2176 -160 0
v -2176 -144 0
v -2160 -144 0
v -2176 -160 0
v -2192 -160 0
v -2192 -144 0
v -2176 -144 0
v -2192 -160 0
v -2208 -160 0
v -2208 -144 0
v -2192 -144 0
v -2208 -160 0
v -2224 -160 0
v -2224 -144 0
v -2208 -144 0
v -2224 -160 0
v -2240 -160 0
v -2240 -144 0
v -2224 -144 0
v -2240 -160 0
v -2256 -160 0
v -2256 -144 0
v -2240 -144 0
v -2336 -160 0
v -2352 -160 0
v -2352 -144 0
v -2336 -144 0
v -1328 -176 0
v -1344 -176 0
v -1344 -160 0
v -1328 -160 0
v -1344 -176 0
v -1360 -176 0
v -1360 -160 0
v -1344 -160 0
v -1936 -176 0
v -1952 -176 0
v -1952 -160 0
v -1936 -160 0
v -2128 -176 0
v -2144 -176 0
v -2144 -160 0
v -2128 -160 0
v -2144 -176 0
v -2160 -176 0
v -2160 -160 0
v -2144 -160 0
v -2336 -176 0
v -2352 -176 0
v -2352 -160 0
v -2336 -160 0
v -2128 -192 0
v -2144 -192 0
v -2144 -176 0
v -2128 -176 0
v -2144 -192 0
v -2160 -192 0
v -2160 -176 0
v -2144 -176 0
v -1040 -208 0
v -1056 -208 0
v -1056 -192 0
v -1040 -192 0
v -1056 -208 0
v -1072 -208 0
v -1072 -192 0
v -1056 -192 0
v -1072 -208 0
v -1088 -208 0
v -1088 -192 0
v -1072 -192 0
v -1600 -208 0
v -1616 -208 0
v -1616 -192 0
v -1600 -192 0
v -1616 -208 0
v -1632 -208 0
v -1632 -192 0
v -1616 -192 0
v -1632 -208 0
v -1648 -208 0
v -1648 -192 0
v -1632 -192 0
v -1648 -208 0
v -1664 -208 0
v -1664 -192 0
v -1648 -192 0
v -2128 -208 0
v -2144 -208 0
v -2144 -192 0
v -2128 -192 0
v -2144 -208 0
v -2160 -208 0
v -2160 -192 0
v -2144 -192 0
v -1296 -224 0
v -1312 -224 0
v -1312 -208 0
v -1296 -208 0
v -1568 -224 0
v -1584 -224 0
v -1584 -208 0
v -1568 -208 0
v -1584 -224 0
v -1600 -224 0
v -1600 -208 0
v -1584 -208 0
v -1600 -224 0
v -1616 -224 0
v -1616 -208 0
v -1600 -208 0
v -1616 -224 0
v -1632 -224 0
v -1632 -208 0
v -1616 -208 0
v -1632 -224 0
v -1648 -224 0
v -1648 -208 0
v -1632 -208 0
v -1648 -224 0
v -1664 -224 0
v -1664 -208 0
v -1648 -208 0
v -1664 -224 0
v -1680 -224 0
v -1680 -208 0
v -1664 -208 0
v -1680 -224 0
v -1696 -224 0
v -1696 -208 0
v -1680 -208 0
v -1696 -224 0
v -1712 -224 0
v -1712 -208 0
v -1696 -208 0
v -2016 -224 0
v -2032 -224 0
v -2032 -208 0
v -2016 -208 0
v -2048 -224 0
v -2064 -224 0
v -2064 -208 0
v -2048 -208 0
v -2064 -224 0
v -2080 -224 0
v -2080 -208 0
v -2064 -208 0
v -2080 -224 0
v -2096 -224 0
v -2096 -208 0
v -2080 -208 0
v -2096 -224 0
v -2112 -224 0
v -2112 -208 0
v -2096 -208 0
v -2112 -224 0
v -2128 -224 0
v -2128 -208 0
v -2112 -208 0
v -2128 -224 0
v -2144 -224 0
v -2144 -208 0
v -2128 -208 0
v -2144 -224 0
v -2160 -224 0
v -2160 -208 0
v -2144 -208 0
v -1568 -240 0
v -1584 -240 0
v -1584 -224 0
v -1568 -224 0
v -1584 -240 0
v -1600 -240 0
v -1600 -224 0
v -1584 -224 0
v -1664 -240 0
v -1680 -240 0
v -1680 -224 0
v -1664 -224 0
v -1680 -240 0
v -1696 -240 0
v -1696 -224 0
v -1680 -224 0
v -2016 -240 0
v -2032 -240 0
v -2032 -224 0
v -2016 -224 0
v -2048 -240 0
v -2064 -240 0
v -2064 -224 0
v -2048 -224 0
v -2064 -240 0
v -2080 -240 0
v -2080 -224 0
v -2064 -224 0
v -2080 -240 0
v -2096 -240 0
v -2096 -224 0
v -2080 -224 0
v -2096 -240 0
v -2112 -240 0
v -2112 -224 0
v -2096 -224 0
v -2112 -240 0
v -2128 -240 0
v -2128 -224 0
v -2112 -224 0
v -2128 -240 0
v -2144 -240 0
v -2144 -224 0
v -2128 -224 0
v -1424 -272 0
v -1440 -272 0
v -1440 -256 0
v -1424 -256 0
v -1440 -272 0
v -1456 -272 0
v -1456 -256 0
v -1440 -256 0
v -1952 -272 0
v -1968 -272 0
v -1968 -256 0
v -1952 -256 0
v -1424 -288 0
v -1440 -288 0
v -1440 -272 0
v -1424 -272 0
v -1440 -288 0
v -1456 -288 0
v -1456 -272 0
v -1440 -272 0
v -1488 -288 0
v -1504 -288 0
v -1504 -272 0
v -1488 -272 0
v -1600 -288 0
v -1616 -288 0
v -1616 -272 0
v -1600 -272 0
v -1616 -288 0
v -1632 -288 0
v -1632 -272 0
v -1616 -272 0
v -1632 -288 0
v -1648 -288 0
v -1648 -272 0
v -1632 -272 0
v -1648 -288 0
v -1664 -288 0
v -1664 -272 0
v -1648 -272 0
v -1664 -288 0
v -1680 -288 0
v -1680 -272 0
v -1664 -272 0
v -1680 -288 0
v -1696 -288 0
v -1696 -272 0
v -1680 -272 0
v -1696 -288 0
v -1712 -288 0
v -1712 -272 0
v -1696 -272 0
v -1712 -288 0
v -1728 -288 0
v -1728 -272 0
v -1712 -272 0
v -1760 -288 0
v -1776 -288 0
v -1776 -272 0
v -1760 -272 0
v -1776 -288 0
v -1792 -288 0
v -1792 -272 0
v -1776 -272 0
v -1904 -288 0
v -1920 -288 0
v -1920 -272 0
v -1904 -272 0
v -1952 -288 0
v -1968 -288 0
v -1968 -272 0
v -1952 -272 0
v -1488 -304 0
v -1504 -304 0
v -1504 -288 0
v -1488 -288 0
v -1600 -304 0
v -1616 -304 0
v -1616 -288 0
v -1600 -288 0
v -1616 -304 0
v -1632 -304 0
v -1632 -288 0
v -1616 -288 0
v -1632 -304 0
v -1648 -304 0
v -1648 -288 0
v -1632 -288 0
v -1648 -304 0
v -1664 -304 0
v -1664 -288 0
v -1648 -288 0
v -1664 -304 0
v -1680 -304 0
v -1680 -288 0
v -1664 -288 0
v -1680 -304 0
v -1696 -304 0
v -1696 -288 0
v -1680 -288 0
v -1696 -304 0
v -1712 -304 0
v -1712 -288 0
v -1696 -288 0
v -1712 -304 0
v -1728 -304 0
v -1728 -288 0
v -1712 -288 0
v -1760 -304 0
v -1776 -304 0
v -1776 -288 0
v -1760 -288 0
v -1776 -304 0
v -1792 -304 0
v -1792 -288 0
v -1776 -288 0
v -1904 -304 0
v -1920 -304 0
v -1920 -288 0
v -1904 -288 0
v -1536 -320 0
v -1552 -320 0
v -1552 -304 0
v -1536 -304 0
v -1728 -320 0
v -1744 -320 0
v -1744 -304 0
v -1728 -304 0

# Texture cooridinates (Count = 163)
vt 0.08333334 0.3333333
vt 0.04166667 0.3333333
vt 0.04166667 0.25
vt 0.08333334 0.25
vt 0.2083333 0.4166667
vt 0.1666667 0.4166667
vt 0.1666667 0.3333333
vt 0.2083333 0.3333333
vt 0.125 0.4166667
vt 0.125 0.3333333
vt 0.3333333 0.6666666
vt 0.375 0.6666666
vt 0.375 0.75
vt 0.3333333 0.75
vt 0.4583333 0.5
vt 0.4583333 0.4166667
vt 0.5 0.4166667
vt 0.5 0.5
vt 0.4583333 0.3333333
vt 0.5 0.3333333
vt 0.5833333 0.6666666
vt 0.625 0.6666666
vt 0.625 0.75
vt 0.5833333 0.75
vt 0.6666667 0.5833334
vt 0.7083333 0.5833334
vt 0.7083333 0.6666666
vt 0.6666667 0.6666666
vt 0.75 0.5833334
vt 0.75 0.6666666
vt 0.5833333 0.3333333
vt 0.625 0.3333333
vt 0.625 0.4166667
vt 0.5833333 0.4166667
vt 0.08333334 0.4166667
vt 0.04166667 0.4166667
vt 0.2083333 0.5
vt 0.1666667 0.5
vt 0.125 0.5
vt 0.3333333 0.5833334
vt 0.375 0.5833334
vt 0.4166667 0.5
vt 0.4166667 0.4166667
vt 0.4166667 0.3333333
vt 0.7916667 0.5833334
vt 0.8333333 0.5833334
vt 0.8333333 0.6666666
vt 0.7916667 0.6666666
vt 0.5833333 0.25
vt 0.625 0.25
vt 0.08333334 0.5
vt 0.04166667 0.5
vt 0.25 0.4166667
vt 0.2916667 0.4166667
vt 0.2916667 0.5
vt 0.25 0.5
vt 0.6666667 0.4166667
vt 0.7083333 0.4166667
vt 0.7083333 0.5
vt 0.6666667 0.5
vt 0.7083333 0.08333331
vt 0.6666667 0.08333331
vt 0.6666667 0
vt 0.7083333 0
vt 0.625 0.08333331
vt 0.625 0
vt 0.5833333 0.08333331
vt 0.5833333 0
vt 0.25 0.3333333
vt 0.2916667 0.3333333
vt 0.6666667 0.3333333
vt 0.7083333 0.3333333
vt 0.7083333 0.1666667
vt 0.6666667 0.1666667
vt 0.625 0.1666667
vt 0.5833333 0.1666667
vt 0.5416667 0.1666667
vt 0.5416667 0.08333331
vt 0.08333334 0.6666666
vt 0.125 0.6666666
vt 0.125 0.75
vt 0.08333334 0.75
vt 0.2083333 0.6666666
vt 0.25 0.6666666
vt 0.25 0.75
vt 0.2083333 0.75
vt 0.2916667 0.6666666
vt 0.2916667 0.75
vt 0.625 0.5
vt 0.08333334 0.5833334
vt 0.125 0.5833334
vt 0.1666667 0.5833334
vt 0.1666667 0.6666666
vt 0.2083333 0.5833334
vt 0.25 0.5833334
vt 0.5833333 0.5
vt 0.7916667 0.25
vt 0.8333333 0.25
vt 0.8333333 0.3333333
vt 0.7916667 0.3333333
vt 0.5416667 0.5
vt 0.5416667 0.4166667
vt 0.5416667 0.3333333
vt 0.4166667 0.1666667
vt 0.4583333 0.1666667
vt 0.4583333 0.25
vt 0.4166667 0.25
vt 0.5 0.1666667
vt 0.5 0.25
vt 0.2916667 0.1666667
vt 0.3333333 0.1666667
vt 0.3333333 0.25
vt 0.2916667 0.25
vt 0.375 0.1666667
vt 0.375 0.25
vt 0.5 0.8333333
vt 0.5416667 0.8333333
vt 0.5416667 0.9166667
vt 0.5 0.9166667
vt 0.5833333 0.8333333
vt 0.5833333 0.9166667
vt 0.4583333 0.8333333
vt 0.4583333 0.9166667
vt 0.75 0.08333331
vt 0.7916667 0.08333331
vt 0.7916667 0.1666667
vt 0.75 0.1666667
vt 0.8333333 0.08333331
vt 0.8333333 0.1666667
vt 0.5416667 0.25
vt 0.08333334 0.8333333
vt 0.125 0.8333333
vt 0.125 0.9166667
vt 0.08333334 0.9166667
vt 0.1666667 0.8333333
vt 0.2083333 0.8333333
vt 0.2083333 0.9166667
vt 0.1666667 0.9166667
vt 0.25 0.8333333
vt 0.2916667 0.8333333
vt 0.2916667 0.9166667
vt 0.25 0.9166667
vt 0.5 0.08333331
vt 0.4583333 0.08333331
vt 0.4166667 0.08333331
vt 0.5416667 0
vt 0.25 0.1666667
vt 0.2083333 0.1666667
vt 0.2083333 0.08333331
vt 0.25 0.08333331
vt 0.1666667 0.1666667
vt 0.125 0.1666667
vt 0.125 0.08333331
vt 0.1666667 0.08333331
vt 0.75 0.75
vt 0.7083333 0.75
vt 0.25 0.25
vt 0.2083333 0.25
vt 0.1666667 0.25
vt 0.125 0.25
vt 0.2916667 0.08333331
vt 0.3333333 0.08333331
vt 0.375 0.08333331

# Normal
vn 0 0 -1

# Mesh description
g untitled_mesh_0009

# Faces
f 1/1/1 2/2/1 3/3/1 4/4/1
f 5/5/1 6/6/1 7/7/1 8/8/1
f 9/6/1 10/9/1 11/10/1 12/7/1
f 13/11/1 14/12/1 15/13/1 16/14/1
f 17/5/1 18/6/1 19/7/1 20/8/1
f 21/6/1 22/9/1 23/10/1 24/7/1
f 25/15/1 26/16/1 27/17/1 28/18/1
f 29/16/1 30/19/1 31/20/1 32/17/1
f 33/11/1 34/12/1 35/13/1 36/14/1
f 37/21/1 38/22/1 39/23/1 40/24/1
f 41/25/1 42/26/1 43/27/1 44/28/1
f 45/26/1 46/29/1 47/30/1 48/27/1
f 49/31/1 50/32/1 51/33/1 52/34/1
f 53/35/1 54/36/1 55/2/1 56/1/1
f 57/37/1 58/38/1 59/6/1 60/5/1
f 61/38/1 62/39/1 63/9/1 64/6/1
f 65/40/1 66/41/1 67/12/1 68/11/1
f 69/37/1 70/38/1 71/6/1 72/5/1
f 73/38/1 74/39/1 75/9/1 76/6/1
f 77/42/1 78/43/1 79/16/1 80/15/1
f 81/43/1 82/44/1 83/19/1 84/16/1
f 85/11/1 86/12/1 87/13/1 88/14/1
f 89/5/1 90/6/1 91/7/1 92/8/1
f 93/6/1 94/9/1 95/10/1 96/7/1
f 97/45/1 98/46/1 99/47/1 100/48/1
f 101/40/1 102/41/1 103/12/1 104/11/1
f 105/49/1 106/50/1 107/32/1 108/31/1
f 109/51/1 110/52/1 111/36/1 112/35/1
f 113/42/1 114/43/1 115/16/1 116/15/1
f 117/43/1 118/44/1 119/19/1 120/16/1
f 121/40/1 122/41/1 123/12/1 124/11/1
f 125/37/1 126/38/1 127/6/1 128/5/1
f 129/38/1 130/39/1 131/9/1 132/6/1
f 133/31/1 134/32/1 135/33/1 136/34/1
f 137/53/1 138/54/1 139/55/1 140/56/1
f 141/9/1 142/6/1 143/38/1 144/39/1
f 145/6/1 146/5/1 147/37/1 148/38/1
f 149/15/1 150/16/1 151/17/1 152/18/1
f 153/16/1 154/19/1 155/20/1 156/17/1
f 157/43/1 158/16/1 159/15/1 160/42/1
f 161/16/1 162/17/1 163/18/1 164/15/1
f 165/53/1 166/54/1 167/55/1 168/56/1
f 169/9/1 170/6/1 171/38/1 172/39/1
f 173/6/1 174/5/1 175/37/1 176/38/1
f 177/57/1 178/58/1 179/59/1 180/60/1
f 181/61/1 182/62/1 183/63/1 184/64/1
f 185/62/1 186/65/1 187/66/1 188/63/1
f 189/65/1 190/67/1 191/68/1 192/66/1
f 193/49/1 194/50/1 195/32/1 196/31/1
f 197/69/1 198/70/1 199/54/1 200/53/1
f 201/10/1 202/7/1 203/6/1 204/9/1
f 205/7/1 206/8/1 207/5/1 208/6/1
f 209/31/1 210/32/1 211/33/1 212/34/1
f 213/31/1 214/32/1 215/33/1 216/34/1
f 217/42/1 218/43/1 219/16/1 220/15/1
f 221/43/1 222/44/1 223/19/1 224/16/1
f 225/53/1 226/54/1 227/55/1 228/56/1
f 229/60/1 230/57/1 231/58/1 232/59/1
f 233/57/1 234/71/1 235/72/1 236/58/1
f 237/44/1 238/19/1 239/16/1 240/43/1
f 241/19/1 242/20/1 243/17/1 244/16/1
f 245/69/1 246/70/1 247/54/1 248/53/1
f 249/10/1 250/7/1 251/6/1 252/9/1
f 253/7/1 254/8/1 255/5/1 256/6/1
f 257/71/1 258/72/1 259/58/1 260/57/1
f 261/73/1 262/74/1 263/62/1 264/61/1
f 265/74/1 266/75/1 267/65/1 268/62/1
f 269/75/1 270/76/1 271/67/1 272/65/1
f 273/76/1 274/77/1 275/78/1 276/67/1
f 277/76/1 278/75/1 279/50/1 280/49/1
f 281/79/1 282/80/1 283/81/1 284/82/1
f 285/69/1 286/70/1 287/54/1 288/53/1
f 289/83/1 290/84/1 291/85/1 292/86/1
f 293/84/1 294/87/1 295/88/1 296/85/1
f 297/89/1 298/33/1 299/57/1 300/60/1
f 301/33/1 302/32/1 303/71/1 304/57/1
f 305/5/1 306/6/1 307/7/1 308/8/1
f 309/6/1 310/9/1 311/10/1 312/7/1
f 313/90/1 314/91/1 315/80/1 316/79/1
f 317/91/1 318/92/1 319/93/1 320/80/1
f 321/94/1 322/95/1 323/84/1 324/83/1
f 325/27/1 326/26/1 327/29/1 328/30/1
f 329/96/1 330/34/1 331/33/1 332/89/1
f 333/34/1 334/31/1 335/32/1 336/33/1
f 337/37/1 338/38/1 339/6/1 340/5/1
f 341/38/1 342/39/1 343/9/1 344/6/1
f 345/7/1 346/6/1 347/9/1 348/10/1
f 349/6/1 350/38/1 351/39/1 352/9/1
f 353/38/1 354/6/1 355/5/1 356/37/1
f 357/6/1 358/7/1 359/8/1 360/5/1
f 361/97/1 362/98/1 363/99/1 364/100/1
f 365/101/1 366/102/1 367/34/1 368/96/1
f 369/102/1 370/103/1 371/31/1 372/34/1
f 373/8/1 374/5/1 375/6/1 376/7/1
f 377/5/1 378/37/1 379/38/1 380/6/1
f 381/104/1 382/105/1 383/106/1 384/107/1
f 385/105/1 386/108/1 387/109/1 388/106/1
f 389/39/1 390/9/1 391/6/1 392/38/1
f 393/9/1 394/10/1 395/7/1 396/6/1
f 397/70/1 398/54/1 399/53/1 400/69/1
f 401/54/1 402/55/1 403/56/1 404/53/1
f 405/9/1 406/6/1 407/38/1 408/39/1
f 409/6/1 410/5/1 411/37/1 412/38/1
f 413/53/1 414/54/1 415/55/1 416/56/1
f 417/43/1 418/16/1 419/15/1 420/42/1
f 421/16/1 422/17/1 423/18/1 424/15/1
f 425/43/1 426/16/1 427/15/1 428/42/1
f 429/16/1 430/17/1 431/18/1 432/15/1
f 433/110/1 434/111/1 435/112/1 436/113/1
f 437/111/1 438/114/1 439/115/1 440/112/1
f 441/49/1 442/50/1 443/32/1 444/31/1
f 445/116/1 446/117/1 447/118/1 448/119/1
f 449/117/1 450/120/1 451/121/1 452/118/1
f 453/117/1 454/120/1 455/121/1 456/118/1
f 457/117/1 458/120/1 459/121/1 460/118/1
f 461/117/1 462/120/1 463/121/1 464/118/1
f 465/117/1 466/120/1 467/121/1 468/118/1
f 469/117/1 470/120/1 471/121/1 472/118/1
f 473/117/1 474/120/1 475/121/1 476/118/1
f 477/117/1 478/120/1 479/121/1 480/118/1
f 481/122/1 482/116/1 483/119/1 484/123/1
f 485/124/1 486/125/1 487/126/1 488/127/1
f 489/125/1 490/128/1 491/129/1 492/126/1
f 493/10/1 494/7/1 495/6/1 496/9/1
f 497/7/1 498/8/1 499/5/1 500/6/1
f 501/20/1 502/103/1 503/102/1 504/17/1
f 505/110/1 506/111/1 507/112/1 508/113/1
f 509/69/1 510/70/1 511/54/1 512/53/1
f 513/44/1 514/19/1 515/16/1 516/43/1
f 517/19/1 518/20/1 519/17/1 520/16/1
f 521/44/1 522/19/1 523/16/1 524/43/1
f 525/19/1 526/20/1 527/17/1 528/16/1
f 529/49/1 530/50/1 531/32/1 532/31/1
f 533/117/1 534/118/1 535/119/1 536/116/1
f 537/41/1 538/12/1 539/11/1 540/40/1
f 541/12/1 542/13/1 543/14/1 544/11/1
f 545/76/1 546/75/1 547/50/1 548/49/1
f 549/109/1 550/130/1 551/103/1 552/20/1
f 553/130/1 554/49/1 555/31/1 556/103/1
f 557/120/1 558/121/1 559/118/1 560/117/1
f 561/108/1 562/77/1 563/130/1 564/109/1
f 565/77/1 566/76/1 567/49/1 568/130/1
f 569/131/1 570/132/1 571/133/1 572/134/1
f 573/135/1 574/136/1 575/137/1 576/138/1
f 577/139/1 578/140/1 579/141/1 580/142/1
f 581/78/1 582/67/1 583/76/1 584/77/1
f 585/67/1 586/65/1 587/75/1 588/76/1
f 589/65/1 590/62/1 591/74/1 592/75/1
f 593/62/1 594/61/1 595/73/1 596/74/1
f 597/143/1 598/78/1 599/77/1 600/108/1
f 601/78/1 602/67/1 603/76/1 604/77/1
f 605/117/1 606/118/1 607/119/1 608/116/1
f 609/144/1 610/105/1 611/104/1 612/145/1
f 613/105/1 614/106/1 615/107/1 616/104/1
f 617/146/1 618/68/1 619/67/1 620/78/1
f 621/68/1 622/66/1 623/65/1 624/67/1
f 625/66/1 626/63/1 627/62/1 628/65/1
f 629/63/1 630/64/1 631/61/1 632/62/1
f 633/147/1 634/148/1 635/149/1 636/150/1
f 637/151/1 638/152/1 639/153/1 640/154/1
f 641/27/1 642/30/1 643/155/1 644/156/1
f 645/53/1 646/54/1 647/55/1 648/56/1
f 649/9/1 650/6/1 651/38/1 652/39/1
f 653/6/1 654/5/1 655/37/1 656/38/1
f 657/33/1 658/57/1 659/60/1 660/89/1
f 661/57/1 662/58/1 663/59/1 664/60/1
f 665/110/1 666/111/1 667/112/1 668/113/1
f 669/111/1 670/114/1 671/115/1 672/112/1
f 673/49/1 674/50/1 675/32/1 676/31/1
f 677/143/1 678/108/1 679/105/1 680/144/1
f 681/108/1 682/109/1 683/106/1 684/105/1
f 685/157/1 686/158/1 687/148/1 688/147/1
f 689/159/1 690/160/1 691/152/1 692/151/1
f 693/69/1 694/70/1 695/54/1 696/53/1
f 697/10/1 698/7/1 699/6/1 700/9/1
f 701/7/1 702/8/1 703/5/1 704/6/1
f 705/32/1 706/71/1 707/57/1 708/33/1
f 709/71/1 710/72/1 711/58/1 712/57/1
f 713/161/1 714/162/1 715/111/1 716/110/1
f 717/162/1 718/163/1 719/114/1 720/111/1
f 721/7/1 722/6/1 723/9/1 724/10/1
f 725/6/1 726/38/1 727/39/1 728/9/1
f 729/53/1 730/54/1 731/55/1 732/56/1
f 733/8/1 734/5/1 735/6/1 736/7/1
f 737/5/1 738/37/1 739/38/1 740/6/1
f 741/53/1 742/54/1 743/55/1 744/56/1
f 745/9/1 746/6/1 747/38/1 748/39/1
f 749/6/1 750/5/1 751/37/1 752/38/1
f 753/65/1 754/67/1 755/68/1 756/66/1
f 757/53/1 758/54/1 759/55/1 760/56/1
f 761/102/1 762/34/1 763/96/1 764/101/1
f 765/34/1 766/33/1 767/89/1 768/96/1
f 769/33/1 770/57/1 771/60/1 772/89/1
f 773/57/1 774/58/1 775/59/1 776/60/1
f 777/9/1 778/6/1 779/38/1 780/39/1
f 781/6/1 782/5/1 783/37/1 784/38/1
f 785/53/1 786/54/1 787/55/1 788/56/1
f 789/69/1 790/70/1 791/54/1 792/53/1
f 793/69/1 794/70/1 795/54/1 796/53/1
f 797/10/1 798/7/1 799/6/1 800/9/1
f 801/7/1 802/8/1 803/5/1 804/6/1
f 805/75/1 806/76/1 807/67/1 808/65/1
f 809/69/1 810/70/1 811/54/1 812/53/1
f 813/103/1 814/31/1 815/34/1 816/102/1
f 817/31/1 818/32/1 819/33/1 820/34/1
f 821/32/1 822/71/1 823/57/1 824/33/1
f 825/71/1 826/72/1 827/58/1 828/57/1
f 829/10/1 830/7/1 831/6/1 832/9/1
f 833/7/1 834/8/1 835/5/1 836/6/1
f 837/69/1 838/70/1 839/54/1 840/53/1
f 841/162/1 842/163/1 843/114/1 844/111/1
f 845/76/1 846/75/1 847/50/1 848/49/1

