# Tiled2Unity generated file. Do not modify by hand.
# Wavefront file for 'untitled_mesh_0010.obj'

# Vertices (Count = 48)
v -1616 -16 0
v -1632 -16 0
v -1632 0 0
v -1616 0 0
v -1632 -16 0
v -1648 -16 0
v -1648 0 0
v -1632 0 0
v -1616 -32 0
v -1632 -32 0
v -1632 -16 0
v -1616 -16 0
v -1632 -32 0
v -1648 -32 0
v -1648 -16 0
v -1632 -16 0
v -1888 -32 0
v -1904 -32 0
v -1904 -16 0
v -1888 -16 0
v -1904 -32 0
v -1920 -32 0
v -1920 -16 0
v -1904 -16 0
v -592 -288 0
v -608 -288 0
v -608 -272 0
v -592 -272 0
v -608 -288 0
v -624 -288 0
v -624 -272 0
v -608 -272 0
v -592 -304 0
v -608 -304 0
v -608 -288 0
v -592 -288 0
v -608 -304 0
v -624 -304 0
v -624 -288 0
v -608 -288 0
v -592 -320 0
v -608 -320 0
v -608 -304 0
v -592 -304 0
v -608 -320 0
v -624 -320 0
v -624 -304 0
v -608 -304 0

# Texture cooridinates (Count = 12)
vt 0 0.3962264
vt 0.4210526 0.3962264
vt 0.4210526 0.6981132
vt 0 0.6981132
vt 0.8421053 0.3962264
vt 0.8421053 0.6981132
vt 0 0.09433961
vt 0.4210526 0.09433961
vt 0.8421053 0.09433961
vt 0.4210526 1
vt 0 1
vt 0.8421053 1

# Normal
vn 0 0 -1

# Mesh description
g untitled_mesh_0010

# Faces
f 1/1/1 2/2/1 3/3/1 4/4/1
f 5/2/1 6/5/1 7/6/1 8/3/1
f 9/7/1 10/8/1 11/2/1 12/1/1
f 13/8/1 14/9/1 15/5/1 16/2/1
f 17/4/1 18/3/1 19/10/1 20/11/1
f 21/3/1 22/6/1 23/12/1 24/10/1
f 25/5/1 26/2/1 27/8/1 28/9/1
f 29/2/1 30/1/1 31/7/1 32/8/1
f 33/6/1 34/3/1 35/2/1 36/5/1
f 37/3/1 38/4/1 39/1/1 40/2/1
f 41/12/1 42/10/1 43/3/1 44/6/1
f 45/10/1 46/11/1 47/4/1 48/3/1

