# Tiled2Unity generated file. Do not modify by hand.
# Wavefront file for 'untitled_mesh_0008.obj'

# Vertices (Count = 12)
v -2320 -304 0
v -2336 -304 0
v -2336 -288 0
v -2320 -288 0
v -2336 -304 0
v -2352 -304 0
v -2352 -288 0
v -2336 -288 0
v -2352 -304 0
v -2368 -304 0
v -2368 -288 0
v -2352 -288 0

# Texture cooridinates (Count = 8)
vt 0.6666667 0
vt 0.6666667 0.3333333
vt 0.3333333 0.3333333
vt 0.3333333 0
vt 0.6666667 0.6666666
vt 0.3333333 0.6666666
vt 0.6666667 1
vt 0.3333333 1

# Normal
vn 0 0 -1

# Mesh description
g untitled_mesh_0008

# Faces
f 1/1/1 2/2/1 3/3/1 4/4/1
f 5/2/1 6/5/1 7/6/1 8/3/1
f 9/5/1 10/7/1 11/8/1 12/6/1

