# Tiled2Unity generated file. Do not modify by hand.
# Wavefront file for 'untitled_mesh_0006.obj'

# Vertices (Count = 52)
v -2416 -64 0
v -2432 -64 0
v -2432 -48 0
v -2416 -48 0
v -2432 -64 0
v -2448 -64 0
v -2448 -48 0
v -2432 -48 0
v -2416 -80 0
v -2432 -80 0
v -2432 -64 0
v -2416 -64 0
v -2432 -80 0
v -2448 -80 0
v -2448 -64 0
v -2432 -64 0
v -2112 -192 0
v -2128 -192 0
v -2128 -176 0
v -2112 -176 0
v -2128 -192 0
v -2144 -192 0
v -2144 -176 0
v -2128 -176 0
v -2112 -208 0
v -2128 -208 0
v -2128 -192 0
v -2112 -192 0
v -2128 -208 0
v -2144 -208 0
v -2144 -192 0
v -2128 -192 0
v -2112 -224 0
v -2128 -224 0
v -2128 -208 0
v -2112 -208 0
v -2128 -224 0
v -2144 -224 0
v -2144 -208 0
v -2128 -208 0
v -576 -288 0
v -592 -288 0
v -592 -272 0
v -576 -272 0
v -576 -304 0
v -592 -304 0
v -592 -288 0
v -576 -288 0
v -592 -320 0
v -608 -320 0
v -608 -304 0
v -592 -304 0

# Texture cooridinates (Count = 12)
vt 0 0.6666666
vt 0.4444444 0.6666666
vt 0.4444444 1
vt 0 1
vt 0.8888889 0.6666666
vt 0.8888889 1
vt 0 0.3333333
vt 0.4444444 0.3333333
vt 0.8888889 0.3333333
vt 0 0
vt 0.4444444 0
vt 0.8888889 0

# Normal
vn 0 0 -1

# Mesh description
g untitled_mesh_0006

# Faces
f 1/1/1 2/2/1 3/3/1 4/4/1
f 5/2/1 6/5/1 7/6/1 8/3/1
f 9/7/1 10/8/1 11/2/1 12/1/1
f 13/8/1 14/9/1 15/5/1 16/2/1
f 17/1/1 18/2/1 19/3/1 20/4/1
f 21/2/1 22/5/1 23/6/1 24/3/1
f 25/7/1 26/8/1 27/2/1 28/1/1
f 29/8/1 30/9/1 31/5/1 32/2/1
f 33/10/1 34/11/1 35/8/1 36/7/1
f 37/11/1 38/12/1 39/9/1 40/8/1
f 41/1/1 42/2/1 43/3/1 44/4/1
f 45/7/1 46/8/1 47/2/1 48/1/1
f 49/11/1 50/12/1 51/9/1 52/8/1

