# Tiled2Unity generated file. Do not modify by hand.
# Wavefront file for 'untitled_mesh_0016.obj'

# Vertices (Count = 24)
v -928 -208 0
v -944 -208 0
v -944 -192 0
v -928 -192 0
v -944 -208 0
v -960 -208 0
v -960 -192 0
v -944 -192 0
v -960 -208 0
v -976 -208 0
v -976 -192 0
v -960 -192 0
v -928 -224 0
v -944 -224 0
v -944 -208 0
v -928 -208 0
v -944 -224 0
v -960 -224 0
v -960 -208 0
v -944 -208 0
v -960 -224 0
v -976 -224 0
v -976 -208 0
v -960 -208 0

# Texture cooridinates (Count = 12)
vt 0 0.6
vt 0.3333333 0.6
vt 0.3333333 1
vt 0 1
vt 0.6666667 0.6
vt 0.6666667 1
vt 1 0.6
vt 1 1
vt 0 0.2
vt 0.3333333 0.2
vt 0.6666667 0.2
vt 1 0.2

# Normal
vn 0 0 -1

# Mesh description
g untitled_mesh_0016

# Faces
f 1/1/1 2/2/1 3/3/1 4/4/1
f 5/2/1 6/5/1 7/6/1 8/3/1
f 9/5/1 10/7/1 11/8/1 12/6/1
f 13/9/1 14/10/1 15/2/1 16/1/1
f 17/10/1 18/11/1 19/5/1 20/2/1
f 21/11/1 22/12/1 23/7/1 24/5/1

