# Tiled2Unity generated file. Do not modify by hand.
# Wavefront file for 'untitled_mesh_0011.obj'

# Vertices (Count = 244)
v -512 -32 0
v -528 -32 0
v -528 -16 0
v -512 -16 0
v -560 -32 0
v -576 -32 0
v -576 -16 0
v -560 -16 0
v -576 -32 0
v -592 -32 0
v -592 -16 0
v -576 -16 0
v -592 -32 0
v -608 -32 0
v -608 -16 0
v -592 -16 0
v -608 -32 0
v -624 -32 0
v -624 -16 0
v -608 -16 0
v -960 -80 0
v -976 -80 0
v -976 -64 0
v -960 -64 0
v -976 -80 0
v -992 -80 0
v -992 -64 0
v -976 -64 0
v -1024 -80 0
v -1040 -80 0
v -1040 -64 0
v -1024 -64 0
v -1040 -80 0
v -1056 -80 0
v -1056 -64 0
v -1040 -64 0
v -1056 -80 0
v -1072 -80 0
v -1072 -64 0
v -1056 -64 0
v -1328 -80 0
v -1344 -80 0
v -1344 -64 0
v -1328 -64 0
v -1344 -80 0
v -1360 -80 0
v -1360 -64 0
v -1344 -64 0
v -992 -96 0
v -1008 -96 0
v -1008 -80 0
v -992 -80 0
v -1024 -96 0
v -1040 -96 0
v -1040 -80 0
v -1024 -80 0
v -1040 -96 0
v -1056 -96 0
v -1056 -80 0
v -1040 -80 0
v -1056 -96 0
v -1072 -96 0
v -1072 -80 0
v -1056 -80 0
v -992 -112 0
v -1008 -112 0
v -1008 -96 0
v -992 -96 0
v -1008 -112 0
v -1024 -112 0
v -1024 -96 0
v -1008 -96 0
v -1008 -128 0
v -1024 -128 0
v -1024 -112 0
v -1008 -112 0
v -1328 -160 0
v -1344 -160 0
v -1344 -144 0
v -1328 -144 0
v -1344 -160 0
v -1360 -160 0
v -1360 -144 0
v -1344 -144 0
v -1344 -224 0
v -1360 -224 0
v -1360 -208 0
v -1344 -208 0
v -960 -240 0
v -976 -240 0
v -976 -224 0
v -960 -224 0
v -976 -240 0
v -992 -240 0
v -992 -224 0
v -976 -224 0
v -992 -240 0
v -1008 -240 0
v -1008 -224 0
v -992 -224 0
v -1104 -240 0
v -1120 -240 0
v -1120 -224 0
v -1104 -224 0
v -1296 -240 0
v -1312 -240 0
v -1312 -224 0
v -1296 -224 0
v -880 -256 0
v -896 -256 0
v -896 -240 0
v -880 -240 0
v -960 -256 0
v -976 -256 0
v -976 -240 0
v -960 -240 0
v -976 -256 0
v -992 -256 0
v -992 -240 0
v -976 -240 0
v -992 -256 0
v -1008 -256 0
v -1008 -240 0
v -992 -240 0
v -1008 -256 0
v -1024 -256 0
v -1024 -240 0
v -1008 -240 0
v -1104 -256 0
v -1120 -256 0
v -1120 -240 0
v -1104 -240 0
v -880 -272 0
v -896 -272 0
v -896 -256 0
v -880 -256 0
v -992 -272 0
v -1008 -272 0
v -1008 -256 0
v -992 -256 0
v -1008 -272 0
v -1024 -272 0
v -1024 -256 0
v -1008 -256 0
v -1088 -272 0
v -1104 -272 0
v -1104 -256 0
v -1088 -256 0
v -1104 -272 0
v -1120 -272 0
v -1120 -256 0
v -1104 -256 0
v -880 -288 0
v -896 -288 0
v -896 -272 0
v -880 -272 0
v -896 -288 0
v -912 -288 0
v -912 -272 0
v -896 -272 0
v -912 -288 0
v -928 -288 0
v -928 -272 0
v -912 -272 0
v -928 -288 0
v -944 -288 0
v -944 -272 0
v -928 -272 0
v -944 -288 0
v -960 -288 0
v -960 -272 0
v -944 -272 0
v -960 -288 0
v -976 -288 0
v -976 -272 0
v -960 -272 0
v -976 -288 0
v -992 -288 0
v -992 -272 0
v -976 -272 0
v -992 -288 0
v -1008 -288 0
v -1008 -272 0
v -992 -272 0
v -1008 -288 0
v -1024 -288 0
v -1024 -272 0
v -1008 -272 0
v -1024 -288 0
v -1040 -288 0
v -1040 -272 0
v -1024 -272 0
v -1088 -288 0
v -1104 -288 0
v -1104 -272 0
v -1088 -272 0
v -1104 -288 0
v -1120 -288 0
v -1120 -272 0
v -1104 -272 0
v -576 -304 0
v -592 -304 0
v -592 -288 0
v -576 -288 0
v -880 -304 0
v -896 -304 0
v -896 -288 0
v -880 -288 0
v -992 -304 0
v -1008 -304 0
v -1008 -288 0
v -992 -288 0
v -1008 -304 0
v -1024 -304 0
v -1024 -288 0
v -1008 -288 0
v -1088 -304 0
v -1104 -304 0
v -1104 -288 0
v -1088 -288 0
v -1104 -304 0
v -1120 -304 0
v -1120 -288 0
v -1104 -288 0
v -880 -320 0
v -896 -320 0
v -896 -304 0
v -880 -304 0
v -992 -320 0
v -1008 -320 0
v -1008 -304 0
v -992 -304 0
v -1008 -320 0
v -1024 -320 0
v -1024 -304 0
v -1008 -304 0
v -1088 -320 0
v -1104 -320 0
v -1104 -304 0
v -1088 -304 0
v -1104 -320 0
v -1120 -320 0
v -1120 -304 0
v -1104 -304 0

# Texture cooridinates (Count = 72)
vt 0.5 0.8333333
vt 0.5416667 0.8333333
vt 0.5416667 0.9166667
vt 0.5 0.9166667
vt 0.4583333 0.8333333
vt 0.4583333 0.9166667
vt 0.5833333 0.8333333
vt 0.5833333 0.9166667
vt 0.75 0.8333333
vt 0.7916667 0.8333333
vt 0.7916667 0.9166667
vt 0.75 0.9166667
vt 0.25 0.5
vt 0.25 0.4166667
vt 0.2916667 0.4166667
vt 0.2916667 0.5
vt 0.25 0.3333333
vt 0.2916667 0.3333333
vt 0.3333333 0.4166667
vt 0.375 0.4166667
vt 0.375 0.5
vt 0.3333333 0.5
vt 0.125 0.4166667
vt 0.1666667 0.4166667
vt 0.1666667 0.5
vt 0.125 0.5
vt 0.2083333 0.4166667
vt 0.2083333 0.5
vt 0.3333333 0.6666666
vt 0.375 0.6666666
vt 0.375 0.75
vt 0.3333333 0.75
vt 0.3333333 0.3333333
vt 0.375 0.3333333
vt 0.125 0.3333333
vt 0.1666667 0.3333333
vt 0.2083333 0.3333333
vt 0.3333333 0.5833334
vt 0.375 0.5833334
vt 0.5416667 0.1666667
vt 0.5833333 0.1666667
vt 0.5833333 0.25
vt 0.5416667 0.25
vt 0.04166667 0.3333333
vt 0.08333334 0.3333333
vt 0.08333334 0.4166667
vt 0.04166667 0.4166667
vt 0.4166667 0.1666667
vt 0.4583333 0.1666667
vt 0.4583333 0.25
vt 0.4166667 0.25
vt 0.5 0.1666667
vt 0.5 0.25
vt 0.08333334 0.5
vt 0.04166667 0.5
vt 0.04166667 0.25
vt 0.08333334 0.25
vt 0.4166667 0.08333331
vt 0.4583333 0.08333331
vt 0.4583333 0.3333333
vt 0.4583333 0.4166667
vt 0.4166667 0.4166667
vt 0.4166667 0.3333333
vt 0.4583333 0.5
vt 0.4166667 0.5
vt 0.5 0.4166667
vt 0.5 0.5
vt 0.5 0.3333333
vt 0.625 0.75
vt 0.5833333 0.75
vt 0.5833333 0.6666666
vt 0.625 0.6666666

# Normal
vn 0 0 -1

# Mesh description
g untitled_mesh_0011

# Faces
f 1/1/1 2/2/1 3/3/1 4/4/1
f 5/5/1 6/1/1 7/4/1 8/6/1
f 9/2/1 10/7/1 11/8/1 12/3/1
f 13/2/1 14/7/1 15/8/1 16/3/1
f 17/9/1 18/10/1 19/11/1 20/12/1
f 21/13/1 22/14/1 23/15/1 24/16/1
f 25/14/1 26/17/1 27/18/1 28/15/1
f 29/19/1 30/20/1 31/21/1 32/22/1
f 33/23/1 34/24/1 35/25/1 36/26/1
f 37/24/1 38/27/1 39/28/1 40/25/1
f 41/13/1 42/14/1 43/15/1 44/16/1
f 45/14/1 46/17/1 47/18/1 48/15/1
f 49/29/1 50/30/1 51/31/1 52/32/1
f 53/33/1 54/34/1 55/20/1 56/19/1
f 57/35/1 58/36/1 59/24/1 60/23/1
f 61/36/1 62/37/1 63/27/1 64/24/1
f 65/38/1 66/39/1 67/30/1 68/29/1
f 69/29/1 70/30/1 71/31/1 72/32/1
f 73/38/1 74/39/1 75/30/1 76/29/1
f 77/13/1 78/14/1 79/15/1 80/16/1
f 81/14/1 82/17/1 83/18/1 84/15/1
f 85/40/1 86/41/1 87/42/1 88/43/1
f 89/44/1 90/45/1 91/46/1 92/47/1
f 93/48/1 94/49/1 95/50/1 96/51/1
f 97/49/1 98/52/1 99/53/1 100/50/1
f 101/47/1 102/46/1 103/54/1 104/55/1
f 105/3/1 106/2/1 107/7/1 108/8/1
f 109/3/1 110/2/1 111/7/1 112/8/1
f 113/56/1 114/57/1 115/45/1 116/44/1
f 117/58/1 118/59/1 119/49/1 120/48/1
f 121/34/1 122/20/1 123/19/1 124/33/1
f 125/20/1 126/21/1 127/22/1 128/19/1
f 129/44/1 130/45/1 131/46/1 132/47/1
f 133/3/1 134/2/1 135/7/1 136/8/1
f 137/60/1 138/61/1 139/62/1 140/63/1
f 141/61/1 142/64/1 143/65/1 144/62/1
f 145/64/1 146/61/1 147/66/1 148/67/1
f 149/61/1 150/60/1 151/68/1 152/66/1
f 153/6/1 154/5/1 155/1/1 156/4/1
f 157/2/1 158/7/1 159/8/1 160/3/1
f 161/2/1 162/7/1 163/8/1 164/3/1
f 165/2/1 166/7/1 167/8/1 168/3/1
f 169/2/1 170/7/1 171/8/1 172/3/1
f 173/2/1 174/7/1 175/8/1 176/3/1
f 177/2/1 178/7/1 179/8/1 180/3/1
f 181/2/1 182/7/1 183/8/1 184/3/1
f 185/2/1 186/7/1 187/8/1 188/3/1
f 189/9/1 190/10/1 191/11/1 192/12/1
f 193/65/1 194/62/1 195/61/1 196/64/1
f 197/62/1 198/63/1 199/60/1 200/61/1
f 201/69/1 202/70/1 203/71/1 204/72/1
f 205/3/1 206/2/1 207/7/1 208/8/1
f 209/60/1 210/61/1 211/62/1 212/63/1
f 213/61/1 214/64/1 215/65/1 216/62/1
f 217/64/1 218/61/1 219/66/1 220/67/1
f 221/61/1 222/60/1 223/68/1 224/66/1
f 225/3/1 226/2/1 227/7/1 228/8/1
f 229/68/1 230/66/1 231/61/1 232/60/1
f 233/66/1 234/67/1 235/64/1 236/61/1
f 237/65/1 238/62/1 239/61/1 240/64/1
f 241/62/1 242/63/1 243/60/1 244/61/1

